# This file uses centimeters as units for non-parametric coordinates.

mtllib club.mtl
g default
v 0.000000 -0.050598 0.040747
v 0.000000 -0.040747 0.050598
v 1.200345 -0.021706 0.031556
v 1.200345 -0.031556 0.021706
v 0.000000 0.050598 0.040747
v 0.000000 0.040747 0.050598
v 1.200345 0.031556 0.021706
v 1.200345 0.021706 0.031556
v 0.000000 0.040747 -0.050598
v 0.000000 0.050598 -0.040747
v 1.200345 0.021706 -0.031557
v 1.200345 0.031556 -0.021706
v 0.000000 -0.050598 -0.040747
v 0.000000 -0.040747 -0.050598
v 1.200345 -0.031556 -0.021706
v 1.200345 -0.021706 -0.031557
v 1.200345 -0.010268 0.020118
v 1.200345 -0.020118 0.010268
v 1.200345 0.020118 0.010268
v 1.200345 0.010268 0.020118
v 1.200345 0.010268 -0.020119
v 1.200345 0.020118 -0.010268
v 1.200345 -0.020118 -0.010268
v 1.200345 -0.010268 -0.020119
v 2.401144 -0.010060 0.020118
v 2.401144 -0.020118 0.010060
v 2.401144 0.020118 0.010060
v 2.401144 0.010060 0.020118
v 2.401144 0.010060 -0.020119
v 2.401144 0.020118 -0.010060
v 2.401144 -0.020118 -0.010060
v 2.401144 -0.010060 -0.020119
v 2.738210 -0.016996 -0.009919
v 2.737579 -0.036063 -0.021543
v 2.749150 0.036063 -0.021543
v 2.738210 0.016802 -0.009919
v 2.738210 0.017658 -0.121672
v 2.750355 0.036079 -0.111087
v 2.738784 -0.036063 -0.111087
v 2.738210 -0.017658 -0.121672
v 2.808626 -0.042890 0.298288
v 2.808001 -0.054424 0.286755
v 2.808001 0.054424 0.286755
v 2.808626 0.042890 0.298288
v 2.776361 0.043912 -0.184761
v 2.776931 0.054424 -0.174249
v 2.776931 -0.054424 -0.174249
v 2.776361 -0.043912 -0.184761
v 2.922912 -0.054424 0.288343
v 2.923858 -0.044580 0.298186
v 2.877402 -0.044581 -0.184660
v 2.878348 -0.054424 -0.174815
v 2.923858 0.044580 0.298186
v 2.922912 0.054424 0.288343
v 2.878348 0.054424 -0.174815
v 2.877402 0.044581 -0.184660
v 2.401144 -0.026061 0.047353
v 2.409510 -0.029601 0.054244
v 2.409153 -0.039663 0.044063
v 2.401144 -0.031575 0.042358
v 2.401144 0.031575 0.042358
v 2.409153 0.039663 0.044063
v 2.409510 0.029601 0.054244
v 2.401144 0.026061 0.047353
v 2.401144 0.026607 -0.048655
v 2.408232 0.029628 -0.057261
v 2.408624 0.039663 -0.047113
v 2.401144 0.032114 -0.042578
v 2.401144 -0.032114 -0.042578
v 2.408624 -0.039663 -0.047113
v 2.408232 -0.029628 -0.057261
v 2.401144 -0.026607 -0.048655
v 2.944416 -0.022559 0.272932
v 2.940013 -0.029136 0.284867
v 2.944415 0.021992 0.272925
v 2.940044 0.028679 0.284842
v 2.943810 -0.031722 0.266534
v 2.939097 -0.042956 0.275563
v 2.903973 -0.032919 -0.153978
v 2.897750 -0.044154 -0.161901
v 2.903326 -0.024447 -0.160814
v 2.896975 -0.030614 -0.172009
v 2.943810 0.031183 0.266536
v 2.939149 0.042430 0.275578
v 2.903973 0.032934 -0.154018
v 2.897768 0.044215 -0.161888
v 2.903326 0.024339 -0.160847
v 2.896974 0.030479 -0.172050
vt 0.125000 0.024336
vt 0.149336 -0.000000
vt 0.350664 0.250000
vt 0.149336 0.250000
vt 0.125000 0.225664
vt 0.350664 0.000000
vt 0.625000 0.000000
vt 0.843916 -0.000000
vt 1.000000 0.888533
vt 1.000000 1.000000
vt 0.375000 0.225664
vt 0.625000 0.210979
vt 0.000000 0.744967
vt 0.244823 1.000000
vt 0.000000 1.000000
vt 0.375000 0.475664
vt 0.625000 0.460979
vt 0.000000 0.744967
vt 0.244822 1.000000
vt 0.000000 1.000000
vt 0.375000 0.725664
vt 0.625000 0.710979
vt 0.000000 0.744967
vt 0.244823 1.000000
vt 0.000000 1.000000
vt 0.755183 0.000000
vt 1.000000 0.000000
vt 1.000000 1.000000
vt 0.000000 0.000000
vt 0.249975 1.000000
vt 0.000000 1.000000
vt 0.000000 0.000000
vt 0.249974 1.000000
vt 0.000000 1.000000
vt 0.000000 0.000000
vt 0.249975 1.000000
vt 0.000000 1.000000
vt 0.854645 0.000001
vt 1.000000 0.000000
vt 1.000000 0.963702
vt 0.000000 0.000000
vt 0.105960 1.000000
vt 0.000000 0.957026
vt 0.000000 0.000000
vt 0.023673 0.997002
vt 0.000000 0.760111
vt 0.000000 0.000000
vt 0.096573 1.000000
vt 0.000000 0.840110
vt 0.894040 0.000000
vt 1.000000 0.000000
vt 1.000000 0.817241
vt 0.000000 0.000000
vt 0.000000 0.817241
vt 0.000000 0.000000
vt 0.000000 0.813014
vt 0.000000 0.004186
vt 0.000000 0.813014
vt 0.375000 0.024336
vt 0.625000 0.039021
vt 0.375000 0.274336
vt 0.625000 0.289021
vt 0.375000 0.524336
vt 0.625000 0.539021
vt 0.375000 0.774336
vt 0.625000 0.789021
vt 0.625000 0.960979
vt 0.375000 0.975664
vt 0.156084 0.000000
vt 0.755177 1.000000
vt 0.156084 0.000000
vt 0.843916 0.000000
vt 0.755178 1.000000
vt 0.156084 0.000000
vt 0.843916 -0.000000
vt 0.755177 1.000000
vt 0.156084 0.000000
vt 0.843916 0.000000
vt 0.755178 1.000000
vt 0.244822 1.000000
vt 0.244817 -0.000000
vt 0.750025 1.000000
vt 0.244817 -0.000000
vt 0.755183 0.000000
vt 0.750026 1.000000
vt 0.244817 -0.000000
vt 0.755183 0.000000
vt 0.750025 1.000000
vt 0.244817 -0.000000
vt 0.755183 0.000000
vt 0.750026 1.000000
vt 0.249974 1.000000
vt 0.145355 0.000001
vt 0.894040 1.000000
vt 0.104046 0.016515
vt 0.869962 0.000000
vt 0.974114 1.000000
vt 0.132363 0.000000
vt 0.867638 0.000000
vt 0.903427 1.000000
vt 0.130037 0.000000
vt 0.895955 0.016515
vt 0.976327 0.997002
vt 0.025886 1.000000
vt 0.090432 0.813014
vt 0.105960 0.000000
vt 0.021737 -0.000000
vt 0.976124 0.001045
vt 0.096573 -0.000000
vt 0.903427 0.000000
vt 0.023876 0.001045
vt 0.978262 0.000000
vt 0.868066 0.954983
vt 0.154022 0.955661
vt 0.876855 0.955363
vt 0.923579 0.633156
vt 0.993381 0.713743
vt 0.105710 0.999999
vt 0.853764 0.654162
vt 0.908608 1.000000
vt 0.850281 0.632199
vt 0.894290 1.000000
vt 0.091393 0.999999
vt 0.006619 0.610733
vt 0.123145 0.949558
vt 0.849048 0.801122
vt 0.864315 1.000000
vt 0.145134 1.000000
vt 0.000000 0.334585
vt 0.084548 0.950170
vt 0.009463 0.655251
vt 0.126369 1.000000
vt 1.000000 0.000000
vt 0.855446 0.762944
vt 0.000000 0.000000
vt 0.249975 0.000000
vt 0.076421 0.569881
vt 0.000000 0.000000
vt 0.249974 0.000001
vt 0.005402 0.311989
vt 0.000000 0.000000
vt 0.249975 0.000000
vt 0.071325 0.573716
vt 1.000000 0.029370
vt 1.000000 1.000000
vt 0.854646 1.000000
vt 0.000000 0.029371
vt 0.126841 0.024817
vt 0.000000 1.000000
vt 0.000000 0.021031
vt 0.091484 0.022153
vt 0.000000 1.000000
vt 0.000005 0.022075
vt 0.126496 0.021031
vt 0.000000 0.995736
vt 0.750025 0.000000
vt 0.144554 0.755562
vt 0.750026 0.000001
vt 0.057102 0.685611
vt 0.750025 0.000000
vt 0.141778 0.792881
vt 0.249974 0.000001
vt 0.750026 0.000001
vt 0.315481 0.659768
vt 0.873159 0.024819
vt 0.145354 1.000000
vt 0.908281 0.023763
vt 0.894877 0.998129
vt 0.095565 1.000000
vt 0.873504 0.021030
vt 0.867638 1.000000
vt 0.132362 1.000000
vt 0.091719 0.023762
vt 0.908515 0.022153
vt 0.904436 1.000000
vt 0.105123 0.998129
vt 0.000000 1.000000
vt 0.000000 1.000000
vt 0.000000 1.000000
vt 0.000000 1.000000
vt 0.000000 1.000000
vt 0.000000 1.000000
vt 0.000000 1.000000
vt 0.000000 1.000000
vt 0.000000 1.000000
vt 0.000000 1.000000
vt 0.000000 1.000000
vt 0.000000 1.000000
vt 0.000000 1.000000
vt 0.000000 1.000000
vt 0.000000 1.000000
vt 0.000000 1.000000
vt 0.045685 0.967243
vt 0.010664 0.856922
vt 0.020384 0.823119
vt 0.989947 0.848224
vt 0.956651 0.964850
vt 0.938392 0.956087
vt 0.062632 0.863272
vt 0.090432 0.823329
vt 0.205155 0.951381
vt 0.010053 0.848224
vt 0.020388 0.813214
vt 0.043295 0.964659
vt 0.062682 0.957907
vt 0.979612 0.813214
vt 0.909568 0.823329
vt 0.714527 0.944318
vt 0.287377 0.944545
vt 0.979616 0.823119
vt 0.937121 0.958562
vt 0.061574 0.955972
vt 0.909568 0.813014
vt 0.727584 0.958180
vt 0.285351 0.958223
vn -1.000000 0.000000 0.000000
vn -1.000000 0.000000 0.000000
vn -1.000000 0.000000 0.000000
vn -1.000000 0.000000 0.000000
vn -1.000000 0.000000 0.000000
vn -1.000000 0.000000 0.000000
vn -1.000000 0.000000 0.000000
vn -1.000000 0.000000 0.000000
vn 0.022428 -0.706929 0.706929
vn 0.022428 -0.706929 0.706929
vn 0.022428 -0.706929 0.706929
vn 0.022428 -0.706929 0.706929
vn 1.000000 0.000002 0.000000
vn 1.000000 0.000000 0.000000
vn 1.000000 -0.000002 0.000000
vn 1.000000 0.000001 0.000000
vn 0.022428 0.706929 0.706929
vn 0.022428 0.706929 0.706929
vn 0.022428 0.706929 0.706929
vn 0.022428 0.706929 0.706929
vn 1.000000 0.000002 0.000000
vn 1.000000 0.000000 0.000000
vn 1.000000 0.000000 0.000000
vn 1.000000 0.000004 0.000000
vn 0.022428 0.706928 -0.706930
vn 0.022428 0.706928 -0.706930
vn 0.022428 0.706928 -0.706930
vn 0.022428 0.706928 -0.706930
vn 1.000000 -0.000002 0.000000
vn 1.000000 -0.000000 0.000000
vn 1.000000 0.000002 0.000000
vn 1.000000 -0.000001 0.000000
vn 0.022428 -0.706928 -0.706930
vn 0.022428 -0.706928 -0.706930
vn 0.022428 -0.706928 -0.706930
vn 0.022428 -0.706928 -0.706930
vn 1.000000 -0.000002 0.000000
vn 1.000000 0.000000 0.000000
vn 1.000000 0.000000 0.000000
vn 1.000000 -0.000004 0.000000
vn 0.000122 -0.707107 0.707107
vn 0.000122 -0.707107 0.707107
vn 0.000122 -0.707107 0.707107
vn 0.000122 -0.707107 0.707107
vn 0.000122 0.707107 0.707107
vn 0.000122 0.707107 0.707107
vn 0.000122 0.707107 0.707107
vn 0.000122 0.707107 0.707107
vn 0.000122 0.707107 -0.707107
vn 0.000122 0.707107 -0.707107
vn 0.000122 0.707107 -0.707107
vn 0.000122 0.707107 -0.707107
vn 0.000122 -0.707107 -0.707107
vn 0.000122 -0.707107 -0.707107
vn 0.000122 -0.707107 -0.707107
vn 0.000122 -0.707107 -0.707107
vn -0.974903 -0.030337 0.220553
vn -0.969548 -0.121238 0.212786
vn -0.969548 -0.121238 0.212786
vn -0.975004 -0.016764 0.221554
vn -0.894666 0.418069 0.157449
vn -0.971862 0.106544 0.210076
vn -0.974456 0.063008 0.215558
vn -0.894666 0.418069 0.157449
vn -0.872803 0.101857 -0.477325
vn -0.816757 0.528223 -0.232140
vn -0.816757 0.528223 -0.232140
vn -0.875752 0.131088 -0.464622
vn -0.855540 -0.326834 -0.401535
vn -0.864183 -0.067674 -0.498606
vn -0.864968 -0.076458 -0.495968
vn -0.855540 -0.326834 -0.401535
vn -0.009757 -0.706693 0.707453
vn -0.009757 -0.706693 0.707453
vn -0.009757 -0.706693 0.707453
vn -0.009757 -0.706693 0.707453
vn -0.009757 0.706693 0.707453
vn -0.009757 0.706693 0.707453
vn -0.009757 0.706693 0.707453
vn -0.009757 0.706693 0.707453
vn -0.003962 0.707273 -0.706930
vn -0.003962 0.707273 -0.706930
vn -0.003962 0.707273 -0.706930
vn -0.003962 0.707273 -0.706930
vn -0.003962 -0.707273 -0.706930
vn -0.003962 -0.707273 -0.706930
vn -0.003962 -0.707273 -0.706930
vn -0.003962 -0.707273 -0.706930
vn 0.015861 0.000000 0.999874
vn 0.015861 0.000000 0.999874
vn 0.015861 0.000000 0.999874
vn 0.015861 0.000000 0.999874
vn 0.015861 0.999874 0.000000
vn 0.015861 0.999874 0.000000
vn 0.015861 0.999874 0.000000
vn 0.015861 0.999874 0.000000
vn 0.015861 0.000000 -0.999874
vn 0.015861 0.000000 -0.999874
vn 0.015861 0.000000 -0.999874
vn 0.015861 0.000000 -0.999874
vn 0.015861 -0.999874 0.000000
vn 0.015861 -0.999874 0.000000
vn 0.015861 -0.999874 0.000000
vn 0.015861 -0.999874 0.000000
vn 0.000000 0.000000 1.000000
vn 0.000000 0.000000 1.000000
vn 0.000000 0.000000 1.000000
vn 0.000000 0.000000 1.000000
vn 0.000000 1.000000 0.000000
vn 0.000000 1.000000 0.000000
vn 0.000000 1.000000 0.000000
vn 0.000000 1.000000 0.000000
vn 0.000000 0.000000 -1.000000
vn 0.000000 0.000000 -1.000000
vn 0.000000 0.000000 -1.000000
vn 0.000000 0.000000 -1.000000
vn 0.000000 -1.000000 0.000000
vn 0.000000 -1.000000 0.000000
vn 0.000000 -1.000000 0.000000
vn 0.000000 -1.000000 0.000000
vn -0.186873 0.982327 0.010569
vn -0.167602 0.985809 0.009551
vn -0.008109 0.999967 0.000440
vn -0.033143 0.999449 0.001800
vn -0.152784 -0.988222 0.008653
vn -0.166201 -0.986048 0.009358
vn -0.039209 -0.999229 0.002127
vn -0.009994 -0.999950 0.000542
vn 0.000888 0.000000 1.000000
vn 0.000888 0.000000 1.000000
vn 0.000888 0.000000 1.000000
vn 0.000888 0.000000 1.000000
vn 0.000000 1.000000 -0.000000
vn 0.000000 1.000000 -0.000000
vn 0.001000 0.000000 -1.000000
vn 0.001000 0.000000 -1.000000
vn 0.001000 0.000000 -1.000000
vn 0.001000 0.000000 -1.000000
vn 0.000000 -1.000000 -0.000000
vn 0.000000 -1.000000 -0.000000
vn -0.635776 0.000000 0.771873
vn -0.635776 0.000000 0.771873
vn -0.635776 0.000000 0.771873
vn -0.635776 0.000000 0.771873
vn -0.656124 -0.518892 0.547953
vn -0.656124 -0.518892 0.547953
vn -0.656124 -0.518892 0.547953
vn -0.656124 -0.518892 0.547953
vn -0.710050 -0.704139 0.004292
vn -0.710050 -0.704139 0.004292
vn -0.722687 -0.689933 -0.041429
vn -0.726203 -0.685244 -0.055411
vn -0.710050 0.704139 0.004292
vn -0.710050 0.704139 0.004292
vn -0.726202 0.685245 -0.055411
vn -0.722686 0.689934 -0.041429
vn -0.656119 0.518903 0.547949
vn -0.656119 0.518903 0.547949
vn -0.656119 0.518903 0.547949
vn -0.656119 0.518903 0.547949
vn -0.771890 0.000000 -0.635757
vn -0.771890 0.000000 -0.635757
vn -0.771890 0.000000 -0.635757
vn -0.771890 0.000000 -0.635757
vn -0.753106 0.484080 -0.445532
vn -0.753106 0.484080 -0.445532
vn -0.753111 -0.484069 -0.445535
vn -0.753111 -0.484069 -0.445535
vn -1.000000 0.000000 0.000000
vn -1.000000 0.000000 0.000000
vn -1.000000 0.000000 0.000000
vn -1.000000 0.000000 0.000000
vn -1.000000 0.000000 0.000000
vn -1.000000 0.000000 0.000000
vn -1.000000 0.000000 0.000000
vn -1.000000 0.000000 0.000000
vn -1.000000 0.000000 0.000000
vn -1.000000 0.000000 0.000000
vn -1.000000 0.000000 0.000000
vn -1.000000 0.000000 0.000000
vn -1.000000 0.000000 0.000000
vn -1.000000 0.000000 0.000000
vn -1.000000 0.000000 0.000000
vn -1.000000 0.000000 0.000000
vn 0.169899 -0.594245 0.786134
vn 0.169899 -0.594245 0.786134
vn 0.169899 -0.594245 0.786134
vn 0.169899 -0.594245 0.786134
vn 0.172391 0.546971 0.819210
vn 0.172391 0.546971 0.819210
vn 0.172391 0.546971 0.819210
vn 0.172391 0.546971 0.819209
vn -0.133199 0.621304 -0.772166
vn -0.133199 0.621304 -0.772166
vn -0.133199 0.621304 -0.772166
vn -0.133199 0.621304 -0.772166
vn -0.141303 -0.586318 -0.797662
vn -0.141303 -0.586318 -0.797662
vn -0.141303 -0.586318 -0.797662
vn -0.141303 -0.586318 -0.797662
vn 0.191585 0.000000 0.981476
vn 0.191585 0.000000 0.981476
vn 0.191585 0.000000 0.981476
vn 0.191585 0.000000 0.981476
vn 0.010560 0.999944 0.000126
vn 0.010560 0.999944 0.000126
vn -0.191585 0.000000 -0.981476
vn -0.191585 0.000000 -0.981476
vn -0.191585 0.000000 -0.981476
vn -0.191585 0.000000 -0.981476
vn 0.010938 -0.999940 0.000041
vn 0.010938 -0.999940 0.000041
vn 0.996388 -0.001031 -0.084916
vn 0.905804 -0.195951 0.375663
vn 0.898491 -0.438819 -0.012356
vn 0.993107 -0.072348 -0.092221
vn 0.996388 0.000956 -0.084916
vn 0.907079 0.194489 0.373340
vn 0.993147 0.071894 -0.092149
vn 0.899999 0.435733 -0.011783
vn 0.885725 -0.439214 -0.150275
vn 0.992936 -0.070725 -0.095272
vn 0.644807 -0.064934 -0.761582
vn 0.994577 -0.001190 -0.104001
vn 0.644757 0.064245 -0.761683
vn 0.994578 0.001121 -0.103991
vn 0.992962 0.070417 -0.095223
vn 0.887087 0.436463 -0.150257
vn 0.756789 -0.446106 0.477766
vn 0.756789 -0.446106 0.477766
vn 0.668586 -0.453599 -0.589271
vn 0.668586 -0.453599 -0.589271
vn 0.761760 0.442557 0.473143
vn 0.761760 0.442557 0.473143
vn 0.668555 0.451833 -0.590661
vn 0.668555 0.451833 -0.590661
vn 0.520799 -0.852298 -0.048546
vn 0.520799 -0.852298 -0.048546
vn 0.520799 -0.852298 -0.048546
vn 0.520799 -0.852298 -0.048546
vn 0.636100 0.000000 0.771606
vn 0.636100 0.000000 0.771606
vn 0.636100 0.000000 0.771607
vn 0.636100 0.000000 0.771606
vn 0.528111 0.847777 -0.048717
vn 0.528111 0.847777 -0.048717
vn 0.528111 0.847777 -0.048717
vn 0.528111 0.847777 -0.048717
vn 0.542220 -0.000224 -0.840237
vn 0.542220 -0.000224 -0.840237
s off
g pCube3
usemtl initialShadingGroup
f 14/1/1 13/2/2 1/6/3 2/59/4 6/11/5 5/3/6 10/4/7 9/5/8
usemtl Club_red_01:Red
f 2/59/9 1/6/10 4/7/11 3/60/12
s 1
f 3/8/13 4/9/14 18/10/15 17/70/16
s off
f 5/61/17 6/11/18 8/12/19 7/62/20
s 1
f 7/13/21 8/69/22 20/14/23 19/15/24
s off
f 9/63/25 10/16/26 12/17/27 11/64/28
s 1
f 11/18/29 12/71/30 22/19/31 21/20/32
s off
f 13/65/33 14/21/34 16/22/35 15/66/36
s 1
f 15/23/37 16/74/38 24/24/39 23/25/40
s off
usemtl Club_red_01:Grey
f 17/26/41 18/27/42 26/28/43 25/82/44
f 19/29/45 20/81/46 28/30/47 27/31/48
f 21/32/49 22/83/50 30/33/51 29/34/52
f 23/35/53 24/86/54 32/36/55 31/37/56
s 2
usemtl Club_red_01:Dark_grey
f 33/38/57 34/39/58 42/40/59 41/94/60
f 35/41/61 36/93/62 44/42/63 43/43/64
s 3
f 37/44/65 38/95/66 46/45/67 45/46/68
f 39/47/69 40/98/70 48/48/71 47/49/72
s off
f 41/50/73 42/51/74 49/52/75 50/207/76
f 43/53/77 44/106/78 53/200/79 54/54/80
f 45/55/81 46/107/82 55/203/83 56/56/84
f 47/57/85 48/109/86 51/105/87 52/58/88
usemtl Club_red_01:Red
f 2/59/89 3/60/90 8/12/91 6/11/92
f 5/61/93 7/62/94 12/17/95 10/16/96
f 9/63/97 11/64/98 16/22/99 14/21/100
f 13/65/101 15/66/102 4/67/103 1/68/104
s 1
f 8/69/22 3/8/13 17/70/16 20/14/23
f 12/71/30 7/72/21 19/73/24 22/19/31
f 16/74/38 11/75/29 21/76/32 24/24/39
f 4/77/14 15/78/37 23/79/40 18/80/15
s off
usemtl Club_red_01:Grey
f 20/81/105 17/26/106 25/82/107 28/30/108
f 22/83/109 19/84/110 27/85/111 30/33/112
f 24/86/113 21/87/114 29/88/115 32/36/116
f 18/89/117 23/90/118 31/91/119 26/92/120
s 2
usemtl Club_red_01:Dark_grey
f 36/93/62 33/38/57 41/94/60 44/42/63
s 4
f 38/95/121 35/96/122 43/97/123 46/45/124
s 3
f 40/98/70 37/99/65 45/100/68 48/48/71
s 5
f 34/101/125 39/102/126 47/103/127 42/104/128
s off
f 44/106/129 41/50/130 50/207/131 53/200/132
s 4
f 46/107/124 43/108/123 54/210/133 55/203/134
s off
f 48/109/135 45/110/136 56/213/137 51/105/138
s 5
f 42/111/128 47/112/127 52/206/139 49/195/140
s off
f 57/134/141 58/113/142 63/114/143 64/157/144
f 58/115/145 57/134/146 60/116/147 59/117/148
s 6
f 59/118/149 60/164/150 69/119/151 70/120/152
s 7
f 61/121/153 62/122/154 67/123/155 68/159/156
s off
f 62/124/157 61/137/158 64/157/159 63/125/160
f 65/126/161 66/127/162 71/128/163 72/161/164
s 7
f 66/129/165 65/140/166 68/159/156 67/130/155
s 6
f 70/131/152 69/143/151 72/161/167 71/132/168
s 8
f 25/156/169 26/133/170 60/116/171 57/134/172
f 27/135/173 28/136/174 64/157/175 61/137/176
f 29/138/177 30/139/178 68/159/179 65/140/180
f 31/141/181 32/142/182 72/161/183 69/143/184
s off
f 58/165/185 59/144/186 34/145/187 33/146/188
f 62/147/189 63/148/190 36/166/191 35/149/192
f 66/150/193 67/151/194 38/169/195 37/152/196
f 70/153/197 71/154/198 40/172/199 39/155/200
s 8
f 28/136/174 25/156/169 57/134/172 64/157/175
f 30/139/178 27/158/173 61/121/176 68/159/179
f 32/142/182 29/160/177 65/126/180 72/161/183
f 26/162/170 31/163/181 69/119/184 60/164/171
s off
f 63/148/201 58/165/202 33/146/203 36/166/204
s 4
f 67/151/205 62/167/206 35/168/122 38/169/121
s off
f 71/154/207 66/170/208 37/171/209 40/172/210
s 5
f 59/173/211 70/174/212 39/175/126 34/176/125
s 9
f 73/178/213 74/177/214 78/182/215 77/189/216
f 74/177/214 73/178/213 75/180/217 76/179/218
f 76/179/218 75/180/217 83/185/219 84/181/220
f 77/189/216 78/182/215 80/183/221 79/190/222
f 79/190/222 80/183/221 82/184/223 81/191/224
f 81/191/224 82/184/223 88/188/225 87/192/226
f 84/181/220 83/185/219 85/187/227 86/186/228
f 86/186/228 85/187/227 87/192/226 88/188/225
f 83/185/219 75/180/217 73/178/213 77/189/216 79/190/222 81/191/224 87/192/226 85/187/227
f 78/205/215 74/193/214 50/194/229 49/195/230
f 52/206/231 51/196/232 82/197/223 80/198/221
f 54/199/233 53/200/234 76/209/218 84/201/220
f 56/202/235 55/203/236 86/212/228 88/204/225
s off
f 78/205/237 49/195/238 52/206/239 80/198/240
f 50/207/241 74/208/242 76/209/243 53/200/244
f 54/210/245 84/211/246 86/212/247 55/203/248
s 9
f 56/213/249 88/214/225 82/215/223 51/105/250
