# This file uses centimeters as units for non-parametric coordinates.

mtllib flag.mtl
g default
v 0.024946 0.008093 -0.017098
v 0.017087 0.008093 -0.032522
v 0.004846 0.008093 -0.044763
v -0.010578 0.008093 -0.052622
v -0.027676 0.008093 -0.055330
v -0.044774 0.008093 -0.052622
v -0.060198 0.008093 -0.044763
v -0.072438 0.008093 -0.032522
v -0.080297 0.008093 -0.017098
v -0.083005 0.008093 0.000000
v -0.080297 0.008093 0.017098
v -0.072438 0.008093 0.032522
v -0.060198 0.008093 0.044763
v -0.044774 0.008093 0.052622
v -0.027676 0.008093 0.055330
v -0.010578 0.008093 0.052622
v 0.004846 0.008093 0.044763
v 0.017087 0.008093 0.032522
v 0.024946 0.008093 0.017098
v 0.027654 0.008093 0.000000
v 0.024946 6.363947 -0.017098
v 0.017087 6.363947 -0.032522
v 0.004846 6.363947 -0.044763
v -0.010578 6.363947 -0.052622
v -0.027676 6.363947 -0.055330
v -0.044774 6.363947 -0.052622
v -0.060198 6.363947 -0.044763
v -0.072438 6.363947 -0.032522
v -0.080297 6.363947 -0.017098
v -0.083005 6.363947 0.000000
v -0.080297 6.363947 0.017098
v -0.072438 6.363947 0.032522
v -0.060198 6.363947 0.044763
v -0.044774 6.363947 0.052622
v -0.027676 6.363947 0.055330
v -0.010578 6.363947 0.052622
v 0.004846 6.363947 0.044763
v 0.017087 6.363947 0.032522
v 0.024946 6.363947 0.017098
v 0.027654 6.363947 0.000000
v -0.027676 0.008093 0.000000
v -0.027676 6.363947 0.000000
v -0.027676 5.455968 0.055330
v -0.044774 5.455968 0.052622
v -0.060198 5.455968 0.044763
v -0.072438 5.455968 0.032522
v -0.080297 5.455968 0.017098
v -0.083005 5.455968 0.000000
v -0.080297 5.455968 -0.017098
v -0.072438 5.455968 -0.032522
v -0.060198 5.455968 -0.044763
v -0.044774 5.455968 -0.052622
v -0.027676 5.455968 -0.055330
v -0.010578 5.455968 -0.052622
v 0.004846 5.455968 -0.044763
v 0.017087 5.455968 -0.032522
v 0.024946 5.455968 -0.017098
v 0.027654 5.455968 0.000000
v 0.024946 5.455968 0.017098
v 0.017087 5.455968 0.032522
v 0.004846 5.455968 0.044763
v -0.010578 5.455968 0.052622
v -0.027676 4.547989 0.055330
v -0.044774 4.547989 0.052622
v -0.060198 4.547989 0.044763
v -0.072438 4.547989 0.032522
v -0.080297 4.547989 0.017098
v -0.083005 4.547989 0.000000
v -0.080297 4.547989 -0.017098
v -0.072438 4.547989 -0.032522
v -0.060198 4.547989 -0.044763
v -0.044774 4.547989 -0.052622
v -0.027676 4.547989 -0.055330
v -0.010578 4.547989 -0.052622
v 0.004846 4.547989 -0.044763
v 0.017087 4.547989 -0.032522
v 0.024946 4.547989 -0.017098
v 0.027654 4.547989 0.000000
v 0.024946 4.547989 0.017098
v 0.017087 4.547989 0.032522
v 0.004846 4.547989 0.044763
v -0.010578 4.547989 0.052622
v -0.027676 3.640010 0.055330
v -0.044774 3.640010 0.052622
v -0.060198 3.640010 0.044763
v -0.072438 3.640010 0.032522
v -0.080297 3.640010 0.017098
v -0.083005 3.640010 0.000000
v -0.080297 3.640010 -0.017098
v -0.072438 3.640010 -0.032522
v -0.060198 3.640010 -0.044763
v -0.044774 3.640010 -0.052622
v -0.027676 3.640010 -0.055330
v -0.010578 3.640010 -0.052622
v 0.004846 3.640010 -0.044763
v 0.017087 3.640010 -0.032522
v 0.024946 3.640010 -0.017098
v 0.027654 3.640010 0.000000
v 0.024946 3.640010 0.017098
v 0.017087 3.640010 0.032522
v 0.004846 3.640010 0.044763
v -0.010578 3.640010 0.052622
v -0.027676 2.732030 0.055330
v -0.044774 2.732030 0.052622
v -0.060198 2.732030 0.044763
v -0.072438 2.732030 0.032522
v -0.080297 2.732030 0.017098
v -0.083005 2.732030 0.000000
v -0.080297 2.732030 -0.017098
v -0.072438 2.732030 -0.032522
v -0.060198 2.732030 -0.044763
v -0.044774 2.732030 -0.052622
v -0.027676 2.732030 -0.055330
v -0.010578 2.732030 -0.052622
v 0.004846 2.732030 -0.044763
v 0.017087 2.732030 -0.032522
v 0.024946 2.732030 -0.017098
v 0.027654 2.732030 0.000000
v 0.024946 2.732030 0.017098
v 0.017087 2.732030 0.032522
v 0.004846 2.732030 0.044763
v -0.010578 2.732030 0.052622
v -0.027676 1.824051 0.055330
v -0.044774 1.824051 0.052622
v -0.060198 1.824051 0.044763
v -0.072438 1.824051 0.032522
v -0.080297 1.824051 0.017098
v -0.083005 1.824051 0.000000
v -0.080297 1.824051 -0.017098
v -0.072438 1.824051 -0.032522
v -0.060198 1.824051 -0.044763
v -0.044774 1.824051 -0.052622
v -0.027676 1.824051 -0.055330
v -0.010578 1.824051 -0.052622
v 0.004846 1.824051 -0.044763
v 0.017087 1.824051 -0.032522
v 0.024946 1.824051 -0.017098
v 0.027654 1.824051 0.000000
v 0.024946 1.824051 0.017098
v 0.017087 1.824051 0.032522
v 0.004846 1.824051 0.044763
v -0.010578 1.824051 0.052622
v -0.027676 0.916072 0.055330
v -0.044774 0.916072 0.052622
v -0.060198 0.916072 0.044763
v -0.072438 0.916072 0.032522
v -0.080297 0.916072 0.017098
v -0.083005 0.916072 0.000000
v -0.080297 0.916072 -0.017098
v -0.072438 0.916072 -0.032522
v -0.060198 0.916072 -0.044763
v -0.044774 0.916072 -0.052622
v -0.027676 0.916072 -0.055330
v -0.010578 0.916072 -0.052622
v 0.004846 0.916072 -0.044763
v 0.017087 0.916072 -0.032522
v 0.024946 0.916072 -0.017098
v 0.027654 0.916072 0.000000
v 0.024946 0.916072 0.017098
v 0.017087 0.916072 0.032522
v 0.004846 0.916072 0.044763
v -0.010578 0.916072 0.052622
v 0.004358 5.176054 0.025310
v 1.782208 5.747549 0.025310
v 0.004358 6.319044 0.025310
v 0.004358 6.319044 -0.025310
v 1.782208 5.747549 -0.025310
v 0.004358 5.176054 -0.025310
vt 0.648603 0.107966
vt 0.626409 0.064408
vt 0.591842 0.029841
vt 0.548284 0.007647
vt 0.500000 -0.000000
vt 0.451716 0.007647
vt 0.408159 0.029841
vt 0.373591 0.064409
vt 0.351397 0.107966
vt 0.343750 0.156250
vt 0.351397 0.204534
vt 0.373591 0.248091
vt 0.408159 0.282659
vt 0.451716 0.304853
vt 0.500000 0.312500
vt 0.548284 0.304853
vt 0.591841 0.282659
vt 0.626409 0.248091
vt 0.648603 0.204534
vt 0.656250 0.156250
vt 0.375000 0.312500
vt 0.387500 0.312500
vt 0.400000 0.312500
vt 0.412500 0.312500
vt 0.425000 0.312500
vt 0.437500 0.312500
vt 0.450000 0.312500
vt 0.462500 0.312500
vt 0.475000 0.312500
vt 0.487500 0.312500
vt 0.500000 0.312500
vt 0.512500 0.312500
vt 0.525000 0.312500
vt 0.537500 0.312500
vt 0.550000 0.312500
vt 0.562500 0.312500
vt 0.575000 0.312500
vt 0.587500 0.312500
vt 0.600000 0.312500
vt 0.612500 0.312500
vt 0.625000 0.312500
vt 0.375000 0.688440
vt 0.387500 0.688440
vt 0.400000 0.688440
vt 0.412500 0.688440
vt 0.425000 0.688440
vt 0.437500 0.688440
vt 0.450000 0.688440
vt 0.462500 0.688440
vt 0.475000 0.688440
vt 0.487500 0.688440
vt 0.500000 0.688440
vt 0.512500 0.688440
vt 0.525000 0.688440
vt 0.537500 0.688440
vt 0.550000 0.688440
vt 0.562500 0.688440
vt 0.575000 0.688440
vt 0.587500 0.688440
vt 0.600000 0.688440
vt 0.612500 0.688440
vt 0.625000 0.688440
vt 0.648603 0.795466
vt 0.626409 0.751908
vt 0.591842 0.717341
vt 0.548284 0.695147
vt 0.500000 0.687500
vt 0.451716 0.695147
vt 0.408159 0.717341
vt 0.373591 0.751909
vt 0.351397 0.795466
vt 0.343750 0.843750
vt 0.351397 0.892034
vt 0.373591 0.935591
vt 0.408159 0.970159
vt 0.451716 0.992353
vt 0.500000 1.000000
vt 0.548284 0.992353
vt 0.591841 0.970159
vt 0.626409 0.935591
vt 0.648603 0.892034
vt 0.656250 0.843750
vt 0.500000 0.150000
vt 0.500000 0.837500
vt 0.550000 0.634734
vt 0.537500 0.634734
vt 0.525000 0.634734
vt 0.512500 0.634734
vt 0.500000 0.634734
vt 0.487500 0.634734
vt 0.475000 0.634734
vt 0.462500 0.634734
vt 0.450000 0.634734
vt 0.437500 0.634734
vt 0.425000 0.634734
vt 0.412500 0.634734
vt 0.400000 0.634734
vt 0.387500 0.634734
vt 0.625000 0.634734
vt 0.375000 0.634734
vt 0.612500 0.634734
vt 0.600000 0.634734
vt 0.587500 0.634734
vt 0.575000 0.634734
vt 0.562500 0.634734
vt 0.550000 0.581028
vt 0.537500 0.581028
vt 0.525000 0.581028
vt 0.512500 0.581028
vt 0.500000 0.581028
vt 0.487500 0.581028
vt 0.475000 0.581028
vt 0.462500 0.581028
vt 0.450000 0.581028
vt 0.437500 0.581028
vt 0.425000 0.581028
vt 0.412500 0.581028
vt 0.400000 0.581028
vt 0.387500 0.581028
vt 0.625000 0.581028
vt 0.375000 0.581028
vt 0.612500 0.581028
vt 0.600000 0.581028
vt 0.587500 0.581028
vt 0.575000 0.581028
vt 0.562500 0.581028
vt 0.550000 0.527323
vt 0.537500 0.527323
vt 0.525000 0.527323
vt 0.512500 0.527323
vt 0.500000 0.527323
vt 0.487500 0.527323
vt 0.475000 0.527323
vt 0.462500 0.527323
vt 0.450000 0.527323
vt 0.437500 0.527323
vt 0.425000 0.527323
vt 0.412500 0.527323
vt 0.400000 0.527323
vt 0.387500 0.527323
vt 0.625000 0.527323
vt 0.375000 0.527323
vt 0.612500 0.527323
vt 0.600000 0.527323
vt 0.587500 0.527323
vt 0.575000 0.527323
vt 0.562500 0.527323
vt 0.550000 0.473617
vt 0.537500 0.473617
vt 0.525000 0.473617
vt 0.512500 0.473617
vt 0.500000 0.473617
vt 0.487500 0.473617
vt 0.475000 0.473617
vt 0.462500 0.473617
vt 0.450000 0.473617
vt 0.437500 0.473617
vt 0.425000 0.473617
vt 0.412500 0.473617
vt 0.400000 0.473617
vt 0.387500 0.473617
vt 0.625000 0.473617
vt 0.375000 0.473617
vt 0.612500 0.473617
vt 0.600000 0.473617
vt 0.587500 0.473617
vt 0.575000 0.473617
vt 0.562500 0.473617
vt 0.550000 0.419911
vt 0.537500 0.419911
vt 0.525000 0.419911
vt 0.512500 0.419911
vt 0.500000 0.419911
vt 0.487500 0.419911
vt 0.475000 0.419911
vt 0.462500 0.419911
vt 0.450000 0.419911
vt 0.437500 0.419911
vt 0.425000 0.419911
vt 0.412500 0.419911
vt 0.400000 0.419911
vt 0.387500 0.419911
vt 0.625000 0.419911
vt 0.375000 0.419911
vt 0.612500 0.419911
vt 0.600000 0.419911
vt 0.587500 0.419911
vt 0.575000 0.419911
vt 0.562500 0.419911
vt 0.550000 0.366206
vt 0.537500 0.366206
vt 0.525000 0.366206
vt 0.512500 0.366206
vt 0.500000 0.366206
vt 0.487500 0.366206
vt 0.475000 0.366206
vt 0.462500 0.366206
vt 0.450000 0.366206
vt 0.437500 0.366206
vt 0.425000 0.366206
vt 0.412500 0.366206
vt 0.400000 0.366206
vt 0.387500 0.366206
vt 0.625000 0.366206
vt 0.375000 0.366206
vt 0.612500 0.366206
vt 0.600000 0.366206
vt 0.587500 0.366206
vt 0.575000 0.366206
vt 0.562500 0.366206
vt 0.375000 0.000000
vt 0.625000 0.125000
vt 0.375000 0.250000
vt 0.625000 0.625000
vt 0.375000 0.500000
vt 0.375000 0.750000
vt 0.625000 1.000000
vt 0.375000 1.000000
vt 0.125000 0.000000
vt 0.125000 0.250000
vn 0.951057 -0.000000 -0.309016
vn 0.809017 -0.000000 -0.587785
vn 0.809017 -0.000000 -0.587785
vn 0.951057 -0.000000 -0.309016
vn 0.587785 -0.000000 -0.809017
vn 0.587785 -0.000000 -0.809017
vn 0.309017 -0.000000 -0.951057
vn 0.309017 -0.000000 -0.951057
vn -0.000000 -0.000000 -1.000000
vn -0.000000 -0.000000 -1.000000
vn -0.309017 0.000000 -0.951056
vn -0.309017 0.000000 -0.951057
vn -0.587785 0.000000 -0.809017
vn -0.587785 0.000000 -0.809017
vn -0.809017 0.000000 -0.587785
vn -0.809017 0.000000 -0.587785
vn -0.951057 0.000000 -0.309017
vn -0.951057 0.000000 -0.309017
vn -1.000000 0.000000 0.000000
vn -1.000000 0.000000 0.000000
vn -0.951057 0.000000 0.309017
vn -0.951056 0.000000 0.309017
vn -0.809017 0.000000 0.587785
vn -0.809017 0.000000 0.587785
vn -0.587785 -0.000000 0.809017
vn -0.587785 -0.000000 0.809017
vn -0.309017 -0.000000 0.951057
vn -0.309017 -0.000000 0.951057
vn 0.000000 -0.000000 1.000000
vn 0.000000 -0.000000 1.000000
vn 0.309017 0.000000 0.951057
vn 0.309017 0.000000 0.951057
vn 0.587785 0.000000 0.809017
vn 0.587785 0.000000 0.809017
vn 0.809017 0.000000 0.587785
vn 0.809017 0.000000 0.587785
vn 0.951057 -0.000000 0.309017
vn 0.951057 -0.000000 0.309017
vn 1.000000 -0.000000 0.000001
vn 1.000000 -0.000000 0.000001
vn 0.000000 -1.000000 -0.000000
vn 0.000000 -1.000000 -0.000000
vn 0.000000 -1.000000 0.000000
vn 0.000000 -1.000000 0.000000
vn 0.000000 -1.000000 0.000000
vn 0.000000 -1.000000 0.000000
vn 0.000000 -1.000000 -0.000000
vn 0.000000 -1.000000 -0.000000
vn 0.000000 -1.000000 0.000000
vn 0.000000 -1.000000 0.000000
vn 0.000000 -1.000000 0.000000
vn 0.000000 -1.000000 0.000000
vn 0.000000 -1.000000 0.000000
vn 0.000000 -1.000000 0.000000
vn 0.000000 -1.000000 0.000000
vn 0.000000 -1.000000 0.000000
vn 0.000000 -1.000000 0.000000
vn 0.000000 -1.000000 0.000000
vn 0.000000 -1.000000 0.000000
vn 0.000000 -1.000000 0.000000
vn 0.000000 -1.000000 0.000000
vn 0.000000 1.000000 0.000000
vn 0.000000 1.000000 0.000000
vn 0.000000 1.000000 0.000000
vn 0.000000 1.000000 0.000016
vn 0.000000 1.000000 0.000016
vn 0.000000 1.000000 0.000000
vn 0.000000 1.000000 0.000024
vn 0.000000 1.000000 0.000008
vn 0.000000 1.000000 -0.000016
vn 0.000000 1.000000 0.000000
vn 0.000000 1.000000 0.000000
vn 0.000000 1.000000 0.000032
vn 0.000000 1.000000 0.000032
vn 0.000000 1.000000 -0.000016
vn 0.000000 1.000000 -0.000024
vn 0.000000 1.000000 -0.000003
vn 0.000000 1.000000 0.000005
vn 0.000000 1.000000 0.000000
vn 0.000000 1.000000 -0.000032
vn 0.000000 1.000000 -0.000032
vn 0.000000 1.000000 0.000000
vn -0.309017 0.000000 0.951057
vn 0.000000 0.000000 1.000000
vn 0.000000 0.000000 1.000000
vn -0.309017 0.000000 0.951057
vn -0.587785 0.000000 0.809017
vn -0.587785 0.000000 0.809017
vn -0.809017 0.000000 0.587785
vn -0.809017 0.000000 0.587785
vn -0.951056 0.000000 0.309017
vn -0.951057 0.000000 0.309017
vn -1.000000 0.000000 0.000000
vn -1.000000 0.000000 0.000000
vn -0.951057 0.000000 -0.309017
vn -0.951057 0.000000 -0.309017
vn -0.809017 0.000000 -0.587785
vn -0.809017 0.000000 -0.587785
vn -0.587785 0.000000 -0.809017
vn -0.587785 0.000000 -0.809017
vn -0.309017 0.000000 -0.951056
vn -0.309017 0.000000 -0.951057
vn -0.000000 0.000000 -1.000000
vn 0.000000 0.000000 -1.000000
vn 0.309017 0.000000 -0.951057
vn 0.309017 0.000000 -0.951057
vn 0.587785 0.000000 -0.809017
vn 0.587785 0.000000 -0.809017
vn 0.809017 0.000000 -0.587785
vn 0.809017 0.000000 -0.587785
vn 0.951057 0.000000 -0.309016
vn 0.951057 0.000000 -0.309016
vn 1.000000 0.000000 0.000001
vn 1.000000 0.000000 0.000001
vn 0.951057 0.000000 0.309017
vn 0.951057 0.000000 0.309017
vn 0.809017 0.000000 0.587785
vn 0.809017 0.000000 0.587785
vn 0.587785 0.000000 0.809017
vn 0.587785 0.000000 0.809017
vn 0.309017 0.000000 0.951057
vn 0.309017 0.000000 0.951057
vn -0.309017 0.000000 0.951057
vn 0.000000 0.000000 1.000000
vn -0.587785 0.000000 0.809017
vn -0.809017 0.000000 0.587785
vn -0.951056 0.000000 0.309017
vn -1.000000 0.000000 0.000000
vn -0.951057 0.000000 -0.309017
vn -0.809017 0.000000 -0.587785
vn -0.587785 0.000000 -0.809017
vn -0.309017 0.000000 -0.951057
vn -0.000000 0.000000 -1.000000
vn 0.309017 0.000000 -0.951057
vn 0.587785 0.000000 -0.809017
vn 0.809017 0.000000 -0.587785
vn 0.951057 0.000000 -0.309016
vn 1.000000 0.000000 0.000001
vn 0.951057 0.000000 0.309017
vn 0.809017 0.000000 0.587785
vn 0.587785 0.000000 0.809017
vn 0.309017 0.000000 0.951057
vn -0.309017 0.000000 0.951057
vn 0.000000 0.000000 1.000000
vn -0.587785 0.000000 0.809017
vn -0.809017 0.000000 0.587785
vn -0.951056 0.000000 0.309017
vn -1.000000 0.000000 0.000000
vn -0.951057 0.000000 -0.309017
vn -0.809017 0.000000 -0.587785
vn -0.587785 0.000000 -0.809017
vn -0.309017 0.000000 -0.951057
vn -0.000000 0.000000 -1.000000
vn 0.309017 0.000000 -0.951057
vn 0.587785 0.000000 -0.809017
vn 0.809017 0.000000 -0.587785
vn 0.951057 0.000000 -0.309016
vn 1.000000 0.000000 0.000001
vn 0.951057 -0.000000 0.309017
vn 0.809017 -0.000000 0.587785
vn 0.587785 -0.000000 0.809017
vn 0.309017 0.000000 0.951057
vn -0.309017 0.000000 0.951057
vn 0.000000 0.000000 1.000000
vn -0.587785 0.000000 0.809017
vn -0.809017 0.000000 0.587785
vn -0.951056 0.000000 0.309017
vn -1.000000 0.000000 0.000000
vn -0.951057 0.000000 -0.309017
vn -0.809017 0.000000 -0.587785
vn -0.587785 0.000000 -0.809017
vn -0.309017 0.000000 -0.951056
vn -0.000000 0.000000 -1.000000
vn 0.309017 0.000000 -0.951057
vn 0.587785 0.000000 -0.809017
vn 0.809017 0.000000 -0.587785
vn 0.951057 0.000000 -0.309016
vn 1.000000 0.000000 0.000001
vn 0.951057 -0.000000 0.309017
vn 0.809017 -0.000000 0.587785
vn 0.587785 -0.000000 0.809017
vn 0.309017 0.000000 0.951057
vn -0.309017 0.000000 0.951057
vn 0.000000 0.000000 1.000000
vn -0.587785 0.000000 0.809017
vn -0.809017 0.000000 0.587785
vn -0.951057 0.000000 0.309017
vn -1.000000 0.000000 0.000000
vn -0.951057 0.000000 -0.309017
vn -0.809017 0.000000 -0.587785
vn -0.587785 0.000000 -0.809017
vn -0.309017 0.000000 -0.951057
vn -0.000000 0.000000 -1.000000
vn 0.309017 0.000000 -0.951057
vn 0.587785 0.000000 -0.809017
vn 0.809017 0.000000 -0.587785
vn 0.951057 0.000000 -0.309016
vn 1.000000 0.000000 0.000001
vn 0.951057 0.000000 0.309017
vn 0.809017 -0.000000 0.587785
vn 0.587785 -0.000000 0.809017
vn 0.309017 0.000000 0.951057
vn 0.000000 0.000000 1.000000
vn 0.000000 0.000000 1.000000
vn 0.000000 0.000000 1.000000
vn 0.306030 0.952022 0.000000
vn 0.306030 0.952022 0.000000
vn 0.306030 0.952022 0.000000
vn 0.306030 0.952022 0.000000
vn 0.000000 0.000000 -1.000000
vn 0.000000 0.000000 -1.000000
vn 0.000000 0.000000 -1.000000
vn 0.306030 -0.952022 0.000000
vn 0.306030 -0.952022 0.000000
vn 0.306030 -0.952022 0.000000
vn 0.306030 -0.952022 0.000000
vn -1.000000 0.000000 0.000000
vn -1.000000 0.000000 0.000000
vn -1.000000 0.000000 0.000000
vn -1.000000 0.000000 0.000000
s 1
g pCylinder2
usemtl Flag_red_01:Grey
f 1/21/1 2/22/2 156/203/3 157/205/4
f 2/22/2 3/23/5 155/202/6 156/203/3
f 3/23/5 4/24/7 154/201/8 155/202/6
f 4/24/7 5/25/9 153/200/10 154/201/8
f 5/25/9 6/26/11 152/199/12 153/200/10
f 6/26/11 7/27/13 151/198/14 152/199/12
f 7/27/13 8/28/15 150/197/16 151/198/14
f 8/28/15 9/29/17 149/196/18 150/197/16
f 9/29/17 10/30/19 148/195/20 149/196/18
f 10/30/19 11/31/21 147/194/22 148/195/20
f 11/31/21 12/32/23 146/193/24 147/194/22
f 12/32/23 13/33/25 145/192/26 146/193/24
f 13/33/25 14/34/27 144/191/28 145/192/26
f 14/34/27 15/35/29 143/190/30 144/191/28
f 15/35/29 16/36/31 162/210/32 143/190/30
f 16/36/31 17/37/33 161/209/34 162/210/32
f 17/37/33 18/38/35 160/208/36 161/209/34
f 18/38/35 19/39/37 159/207/38 160/208/36
f 19/39/37 20/40/39 158/206/40 159/207/38
f 20/40/39 1/41/1 157/204/4 158/206/40
s 2
f 2/2/41 1/1/42 41/83/43
f 3/3/44 2/2/41 41/83/43
f 4/4/45 3/3/44 41/83/43
f 5/5/46 4/4/45 41/83/43
f 6/6/47 5/5/46 41/83/43
f 7/7/48 6/6/47 41/83/43
f 8/8/49 7/7/48 41/83/43
f 9/9/50 8/8/49 41/83/43
f 10/10/51 9/9/50 41/83/43
f 11/11/52 10/10/51 41/83/43
f 12/12/53 11/11/52 41/83/43
f 13/13/54 12/12/53 41/83/43
f 14/14/55 13/13/54 41/83/43
f 15/15/56 14/14/55 41/83/43
f 16/16/57 15/15/56 41/83/43
f 17/17/58 16/16/57 41/83/43
f 18/18/59 17/17/58 41/83/43
f 19/19/60 18/18/59 41/83/43
f 20/20/61 19/19/60 41/83/43
f 1/1/42 20/20/61 41/83/43
s 3
f 21/81/62 22/80/63 42/84/64
f 22/80/63 23/79/65 42/84/64
f 23/79/65 24/78/66 42/84/64
f 24/78/66 25/77/67 42/84/64
f 25/77/67 26/76/68 42/84/64
f 26/76/68 27/75/69 42/84/64
f 27/75/69 28/74/70 42/84/64
f 28/74/70 29/73/71 42/84/64
f 29/73/71 30/72/72 42/84/64
f 30/72/72 31/71/73 42/84/64
f 31/71/73 32/70/74 42/84/64
f 32/70/74 33/69/75 42/84/64
f 33/69/75 34/68/76 42/84/64
f 34/68/76 35/67/77 42/84/64
f 35/67/77 36/66/78 42/84/64
f 36/66/78 37/65/79 42/84/64
f 37/65/79 38/64/80 42/84/64
f 38/64/80 39/63/81 42/84/64
f 39/63/81 40/82/82 42/84/64
f 40/82/82 21/81/62 42/84/64
s 1
f 44/86/83 43/85/84 35/56/85 34/55/86
f 45/87/87 44/86/83 34/55/86 33/54/88
f 46/88/89 45/87/87 33/54/88 32/53/90
f 47/89/91 46/88/89 32/53/90 31/52/92
f 48/90/93 47/89/91 31/52/92 30/51/94
f 49/91/95 48/90/93 30/51/94 29/50/96
f 50/92/97 49/91/95 29/50/96 28/49/98
f 51/93/99 50/92/97 28/49/98 27/48/100
f 52/94/101 51/93/99 27/48/100 26/47/102
f 53/95/103 52/94/101 26/47/102 25/46/104
f 54/96/105 53/95/103 25/46/104 24/45/106
f 55/97/107 54/96/105 24/45/106 23/44/108
f 56/98/109 55/97/107 23/44/108 22/43/110
f 57/100/111 56/98/109 22/43/110 21/42/112
f 58/101/113 57/99/111 21/62/112 40/61/114
f 59/102/115 58/101/113 40/61/114 39/60/116
f 60/103/117 59/102/115 39/60/116 38/59/118
f 61/104/119 60/103/117 38/59/118 37/58/120
f 62/105/121 61/104/119 37/58/120 36/57/122
f 43/85/84 62/105/121 36/57/122 35/56/85
usemtl Flag_red_01:Red
f 64/107/123 63/106/124 43/85/84 44/86/83
f 65/108/125 64/107/123 44/86/83 45/87/87
f 66/109/126 65/108/125 45/87/87 46/88/89
f 67/110/127 66/109/126 46/88/89 47/89/91
f 68/111/128 67/110/127 47/89/91 48/90/93
f 69/112/129 68/111/128 48/90/93 49/91/95
f 70/113/130 69/112/129 49/91/95 50/92/97
f 71/114/131 70/113/130 50/92/97 51/93/99
f 72/115/132 71/114/131 51/93/99 52/94/101
f 73/116/133 72/115/132 52/94/101 53/95/103
f 74/117/134 73/116/133 53/95/103 54/96/105
f 75/118/135 74/117/134 54/96/105 55/97/107
f 76/119/136 75/118/135 55/97/107 56/98/109
f 77/121/137 76/119/136 56/98/109 57/100/111
f 78/122/138 77/120/137 57/99/111 58/101/113
f 79/123/139 78/122/138 58/101/113 59/102/115
f 80/124/140 79/123/139 59/102/115 60/103/117
f 81/125/141 80/124/140 60/103/117 61/104/119
f 82/126/142 81/125/141 61/104/119 62/105/121
f 63/106/124 82/126/142 62/105/121 43/85/84
usemtl Flag_red_01:Grey
f 84/128/143 83/127/144 63/106/124 64/107/123
f 85/129/145 84/128/143 64/107/123 65/108/125
f 86/130/146 85/129/145 65/108/125 66/109/126
f 87/131/147 86/130/146 66/109/126 67/110/127
f 88/132/148 87/131/147 67/110/127 68/111/128
f 89/133/149 88/132/148 68/111/128 69/112/129
f 90/134/150 89/133/149 69/112/129 70/113/130
f 91/135/151 90/134/150 70/113/130 71/114/131
f 92/136/152 91/135/151 71/114/131 72/115/132
f 93/137/153 92/136/152 72/115/132 73/116/133
f 94/138/154 93/137/153 73/116/133 74/117/134
f 95/139/155 94/138/154 74/117/134 75/118/135
f 96/140/156 95/139/155 75/118/135 76/119/136
f 97/142/157 96/140/156 76/119/136 77/121/137
f 98/143/158 97/141/157 77/120/137 78/122/138
f 99/144/159 98/143/158 78/122/138 79/123/139
f 100/145/160 99/144/159 79/123/139 80/124/140
f 101/146/161 100/145/160 80/124/140 81/125/141
f 102/147/162 101/146/161 81/125/141 82/126/142
f 83/127/144 102/147/162 82/126/142 63/106/124
usemtl Flag_red_01:Red
f 104/149/163 103/148/164 83/127/144 84/128/143
f 105/150/165 104/149/163 84/128/143 85/129/145
f 106/151/166 105/150/165 85/129/145 86/130/146
f 107/152/167 106/151/166 86/130/146 87/131/147
f 108/153/168 107/152/167 87/131/147 88/132/148
f 109/154/169 108/153/168 88/132/148 89/133/149
f 110/155/170 109/154/169 89/133/149 90/134/150
f 111/156/171 110/155/170 90/134/150 91/135/151
f 112/157/172 111/156/171 91/135/151 92/136/152
f 113/158/173 112/157/172 92/136/152 93/137/153
f 114/159/174 113/158/173 93/137/153 94/138/154
f 115/160/175 114/159/174 94/138/154 95/139/155
f 116/161/176 115/160/175 95/139/155 96/140/156
f 117/163/177 116/161/176 96/140/156 97/142/157
f 118/164/178 117/162/177 97/141/157 98/143/158
f 119/165/179 118/164/178 98/143/158 99/144/159
f 120/166/180 119/165/179 99/144/159 100/145/160
f 121/167/181 120/166/180 100/145/160 101/146/161
f 122/168/182 121/167/181 101/146/161 102/147/162
f 103/148/164 122/168/182 102/147/162 83/127/144
usemtl Flag_red_01:Grey
f 124/170/183 123/169/184 103/148/164 104/149/163
f 125/171/185 124/170/183 104/149/163 105/150/165
f 126/172/186 125/171/185 105/150/165 106/151/166
f 127/173/187 126/172/186 106/151/166 107/152/167
f 128/174/188 127/173/187 107/152/167 108/153/168
f 129/175/189 128/174/188 108/153/168 109/154/169
f 130/176/190 129/175/189 109/154/169 110/155/170
f 131/177/191 130/176/190 110/155/170 111/156/171
f 132/178/192 131/177/191 111/156/171 112/157/172
f 133/179/193 132/178/192 112/157/172 113/158/173
f 134/180/194 133/179/193 113/158/173 114/159/174
f 135/181/195 134/180/194 114/159/174 115/160/175
f 136/182/196 135/181/195 115/160/175 116/161/176
f 137/184/197 136/182/196 116/161/176 117/163/177
f 138/185/198 137/183/197 117/162/177 118/164/178
f 139/186/199 138/185/198 118/164/178 119/165/179
f 140/187/200 139/186/199 119/165/179 120/166/180
f 141/188/201 140/187/200 120/166/180 121/167/181
f 142/189/202 141/188/201 121/167/181 122/168/182
f 123/169/184 142/189/202 122/168/182 103/148/164
usemtl Flag_red_01:Red
f 144/191/28 143/190/30 123/169/184 124/170/183
f 145/192/26 144/191/28 124/170/183 125/171/185
f 146/193/24 145/192/26 125/171/185 126/172/186
f 147/194/22 146/193/24 126/172/186 127/173/187
f 148/195/20 147/194/22 127/173/187 128/174/188
f 149/196/18 148/195/20 128/174/188 129/175/189
f 150/197/16 149/196/18 129/175/189 130/176/190
f 151/198/14 150/197/16 130/176/190 131/177/191
f 152/199/12 151/198/14 131/177/191 132/178/192
f 153/200/10 152/199/12 132/178/192 133/179/193
f 154/201/8 153/200/10 133/179/193 134/180/194
f 155/202/6 154/201/8 134/180/194 135/181/195
f 156/203/3 155/202/6 135/181/195 136/182/196
f 157/205/4 156/203/3 136/182/196 137/184/197
f 158/206/40 157/204/4 137/183/197 138/185/198
f 159/207/38 158/206/40 138/185/198 139/186/199
f 160/208/36 159/207/38 139/186/199 140/187/200
f 161/209/34 160/208/36 140/187/200 141/188/201
f 162/210/32 161/209/34 141/188/201 142/189/202
f 143/190/30 162/210/32 142/189/202 123/169/184
s off
f 163/211/203 164/212/204 165/213/205
f 165/213/206 164/212/207 167/214/208 166/215/209
f 166/215/210 167/214/211 168/216/212
f 168/216/213 167/214/214 164/217/215 163/218/216
f 168/219/217 163/211/218 165/213/219 166/220/220
