# This file uses centimeters as units for non-parametric coordinates.

mtllib UVED_start12.mtl
g default
v 1.499987 0.000000 3.000020
v -1.500001 0.000000 3.000020
v 1.499987 0.190000 3.000020
v -1.500001 0.190000 3.000020
v -1.200001 0.190000 3.000020
v -1.200001 0.190000 0.000015
v -1.200001 0.000000 0.000015
v -1.200001 0.000000 3.000020
v 1.199996 0.190000 3.000020
v 1.199996 0.190000 0.000015
v 1.199996 0.000000 0.000015
v 1.199996 0.000000 3.000020
v 1.499987 0.440000 3.000020
v 1.199996 0.440000 3.000020
v 1.199996 0.440000 0.000015
v -1.500001 0.440000 3.000020
v -1.200001 0.440000 3.000020
v -1.200001 0.440000 0.000015
v -1.500001 0.190000 0.315841
v -1.500001 0.440000 0.315841
v -1.200001 0.440000 0.315841
v -1.200001 0.190000 0.315841
v 1.199996 0.190000 0.315841
v 1.199996 0.440000 0.315841
v 1.499987 0.440000 0.315841
v 1.499987 0.190000 0.315841
v 1.499987 0.000000 0.315841
v 1.199996 0.000000 0.315841
v -1.200001 0.000000 0.315841
v -1.500001 0.000000 0.315841
v 1.492668 0.190000 0.103652
v 1.471342 0.190000 0.061841
v 1.438183 0.190000 0.028659
v 1.396372 0.190000 0.007356
v 1.350023 0.190000 0.000015
v 1.499987 0.190000 0.149999
v 1.499987 0.000000 0.149999
v 1.492668 0.000000 0.103652
v 1.471342 0.000000 0.061841
v 1.438183 0.000000 0.028659
v 1.396372 0.000000 0.007356
v 1.350023 0.000000 0.000015
v -1.492659 0.190000 0.103652
v -1.471356 0.190000 0.061841
v -1.438174 0.190000 0.028659
v -1.396364 0.190000 0.007356
v -1.350016 0.190000 0.000015
v -1.500001 0.190000 0.149999
v -1.350016 0.000000 0.000015
v -1.396364 0.000000 0.007356
v -1.438174 0.000000 0.028659
v -1.471356 0.000000 0.061841
v -1.492659 0.000000 0.103652
v -1.500001 0.000000 0.149999
v 1.499987 0.440000 0.149999
v 1.350023 0.440000 0.000015
v 1.396372 0.440000 0.007356
v 1.438183 0.440000 0.028659
v 1.471342 0.440000 0.061841
v 1.492668 0.440000 0.103652
v -1.500001 0.440000 0.149999
v -1.492659 0.440000 0.103652
v -1.471356 0.440000 0.061841
v -1.438174 0.440000 0.028659
v -1.396364 0.440000 0.007356
v -1.350016 0.440000 0.000015
vt 0.149442 0.902769
vt 0.149442 0.501340
vt 0.177858 0.501340
vt 0.177858 0.902769
vt 0.149442 0.476538
vt 0.177858 0.476538
vt 0.215246 0.501340
vt 0.215246 0.902769
vt 0.177858 0.469606
vt 0.149442 0.469606
vt 0.215246 0.476538
vt 0.215246 0.469606
vt 0.177858 0.463353
vt 0.149442 0.463353
vt 0.215246 0.463353
vt 0.177858 0.458391
vt 0.149442 0.458391
vt 0.215246 0.458391
vt 0.077503 0.859819
vt 0.077503 0.458391
vt 0.105919 0.458391
vt 0.105919 0.859819
vt 0.143307 0.458391
vt 0.143307 0.859819
vt 0.105919 0.884622
vt 0.077503 0.884622
vt 0.143307 0.884622
vt 0.105919 0.891553
vt 0.077503 0.891553
vt 0.143307 0.891553
vt 0.105919 0.897806
vt 0.077503 0.897806
vt 0.143307 0.897806
vt 0.105919 0.902769
vt 0.077503 0.902769
vt 0.143307 0.902769
vt 0.308757 0.855876
vt 0.308757 0.454447
vt 0.346145 0.454447
vt 0.346145 0.855876
vt 0.265233 0.855876
vt 0.265233 0.454447
vt 0.302621 0.454447
vt 0.302621 0.855876
vt 0.074298 0.049027
vt 0.119164 0.049027
vt 0.119164 0.450456
vt 0.074298 0.450456
vt 0.119164 0.001794
vt 0.074298 0.024225
vt 0.075396 0.017293
vt 0.078582 0.011040
vt 0.083544 0.006078
vt 0.089797 0.002892
vt 0.096729 0.001794
vt 0.478094 0.049027
vt 0.478094 0.450456
vt 0.478094 0.001794
vt 0.522960 0.049027
vt 0.522960 0.450456
vt 0.500529 0.001794
vt 0.507461 0.002892
vt 0.513714 0.006078
vt 0.518676 0.011040
vt 0.521862 0.017293
vt 0.522960 0.024225
vt 0.600000 0.500000
vt 1.000000 0.500000
vt 1.000000 1.000000
vt 0.600000 1.000000
vt 0.575219 0.001794
vt 0.575219 0.403223
vt 0.530353 0.403223
vt 0.530353 0.001794
vt 0.530353 0.428025
vt 0.575219 0.450456
vt 0.552784 0.450456
vt 0.545852 0.449358
vt 0.539599 0.446172
vt 0.534637 0.441209
vt 0.531451 0.434957
vt 0.934149 0.403223
vt 0.934149 0.450456
vt 0.979015 0.403223
vt 0.979015 0.428025
vt 0.977917 0.434957
vt 0.974731 0.441209
vt 0.969768 0.446172
vt 0.963516 0.449358
vt 0.956584 0.450456
vt 0.934149 0.001794
vt 0.979015 0.001794
vt 0.001992 0.450456
vt 0.001992 0.405590
vt 0.030407 0.405590
vt 0.030407 0.450456
vt 0.001992 0.046660
vt 0.030407 0.046660
vt 0.067796 0.405590
vt 0.067796 0.450456
vt 0.001992 0.001794
vt 0.030407 0.001794
vt 0.067796 0.001794
vt 0.067796 0.046660
vt 0.071368 0.852940
vt 0.042953 0.852940
vt 0.042953 0.494011
vt 0.071368 0.494011
vt 0.042953 0.875375
vt 0.071368 0.875375
vt 0.005564 0.852940
vt 0.005564 0.494011
vt 0.042953 0.471575
vt 0.071368 0.471575
vt 0.005564 0.875375
vt 0.042953 0.882307
vt 0.071368 0.882307
vt 0.005564 0.471575
vt 0.042953 0.464644
vt 0.071368 0.464644
vt 0.005564 0.882307
vt 0.042953 0.888560
vt 0.071368 0.888560
vt 0.005564 0.464644
vt 0.042953 0.458391
vt 0.071368 0.458391
vt 0.005564 0.888560
vt 0.005564 0.458391
vt 0.221709 0.454447
vt 0.259098 0.454447
vt 0.259098 0.813377
vt 0.221709 0.813377
vn 0.000000 0.000000 1.000000
vn 0.000000 0.000000 1.000000
vn 0.000000 0.000000 1.000000
vn 0.000000 0.000000 1.000000
vn 0.000000 -1.000000 0.000000
vn 0.000000 -1.000000 0.000000
vn 0.000000 -1.000000 0.000000
vn 0.000000 -1.000000 0.000000
vn -1.000000 0.000000 0.000000
vn -1.000000 0.000000 0.000000
vn -1.000000 0.000000 0.000000
vn -1.000000 0.000000 0.000000
vn 1.000000 0.000000 -0.000000
vn 1.000000 0.000000 -0.000000
vn 1.000000 0.000000 -0.000000
vn 1.000000 0.000000 -0.000000
vn 0.000000 -1.000000 0.000000
vn 0.000000 -1.000000 0.000000
vn 0.000000 -1.000000 0.000000
vn 0.000000 -1.000000 0.000000
vn 0.000000 0.000000 1.000000
vn 0.000000 0.000000 1.000000
vn 0.000000 0.000000 1.000000
vn 0.000000 0.000000 1.000000
vn 0.000000 1.000000 0.000000
vn 0.000000 1.000000 0.000000
vn 0.000000 1.000000 0.000000
vn 0.000000 1.000000 0.000000
vn -0.000000 0.000000 -1.000000
vn -0.000000 0.000000 -1.000000
vn -0.000000 0.000000 -1.000000
vn -0.000000 0.000000 -1.000000
vn 0.000000 -1.000000 0.000000
vn 0.000000 -1.000000 0.000000
vn 0.000000 -1.000000 0.000000
vn 0.000000 -1.000000 0.000000
vn 0.000000 0.000000 1.000000
vn 0.000000 0.000000 1.000000
vn 0.000000 0.000000 1.000000
vn 0.000000 0.000000 1.000000
vn 0.000000 0.000000 1.000000
vn 0.000000 0.000000 1.000000
vn 0.000000 0.000000 1.000000
vn 0.000000 0.000000 1.000000
vn 1.000000 0.000000 -0.000000
vn 1.000000 0.000000 -0.000000
vn 1.000000 0.000000 -0.000000
vn 1.000000 0.000000 -0.000000
vn -1.000000 0.000000 0.000000
vn -1.000000 0.000000 0.000000
vn -1.000000 0.000000 0.000000
vn -1.000000 0.000000 0.000000
vn 0.000000 0.000000 1.000000
vn 0.000000 0.000000 1.000000
vn 0.000000 0.000000 1.000000
vn 0.000000 0.000000 1.000000
vn 1.000000 0.000000 -0.000000
vn 1.000000 0.000000 -0.000000
vn 1.000000 0.000000 -0.000000
vn 1.000000 0.000000 -0.000000
vn -1.000000 0.000000 0.000000
vn -1.000000 0.000000 0.000000
vn -1.000000 0.000000 0.000000
vn -1.000000 0.000000 0.000000
vn 0.000000 1.000000 0.000000
vn 0.000000 1.000000 0.000000
vn 0.000000 1.000000 0.000000
vn 0.000000 1.000000 0.000000
vn 0.000000 1.000000 0.000000
vn 0.000000 1.000000 0.000000
vn 0.000000 1.000000 0.000000
vn 0.000000 1.000000 0.000000
vn 0.000000 -1.000000 0.000000
vn 0.000000 -1.000000 0.000000
vn 0.000000 -1.000000 0.000000
vn 0.000000 -1.000000 0.000000
vn 0.000000 0.000000 1.000000
vn 0.000000 0.000000 1.000000
vn 0.000000 0.000000 1.000000
vn 0.000000 0.000000 1.000000
vn 0.000000 1.000000 0.000000
vn 0.000000 1.000000 0.000000
vn 0.000000 1.000000 0.000000
vn 0.000000 1.000000 0.000000
vn -0.000000 0.000000 -1.000000
vn -0.000000 0.000000 -1.000000
vn -0.000000 0.000000 -1.000000
vn -0.000000 0.000000 -1.000000
vn 0.037327 0.000000 -0.999303
vn 0.037327 0.000000 -0.999303
vn 0.309013 0.000000 -0.951058
vn 0.309013 0.000000 -0.951058
vn 0.309013 0.000000 -0.951058
vn 0.309013 0.000000 -0.951058
vn 0.587811 0.000000 -0.808999
vn 0.587811 0.000000 -0.808999
vn 0.587811 0.000000 -0.808999
vn 0.587811 0.000000 -0.808999
vn 0.808999 0.000000 -0.587811
vn 0.808999 0.000000 -0.587811
vn 0.808999 0.000000 -0.587811
vn 0.808999 0.000000 -0.587811
vn 0.951058 0.000000 -0.309013
vn 0.951058 0.000000 -0.309013
vn 0.951058 0.000000 -0.309013
vn 0.951058 0.000000 -0.309013
vn 0.999404 0.000000 -0.034520
vn 0.999404 0.000000 -0.034520
vn 0.999404 0.000000 -0.034520
vn 0.999404 0.000000 -0.034520
vn 0.951058 0.000000 -0.309013
vn 0.951058 0.000000 -0.309013
vn 0.951058 0.000000 -0.309013
vn 0.951058 0.000000 -0.309013
vn 0.808999 0.000000 -0.587811
vn 0.808999 0.000000 -0.587811
vn 0.808999 0.000000 -0.587811
vn 0.808999 0.000000 -0.587811
vn 0.587811 0.000000 -0.808999
vn 0.587811 0.000000 -0.808999
vn 0.587811 0.000000 -0.808999
vn 0.587811 0.000000 -0.808999
vn 0.309013 0.000000 -0.951058
vn 0.309013 0.000000 -0.951058
vn 0.309013 0.000000 -0.951058
vn 0.309013 0.000000 -0.951058
vn 0.037327 0.000000 -0.999303
vn 0.037327 0.000000 -0.999303
vn -0.037327 0.000000 -0.999303
vn -0.037327 0.000000 -0.999303
vn -0.309013 0.000000 -0.951058
vn -0.309013 0.000000 -0.951058
vn -0.309013 0.000000 -0.951058
vn -0.309013 0.000000 -0.951058
vn -0.587811 0.000000 -0.808999
vn -0.587811 0.000000 -0.808999
vn -0.587811 0.000000 -0.808999
vn -0.587811 0.000000 -0.808999
vn -0.808999 0.000000 -0.587811
vn -0.808999 0.000000 -0.587811
vn -0.808999 0.000000 -0.587811
vn -0.808999 0.000000 -0.587811
vn -0.951058 0.000000 -0.309013
vn -0.951058 0.000000 -0.309013
vn -0.951058 0.000000 -0.309013
vn -0.951058 0.000000 -0.309013
vn -0.999404 0.000000 -0.034520
vn -0.999404 0.000000 -0.034520
vn -0.999404 0.000000 -0.034520
vn -0.999404 0.000000 -0.034520
vn -0.951058 0.000000 -0.309013
vn -0.951058 0.000000 -0.309013
vn -0.951058 0.000000 -0.309013
vn -0.951058 0.000000 -0.309013
vn -0.808999 0.000000 -0.587811
vn -0.808999 0.000000 -0.587811
vn -0.808999 0.000000 -0.587811
vn -0.808999 0.000000 -0.587811
vn -0.587811 0.000000 -0.808999
vn -0.587811 0.000000 -0.808999
vn -0.587811 0.000000 -0.808999
vn -0.587811 0.000000 -0.808999
vn -0.309013 0.000000 -0.951058
vn -0.309013 0.000000 -0.951058
vn -0.309013 0.000000 -0.951058
vn -0.309013 0.000000 -0.951058
vn -0.037327 0.000000 -0.999303
vn -0.037327 0.000000 -0.999303
vn 0.037327 0.000000 -0.999303
vn 0.037327 0.000000 -0.999303
vn -0.000000 0.000000 -1.000000
vn -0.000000 0.000000 -1.000000
vn -0.000000 0.000000 -1.000000
vn -0.037327 0.000000 -0.999303
vn -0.037327 0.000000 -0.999303
vn -0.000000 0.000000 -1.000000
vn -0.000000 0.000000 -1.000000
vn -0.000000 0.000000 -1.000000
vn 0.037327 0.000000 -0.999303
vn 0.037327 0.000000 -0.999303
vn -0.037327 0.000000 -0.999303
vn -0.037327 0.000000 -0.999303
vn -0.000000 0.000000 -1.000000
vn -0.000000 0.000000 -1.000000
vn -1.000000 0.000000 0.000000
vn -1.000000 0.000000 0.000000
vn -0.999404 0.000000 -0.034520
vn -0.999404 0.000000 -0.034520
vn 0.999404 0.000000 -0.034520
vn 0.999404 0.000000 -0.034520
vn 1.000000 0.000000 -0.000000
vn 1.000000 0.000000 -0.000000
vn 0.999404 0.000000 -0.034520
vn 1.000000 0.000000 -0.000000
vn 1.000000 0.000000 -0.000000
vn 0.999404 0.000000 -0.034520
vn -1.000000 0.000000 0.000000
vn -0.999404 0.000000 -0.034520
vn -0.999404 0.000000 -0.034520
vn -1.000000 0.000000 0.000000
vn 0.000000 -1.000000 0.000000
vn 0.000000 -1.000000 0.000000
vn 0.000000 -1.000000 0.000000
vn 0.000000 -1.000000 0.000000
vn 0.000000 -1.000000 0.000000
vn 0.000000 -1.000000 0.000000
vn 0.000000 -1.000000 0.000000
vn 0.000000 -1.000000 0.000000
vn 0.000000 -1.000000 0.000000
vn 0.000000 -1.000000 0.000000
vn 0.000000 -1.000000 0.000000
vn 0.000000 -1.000000 0.000000
vn 0.000000 -1.000000 0.000000
vn 0.000000 -1.000000 0.000000
vn 0.000000 -1.000000 0.000000
vn 0.000000 -1.000000 0.000000
vn 0.000000 -1.000000 0.000000
vn 0.000000 -1.000000 0.000000
vn 0.000000 1.000000 0.000000
vn 0.000000 1.000000 0.000000
vn 0.000000 1.000000 0.000000
vn 0.000000 1.000000 0.000000
vn 0.000000 1.000000 0.000000
vn 0.000000 1.000000 0.000000
vn 0.000000 1.000000 0.000000
vn 0.000000 1.000000 0.000000
vn 0.000000 1.000000 0.000000
vn 0.000000 1.000000 0.000000
vn 0.000000 1.000000 0.000000
vn 0.000000 1.000000 0.000000
vn 0.000000 1.000000 0.000000
vn 0.000000 1.000000 0.000000
vn 0.000000 1.000000 0.000000
vn 0.000000 1.000000 0.000000
vn 0.000000 1.000000 0.000000
vn 0.000000 1.000000 0.000000
s off
g pCube3 group1
usemtl Corner_01:Red
f 1/93/1 3/96/2 9/95/3 12/94/4
f 27/45/5 1/48/6 12/47/7 28/46/8
f 2/1/9 4/4/10 19/3/11 30/2/12
f 27/19/13 26/22/14 3/21/15 1/20/16
f 8/57/17 2/60/18 30/59/19 29/56/20
f 5/98/21 4/102/22 2/101/23 8/97/24
usemtl Start_01:Green
f 9/67/25 23/70/26 22/69/27 5/68/28
usemtl Corner_01:Red
f 11/105/29 7/108/30 6/107/31 10/106/32
f 12/47/33 8/57/34 29/56/35 28/46/36
f 9/95/37 5/98/38 8/97/39 12/94/40
f 3/96/41 13/100/42 14/99/43 9/95/44
f 26/22/45 25/24/46 13/23/47 3/21/48
f 4/4/49 16/8/50 20/7/51 19/3/52
f 5/98/53 17/104/54 16/103/55 4/102/56
f 22/37/57 21/40/58 17/39/59 5/38/60
f 9/41/61 14/44/62 24/43/63 23/42/64
f 14/71/65 13/74/66 25/73/67 24/72/68
f 20/84/69 16/92/70 17/91/71 21/82/72
f 29/56/73 7/58/74 11/49/75 28/46/76
f 22/129/77 23/132/78 24/131/79 21/130/80
f 21/82/81 24/72/82 15/76/83 18/83/84
f 10/106/85 6/107/86 18/112/87 15/111/88
f 35/109/89 56/115/90 57/121/91 34/116/92
f 34/116/93 57/121/94 58/127/95 33/122/96
f 33/34/97 58/36/98 59/33/99 32/31/100
f 32/31/101 59/33/102 60/30/103 31/28/104
f 31/28/105 60/30/106 55/27/107 36/25/108
f 36/25/109 37/26/110 38/29/111 31/28/112
f 31/28/113 38/29/114 39/32/115 32/31/116
f 32/31/117 39/32/118 40/35/119 33/34/120
f 33/122/121 40/123/122 41/117/123 34/116/124
f 34/116/125 41/117/126 42/110/127 35/109/128
f 47/113/129 49/114/130 50/120/131 46/119/132
f 46/119/133 50/120/134 51/126/135 45/125/136
f 45/16/137 51/17/138 52/14/139 44/13/140
f 44/13/141 52/14/142 53/10/143 43/9/144
f 43/9/145 53/10/146 54/5/147 48/6/148
f 48/6/149 61/11/150 62/12/151 43/9/152
f 43/9/153 62/12/154 63/15/155 44/13/156
f 44/13/157 63/15/158 64/18/159 45/16/160
f 45/125/161 64/128/162 65/124/163 46/119/164
f 46/119/165 65/124/166 66/118/167 47/113/168
f 35/109/169 42/110/170 11/105/171 10/106/172
f 7/108/173 49/114/174 47/113/175 6/107/176
f 10/106/177 15/111/178 56/115/179 35/109/180
f 47/113/181 66/118/182 18/112/183 6/107/184
f 19/3/185 20/7/186 61/11/187 48/6/188
f 36/25/189 55/27/190 25/24/191 26/22/192
f 36/25/193 26/22/194 27/19/195 37/26/196
f 19/3/197 48/6/198 54/5/199 30/2/200
f 11/49/201 42/55/202 41/54/203 40/53/204 39/52/205 38/51/206 37/50/207 27/45/208 28/46/209
f 30/59/210 54/66/211 53/65/212 52/64/213 51/63/214 50/62/215 49/61/216 7/58/217 29/56/218
f 55/75/219 60/81/220 59/80/221 58/79/222 57/78/223 56/77/224 15/76/225 24/72/226 25/73/227
f 18/83/228 66/90/229 65/89/230 64/88/231 63/87/232 62/86/233 61/85/234 20/84/235 21/82/236
