# This file uses centimeters as units for non-parametric coordinates.

mtllib waterStart.mtl
g default
v 1.499987 0.000000 3.000020
v -1.500001 0.000000 3.000020
v 1.499987 0.190000 3.000020
v -1.500001 0.190000 3.000020
v -1.200001 0.190000 3.000020
v -1.200001 0.190000 0.000015
v -1.200001 0.000000 0.000015
v -1.200001 0.000000 3.000020
v 1.199996 0.190000 3.000020
v 1.199996 0.190000 0.000015
v 1.199996 0.000000 0.000015
v 1.199996 0.000000 3.000020
v 1.499987 0.440000 3.000020
v 1.199996 0.440000 3.000020
v 1.199996 0.440000 0.000015
v -1.500001 0.440000 3.000020
v -1.200001 0.440000 3.000020
v -1.200001 0.440000 0.000015
v -1.500001 0.190000 0.315841
v -1.500001 0.440000 0.315841
v -1.200001 0.440000 0.315841
v -1.200001 0.190000 0.315841
v 1.199996 0.190000 0.315841
v 1.199996 0.440000 0.315841
v 1.499987 0.440000 0.315841
v 1.499987 0.190000 0.315841
v 1.499987 0.000000 0.315841
v 1.199996 0.000000 0.315841
v -1.200001 0.000000 0.315841
v -1.500001 0.000000 0.315841
v 1.492668 0.190000 0.103652
v 1.471342 0.190000 0.061841
v 1.438183 0.190000 0.028659
v 1.396372 0.190000 0.007356
v 1.350023 0.190000 0.000015
v 1.499987 0.190000 0.149999
v 1.499987 0.000000 0.149999
v 1.492668 0.000000 0.103652
v 1.471342 0.000000 0.061841
v 1.438183 0.000000 0.028659
v 1.396372 0.000000 0.007356
v 1.350023 0.000000 0.000015
v -1.492659 0.190000 0.103652
v -1.471356 0.190000 0.061841
v -1.438174 0.190000 0.028659
v -1.396364 0.190000 0.007356
v -1.350016 0.190000 0.000015
v -1.500001 0.190000 0.149999
v -1.350016 0.000000 0.000015
v -1.396364 0.000000 0.007356
v -1.438174 0.000000 0.028659
v -1.471356 0.000000 0.061841
v -1.492659 0.000000 0.103652
v -1.500001 0.000000 0.149999
v 1.499987 0.440000 0.149999
v 1.350023 0.440000 0.000015
v 1.396372 0.440000 0.007356
v 1.438183 0.440000 0.028659
v 1.471342 0.440000 0.061841
v 1.492668 0.440000 0.103652
v -1.500001 0.440000 0.149999
v -1.492659 0.440000 0.103652
v -1.471356 0.440000 0.061841
v -1.438174 0.440000 0.028659
v -1.396364 0.440000 0.007356
v -1.350016 0.440000 0.000015
v -1.200001 0.190000 1.210567
v -1.200001 0.440000 1.210567
v -1.500001 0.440000 1.210567
v -1.500001 0.190000 1.210567
v -1.500001 0.000000 1.210567
v -1.200001 0.000000 1.210567
v 1.199996 0.000000 1.210567
v 1.499987 0.000000 1.210567
v 1.499987 0.190000 1.210567
v 1.499987 0.440000 1.210567
v 1.199996 0.440000 1.210567
v 1.199996 0.190000 1.210567
v -1.200001 0.190000 2.105294
v -1.200001 0.440000 2.105294
v -1.500001 0.440000 2.105294
v -1.500001 0.190000 2.105294
v -1.500001 0.000000 2.105294
v -1.200001 0.000000 2.105294
v 1.199996 0.000000 2.105294
v 1.499987 0.000000 2.105294
v 1.499987 0.190000 2.105294
v 1.499987 0.440000 2.105294
v 1.199996 0.440000 2.105294
v 1.199996 0.190000 2.105294
v 1.499987 0.027877 3.000020
v 1.499987 0.027877 2.105294
v 1.499987 0.027877 1.210567
v 1.499987 0.027877 0.315841
v 1.499987 0.027877 0.149999
v 1.492668 0.027877 0.103652
v 1.471342 0.027877 0.061841
v 1.438183 0.027877 0.028659
v 1.396372 0.027877 0.007356
v 1.350023 0.027877 0.000015
v 1.199996 0.027877 0.000015
v -1.200001 0.027877 0.000015
v -1.350016 0.027877 0.000015
v -1.396364 0.027877 0.007356
v -1.438174 0.027877 0.028659
v -1.471356 0.027877 0.061841
v -1.492659 0.027877 0.103652
v -1.500001 0.027877 0.149999
v -1.500001 0.027877 0.315841
v -1.500001 0.027877 1.210567
v -1.500001 0.027877 2.105294
v -1.500001 0.027877 3.000020
v -1.200001 0.027877 3.000020
v 1.199996 0.027877 3.000020
v -1.200001 0.027877 2.105294
v 1.199996 0.027877 2.105294
vt 0.145382 -0.067572
vt 0.145382 -0.469001
vt 0.173798 -0.469001
vt 0.173798 -0.067572
vt 0.145382 -0.493803
vt 0.173798 -0.493803
vt 0.211186 -0.469001
vt 0.211186 -0.067572
vt 0.173798 -0.500735
vt 0.145382 -0.500735
vt 0.211186 -0.493803
vt 0.211186 -0.500735
vt 0.173798 -0.506988
vt 0.145382 -0.506988
vt 0.211186 -0.506988
vt 0.173798 -0.511950
vt 0.145382 -0.511950
vt 0.211186 -0.511950
vt 0.073443 -0.110522
vt 0.073443 -0.511950
vt 0.101859 -0.511950
vt 0.101859 -0.110522
vt 0.139247 -0.511950
vt 0.139247 -0.110522
vt 0.101859 -0.085719
vt 0.073443 -0.085719
vt 0.139247 -0.085719
vt 0.101859 -0.078788
vt 0.073443 -0.078788
vt 0.139247 -0.078788
vt 0.101859 -0.072535
vt 0.073443 -0.072535
vt 0.139247 -0.072535
vt 0.101859 -0.067572
vt 0.073443 -0.067572
vt 0.139247 -0.067572
vt 0.304697 -0.114465
vt 0.304697 -0.515894
vt 0.342085 -0.515894
vt 0.342085 -0.114465
vt 0.261173 -0.114465
vt 0.261173 -0.515894
vt 0.298561 -0.515894
vt 0.298561 -0.114465
vt 0.070238 -0.921314
vt 0.115104 -0.921314
vt 0.115104 -0.519885
vt 0.070238 -0.519885
vt 0.115104 -0.968547
vt 0.070238 -0.946116
vt 0.071336 -0.953048
vt 0.074522 -0.959301
vt 0.079484 -0.964263
vt 0.085737 -0.967449
vt 0.092669 -0.968547
vt 0.474034 -0.921314
vt 0.474034 -0.519885
vt 0.474034 -0.968547
vt 0.518900 -0.921314
vt 0.518900 -0.519885
vt 0.496469 -0.968547
vt 0.503401 -0.967449
vt 0.509654 -0.964263
vt 0.514616 -0.959301
vt 0.517802 -0.953048
vt 0.518900 -0.946116
vt 0.900000 0.900000
vt 0.100000 0.900000
vt 0.571159 -0.968547
vt 0.571159 -0.567118
vt 0.526293 -0.567118
vt 0.526293 -0.968547
vt 0.526293 -0.542316
vt 0.571159 -0.519885
vt 0.548724 -0.519885
vt 0.541792 -0.520983
vt 0.535539 -0.524169
vt 0.530577 -0.529132
vt 0.527391 -0.535385
vt 0.930089 -0.567118
vt 0.930089 -0.519885
vt 0.974955 -0.567118
vt 0.974955 -0.542316
vt 0.973857 -0.535385
vt 0.970671 -0.529132
vt 0.965708 -0.524169
vt 0.959456 -0.520983
vt 0.952524 -0.519885
vt 0.930089 -0.968547
vt 0.974955 -0.968547
vt -0.002068 -0.519885
vt -0.002068 -0.564751
vt 0.026347 -0.564751
vt 0.026347 -0.519885
vt -0.002068 -0.923681
vt 0.026347 -0.923681
vt 0.063736 -0.564751
vt 0.063736 -0.519885
vt -0.002068 -0.968547
vt 0.026347 -0.968547
vt 0.063736 -0.968547
vt 0.063736 -0.923681
vt 0.067308 -0.117401
vt 0.038893 -0.117401
vt 0.038893 -0.476331
vt 0.067308 -0.476331
vt 0.038893 -0.094966
vt 0.067308 -0.094966
vt 0.001504 -0.117401
vt 0.001504 -0.476331
vt 0.038893 -0.498766
vt 0.067308 -0.498766
vt 0.001504 -0.094966
vt 0.038893 -0.088034
vt 0.067308 -0.088034
vt 0.001504 -0.498766
vt 0.038893 -0.505697
vt 0.067308 -0.505697
vt 0.001504 -0.088034
vt 0.038893 -0.081781
vt 0.067308 -0.081781
vt 0.001504 -0.505697
vt 0.038893 -0.511950
vt 0.067308 -0.511950
vt 0.001504 -0.081781
vt 0.001504 -0.511950
vt 0.217649 -0.515894
vt 0.255038 -0.515894
vt 0.255038 -0.156964
vt 0.217649 -0.156964
vt 0.304697 -0.248275
vt 0.900000 0.600000
vt 0.930089 -0.700928
vt 0.342085 -0.248275
vt 0.974955 -0.700928
vt 0.211186 -0.335191
vt 0.173798 -0.335191
vt 0.518900 -0.787504
vt 0.145382 -0.335191
vt 0.474034 -0.787504
vt 0.115104 -0.787504
vt 0.073443 -0.244331
vt 0.070238 -0.787504
vt 0.101859 -0.244331
vt 0.526293 -0.700928
vt 0.139247 -0.244331
vt 0.571159 -0.700928
vt 0.298561 -0.382084
vt 0.261173 -0.382084
vt 0.100000 0.600000
vt 0.304697 -0.382084
vt 0.900000 0.300000
vt 0.930089 -0.834738
vt 0.342085 -0.382084
vt 0.974955 -0.834738
vt 0.211186 -0.201382
vt 0.173798 -0.201382
vt 0.518900 -0.653695
vt 0.145382 -0.201382
vt 0.474034 -0.653695
vt 0.115104 -0.653695
vt 0.073443 -0.378141
vt 0.070238 -0.653695
vt 0.101859 -0.378141
vt 0.526293 -0.834738
vt 0.139247 -0.378141
vt 0.571159 -0.834738
vt 0.298561 -0.248275
vt 0.261173 -0.248275
vt 0.100000 0.300000
vt 0.087651 -0.511950
vt 0.012140 -0.519885
vt 0.087651 -0.378141
vt 0.087651 -0.244331
vt 0.087651 -0.110522
vt 0.087651 -0.085719
vt 0.087651 -0.078788
vt 0.087651 -0.072535
vt 0.053100 -0.081781
vt 0.087651 -0.067572
vt 0.053100 -0.088034
vt 0.053100 -0.094966
vt 0.053100 -0.117401
vt 0.053100 -0.476331
vt 0.053100 -0.498766
vt 0.053100 -0.505697
vt 0.159590 -0.511950
vt 0.053100 -0.511950
vt 0.159590 -0.506988
vt 0.159590 -0.500735
vt 0.159590 -0.493803
vt 0.159590 -0.469001
vt 0.159590 -0.335191
vt 0.159590 -0.201382
vt 0.012140 -0.968547
vt 0.159590 -0.067572
vt 0.012140 -0.923681
vt 0.012140 -0.564751
vt 0.000000 0.000000
vt 1.000000 0.000000
vt 1.000000 1.000000
vt 0.000000 1.000000
vn 0.000000 0.000000 1.000000
vn 0.000000 0.000000 1.000000
vn 0.000000 0.000000 1.000000
vn 0.000000 0.000000 1.000000
vn 0.000000 -1.000000 0.000000
vn 0.000000 -1.000000 0.000000
vn 0.000000 -1.000000 0.000000
vn 0.000000 -1.000000 0.000000
vn -1.000000 0.000000 0.000000
vn -1.000000 0.000000 0.000000
vn -1.000000 0.000000 0.000000
vn -1.000000 0.000000 0.000000
vn 1.000000 0.000000 0.000000
vn 1.000000 0.000000 0.000000
vn 1.000000 0.000000 0.000000
vn 1.000000 0.000000 0.000000
vn 0.000000 -1.000000 0.000000
vn 0.000000 -1.000000 0.000000
vn 0.000000 -1.000000 0.000000
vn 0.000000 -1.000000 0.000000
vn 0.000000 0.000000 1.000000
vn 0.000000 0.000000 1.000000
vn 0.000000 0.000000 1.000000
vn 0.000000 0.000000 1.000000
vn 0.000000 0.000000 -1.000000
vn 0.000000 0.000000 -1.000000
vn 0.000000 0.000000 -1.000000
vn 0.000000 0.000000 -1.000000
vn 0.000000 -1.000000 0.000000
vn 0.000000 -1.000000 0.000000
vn 0.000000 -1.000000 0.000000
vn 0.000000 -1.000000 0.000000
vn 0.000000 0.000000 1.000000
vn 0.000000 0.000000 1.000000
vn 0.000000 0.000000 1.000000
vn 0.000000 0.000000 1.000000
vn 1.000000 0.000000 0.000000
vn 1.000000 0.000000 0.000000
vn 1.000000 0.000000 0.000000
vn 1.000000 0.000000 0.000000
vn -1.000000 0.000000 0.000000
vn -1.000000 0.000000 0.000000
vn -1.000000 0.000000 0.000000
vn -1.000000 0.000000 0.000000
vn 0.000000 0.000000 1.000000
vn 0.000000 0.000000 1.000000
vn 0.000000 0.000000 1.000000
vn 0.000000 0.000000 1.000000
vn 1.000000 0.000000 0.000000
vn 1.000000 0.000000 0.000000
vn 1.000000 0.000000 0.000000
vn 1.000000 0.000000 0.000000
vn -1.000000 0.000000 0.000000
vn -1.000000 0.000000 0.000000
vn -1.000000 0.000000 0.000000
vn -1.000000 0.000000 0.000000
vn 0.000000 1.000000 0.000000
vn 0.000000 1.000000 0.000000
vn 0.000000 1.000000 0.000000
vn 0.000000 1.000000 0.000000
vn 0.000000 1.000000 0.000000
vn 0.000000 1.000000 0.000000
vn 0.000000 1.000000 0.000000
vn 0.000000 1.000000 0.000000
vn 0.000000 -1.000000 0.000000
vn 0.000000 -1.000000 0.000000
vn 0.000000 -1.000000 0.000000
vn 0.000000 -1.000000 0.000000
vn 0.000000 0.000000 1.000000
vn 0.000000 0.000000 1.000000
vn 0.000000 0.000000 1.000000
vn 0.000000 0.000000 1.000000
vn 0.000000 1.000000 0.000000
vn 0.000000 1.000000 0.000000
vn 0.000000 1.000000 0.000000
vn 0.000000 1.000000 0.000000
vn 0.000000 0.000000 -1.000000
vn 0.000000 0.000000 -1.000000
vn 0.000000 0.000000 -1.000000
vn 0.000000 0.000000 -1.000000
vn 0.156437 0.000000 -0.987688
vn 0.156437 0.000000 -0.987688
vn 0.156437 0.000000 -0.987688
vn 0.156437 0.000000 -0.987688
vn 0.453976 0.000000 -0.891014
vn 0.453976 0.000000 -0.891014
vn 0.453976 0.000000 -0.891014
vn 0.453976 0.000000 -0.891014
vn 0.707346 0.000000 -0.706868
vn 0.707346 0.000000 -0.706868
vn 0.707346 0.000000 -0.706868
vn 0.707346 0.000000 -0.706868
vn 0.890820 0.000000 -0.454356
vn 0.890820 0.000000 -0.454356
vn 0.890820 0.000000 -0.454356
vn 0.890820 0.000000 -0.454356
vn 0.987758 0.000000 -0.155994
vn 0.987758 0.000000 -0.155994
vn 0.987758 0.000000 -0.155994
vn 0.987758 0.000000 -0.155994
vn 0.987758 0.000000 -0.155994
vn 0.987758 0.000000 -0.155994
vn 0.987758 0.000000 -0.155994
vn 0.987758 0.000000 -0.155994
vn 0.890820 0.000000 -0.454356
vn 0.890820 0.000000 -0.454356
vn 0.890820 0.000000 -0.454356
vn 0.890820 0.000000 -0.454356
vn 0.707346 0.000000 -0.706868
vn 0.707346 0.000000 -0.706868
vn 0.707346 0.000000 -0.706868
vn 0.707346 0.000000 -0.706868
vn 0.453977 0.000000 -0.891014
vn 0.453977 0.000000 -0.891014
vn 0.453977 0.000000 -0.891014
vn 0.453977 0.000000 -0.891014
vn 0.156437 0.000000 -0.987688
vn 0.156437 0.000000 -0.987688
vn 0.156437 0.000000 -0.987688
vn 0.156437 0.000000 -0.987688
vn -0.156440 0.000000 -0.987687
vn -0.156440 0.000000 -0.987687
vn -0.156440 0.000000 -0.987687
vn -0.156440 0.000000 -0.987687
vn -0.453979 0.000000 -0.891013
vn -0.453979 0.000000 -0.891013
vn -0.453979 0.000000 -0.891013
vn -0.453979 0.000000 -0.891013
vn -0.707111 0.000000 -0.707103
vn -0.707111 0.000000 -0.707103
vn -0.707111 0.000000 -0.707103
vn -0.707111 0.000000 -0.707103
vn -0.891015 0.000000 -0.453975
vn -0.891015 0.000000 -0.453975
vn -0.891015 0.000000 -0.453975
vn -0.891015 0.000000 -0.453975
vn -0.987685 0.000000 -0.156457
vn -0.987685 0.000000 -0.156457
vn -0.987685 0.000000 -0.156457
vn -0.987685 0.000000 -0.156457
vn -0.987685 0.000000 -0.156457
vn -0.987685 0.000000 -0.156457
vn -0.987685 0.000000 -0.156457
vn -0.987685 0.000000 -0.156457
vn -0.891015 0.000000 -0.453975
vn -0.891015 0.000000 -0.453975
vn -0.891015 0.000000 -0.453975
vn -0.891015 0.000000 -0.453975
vn -0.707111 0.000000 -0.707103
vn -0.707111 0.000000 -0.707103
vn -0.707111 0.000000 -0.707103
vn -0.707111 0.000000 -0.707103
vn -0.453979 0.000000 -0.891013
vn -0.453979 0.000000 -0.891013
vn -0.453979 0.000000 -0.891013
vn -0.453979 0.000000 -0.891013
vn -0.156440 0.000000 -0.987687
vn -0.156440 0.000000 -0.987687
vn -0.156440 0.000000 -0.987687
vn -0.156440 0.000000 -0.987687
vn 0.000000 0.000000 -1.000000
vn 0.000000 0.000000 -1.000000
vn 0.000000 0.000000 -1.000000
vn 0.000000 0.000000 -1.000000
vn 0.000000 0.000000 -1.000000
vn 0.000000 0.000000 -1.000000
vn 0.000000 0.000000 -1.000000
vn 0.000000 0.000000 -1.000000
vn 0.000000 0.000000 -1.000000
vn 0.000000 0.000000 -1.000000
vn 0.000000 0.000000 -1.000000
vn 0.000000 0.000000 -1.000000
vn 0.000000 0.000000 -1.000000
vn 0.000000 0.000000 -1.000000
vn 0.000000 0.000000 -1.000000
vn 0.000000 0.000000 -1.000000
vn -1.000000 0.000000 0.000000
vn -1.000000 0.000000 0.000000
vn -1.000000 0.000000 0.000000
vn -1.000000 0.000000 0.000000
vn 1.000000 0.000000 0.000000
vn 1.000000 0.000000 0.000000
vn 1.000000 0.000000 0.000000
vn 1.000000 0.000000 0.000000
vn 1.000000 0.000000 0.000000
vn 1.000000 0.000000 0.000000
vn 1.000000 0.000000 0.000000
vn 1.000000 0.000000 0.000000
vn -1.000000 0.000000 0.000000
vn -1.000000 0.000000 0.000000
vn -1.000000 0.000000 0.000000
vn -1.000000 0.000000 0.000000
vn 0.000000 -1.000000 0.000000
vn 0.000000 -1.000000 0.000000
vn 0.000000 -1.000000 0.000000
vn 0.000000 -1.000000 0.000000
vn 0.000000 -1.000000 0.000000
vn 0.000000 -1.000000 0.000000
vn 0.000000 -1.000000 0.000000
vn 0.000000 -1.000000 0.000000
vn 0.000000 -1.000000 0.000000
vn 0.000000 -1.000000 0.000000
vn 0.000000 -1.000000 0.000000
vn 0.000000 -1.000000 0.000000
vn 0.000000 -1.000000 0.000000
vn 0.000000 -1.000000 0.000000
vn 0.000000 -1.000000 0.000000
vn 0.000000 -1.000000 0.000000
vn 0.000000 -1.000000 0.000000
vn 0.000000 -1.000000 0.000000
vn 0.000000 1.000000 0.000000
vn 0.000000 1.000000 0.000000
vn 0.000000 1.000000 0.000000
vn 0.000000 1.000000 0.000000
vn 0.000000 1.000000 0.000000
vn 0.000000 1.000000 0.000000
vn 0.000000 1.000000 0.000000
vn 0.000000 1.000000 0.000000
vn 0.000000 1.000000 0.000000
vn 0.000000 1.000000 0.000000
vn 0.000000 1.000000 0.000000
vn 0.000000 1.000000 0.000000
vn 0.000000 1.000000 0.000000
vn 0.000000 1.000000 0.000000
vn 0.000000 1.000000 0.000000
vn 0.000000 1.000000 0.000000
vn 0.000000 1.000000 0.000000
vn 0.000000 1.000000 0.000000
vn 1.000000 0.000000 0.000000
vn 1.000000 0.000000 0.000000
vn 1.000000 0.000000 0.000000
vn 1.000000 0.000000 0.000000
vn 0.000000 1.000000 0.000000
vn 0.000000 1.000000 0.000000
vn 0.000000 1.000000 0.000000
vn 0.000000 1.000000 0.000000
vn -1.000000 0.000000 0.000000
vn -1.000000 0.000000 0.000000
vn -1.000000 0.000000 0.000000
vn -1.000000 0.000000 0.000000
vn -1.000000 0.000000 0.000000
vn -1.000000 0.000000 0.000000
vn -1.000000 0.000000 0.000000
vn -1.000000 0.000000 0.000000
vn 0.000000 -1.000000 0.000000
vn 0.000000 -1.000000 0.000000
vn 0.000000 -1.000000 0.000000
vn 0.000000 -1.000000 0.000000
vn 0.000000 -1.000000 0.000000
vn 0.000000 -1.000000 0.000000
vn 0.000000 -1.000000 0.000000
vn 0.000000 -1.000000 0.000000
vn 0.000000 -1.000000 0.000000
vn 0.000000 -1.000000 0.000000
vn 0.000000 -1.000000 0.000000
vn 0.000000 -1.000000 0.000000
vn 1.000000 0.000000 0.000000
vn 1.000000 0.000000 0.000000
vn 1.000000 0.000000 0.000000
vn 1.000000 0.000000 0.000000
vn 1.000000 0.000000 0.000000
vn 1.000000 0.000000 0.000000
vn 1.000000 0.000000 0.000000
vn 1.000000 0.000000 0.000000
vn 0.000000 1.000000 0.000000
vn 0.000000 1.000000 0.000000
vn 0.000000 1.000000 0.000000
vn 0.000000 1.000000 0.000000
vn -1.000000 0.000000 0.000000
vn -1.000000 0.000000 0.000000
vn -1.000000 0.000000 0.000000
vn -1.000000 0.000000 0.000000
vn 0.000000 1.000000 0.000000
vn 0.000000 1.000000 0.000000
vn 0.000000 1.000000 0.000000
vn 0.000000 1.000000 0.000000
vn 0.000000 1.000000 0.000000
vn 0.000000 1.000000 0.000000
vn 1.000000 0.000000 0.000000
vn 1.000000 0.000000 0.000000
vn 1.000000 0.000000 0.000000
vn 1.000000 0.000000 0.000000
vn 1.000000 0.000000 0.000000
vn 1.000000 0.000000 0.000000
vn 0.987758 0.000000 -0.155994
vn 0.987758 0.000000 -0.155994
vn 0.890820 0.000000 -0.454356
vn 0.890820 0.000000 -0.454356
vn 0.707346 0.000000 -0.706868
vn 0.707346 0.000000 -0.706868
vn 0.453977 0.000000 -0.891014
vn 0.453977 0.000000 -0.891014
vn 0.156437 0.000000 -0.987688
vn 0.156437 0.000000 -0.987688
vn 0.000000 0.000000 -1.000000
vn 0.000000 0.000000 -1.000000
vn 0.000000 0.000000 -1.000000
vn 0.000000 0.000000 -1.000000
vn 0.000000 0.000000 -1.000000
vn 0.000000 0.000000 -1.000000
vn -0.156440 0.000000 -0.987687
vn -0.156440 0.000000 -0.987687
vn -0.453979 0.000000 -0.891013
vn -0.453979 0.000000 -0.891013
vn -0.707111 0.000000 -0.707103
vn -0.707111 0.000000 -0.707103
vn -0.891015 0.000000 -0.453975
vn -0.891015 0.000000 -0.453975
vn -0.987685 0.000000 -0.156457
vn -0.987685 0.000000 -0.156457
vn -1.000000 0.000000 0.000000
vn -1.000000 0.000000 0.000000
vn -1.000000 0.000000 0.000000
vn -1.000000 0.000000 0.000000
vn -1.000000 0.000000 0.000000
vn -1.000000 0.000000 0.000000
vn 0.000000 0.000000 1.000000
vn 0.000000 0.000000 1.000000
vn 0.000000 0.000000 1.000000
vn 0.000000 0.000000 1.000000
vn 0.000000 0.000000 1.000000
vn 0.000000 0.000000 1.000000
vn 0.000000 0.000000 1.000000
vn 0.000000 0.000000 1.000000
vn 0.000000 1.000000 0.000000
vn 0.000000 1.000000 0.000000
vn 0.000000 1.000000 0.000000
vn 0.000000 1.000000 0.000000
vn 0.000000 0.000000 1.000000
vn 0.000000 0.000000 1.000000
vn 0.000000 0.000000 1.000000
vn 0.000000 0.000000 1.000000
vn 1.000000 0.000000 0.000000
vn 1.000000 0.000000 0.000000
vn 1.000000 0.000000 0.000000
vn 1.000000 0.000000 0.000000
vn -1.000000 0.000000 0.000000
vn -1.000000 0.000000 0.000000
vn -1.000000 0.000000 0.000000
vn -1.000000 0.000000 0.000000
s 1
g start2 group1
usemtl lambert3SG
f 114/198/1 91/172/2 3/94/3 9/93/4
s 2
f 86/163/5 1/48/6 12/47/7 85/161/8
s 3
f 112/196/9 4/4/10 82/157/11 111/194/12
s 4
f 92/173/13 87/164/14 3/21/15 91/171/16
s 5
f 8/57/17 2/60/18 83/158/19 84/160/20
s 6
f 5/96/21 4/100/22 112/195/23 113/197/24
s 7
f 101/183/25 102/184/26 6/105/27 10/104/28
s 8
f 12/47/29 8/57/30 84/160/31 85/161/32
s off
f 3/94/33 13/98/34 14/97/35 9/93/36
s 9
f 87/164/37 88/166/38 13/23/39 3/21/40
s 10
f 4/4/41 16/8/42 81/156/43 82/157/44
s off
f 5/96/45 17/102/46 16/101/47 4/100/48
s 11
f 79/151/49 80/154/50 17/39/51 5/38/52
s 12
f 9/41/53 14/44/54 89/168/55 90/169/56
s 13
f 14/69/57 13/72/58 88/165/59 89/167/60
s 14
f 81/155/61 16/90/62 17/89/63 80/153/64
s off
f 29/56/65 7/58/66 11/49/67 28/46/68
f 22/127/69 23/130/70 24/129/71 21/128/72
f 21/80/73 24/70/74 15/74/75 18/81/76
f 10/104/77 6/105/78 18/110/79 15/109/80
f 35/107/81 56/113/82 57/119/83 34/114/84
f 34/114/85 57/119/86 58/125/87 33/120/88
f 33/34/89 58/36/90 59/33/91 32/31/92
f 32/31/93 59/33/94 60/30/95 31/28/96
f 31/28/97 60/30/98 55/27/99 36/25/100
s 15
f 36/25/101 95/176/102 96/177/103 31/28/104
s 16
f 31/28/105 96/177/106 97/178/107 32/31/108
s 17
f 32/31/109 97/178/110 98/180/111 33/34/112
s 18
f 33/120/113 98/179/114 99/181/115 34/114/116
s 19
f 34/114/117 99/181/118 100/182/119 35/107/120
s 20
f 47/111/121 103/185/122 104/186/123 46/117/124
s 21
f 46/117/125 104/186/126 105/188/127 45/123/128
s 22
f 45/16/129 105/187/130 106/189/131 44/13/132
s 23
f 44/13/133 106/189/134 107/190/135 43/9/136
s 24
f 43/9/137 107/190/138 108/191/139 48/6/140
s off
f 48/6/141 61/11/142 62/12/143 43/9/144
f 43/9/145 62/12/146 63/15/147 44/13/148
f 44/13/149 63/15/150 64/18/151 45/16/152
f 45/123/153 64/126/154 65/122/155 46/117/156
f 46/117/157 65/122/158 66/116/159 47/111/160
s 25
f 35/107/161 100/182/162 101/183/163 10/104/164
s 26
f 102/184/165 103/185/166 47/111/167 6/105/168
s off
f 10/104/169 15/109/170 56/113/171 35/107/172
f 47/111/173 66/116/174 18/110/175 6/105/176
f 19/3/177 20/7/178 61/11/179 48/6/180
f 36/25/181 55/27/182 25/24/183 26/22/184
s 27
f 36/25/185 26/22/186 94/175/187 95/176/188
s 28
f 19/3/189 48/6/190 108/191/191 109/192/192
s off
f 11/49/193 42/55/194 41/54/195 40/53/196 39/52/197 38/51/198 37/50/199 27/45/200 28/46/201
f 30/59/202 54/66/203 53/65/204 52/64/205 51/63/206 50/62/207 49/61/208 7/58/209 29/56/210
f 55/73/211 60/79/212 59/78/213 58/77/214 57/76/215 56/75/216 15/74/217 24/70/218 25/71/219
f 18/81/220 66/88/221 65/87/222 64/86/223 63/85/224 62/84/225 61/83/226 20/82/227 21/80/228
s 11
f 22/37/229 21/40/230 68/134/231 67/131/232
s 14
f 20/82/233 69/135/234 68/133/235 21/80/236
s 10
f 70/137/237 69/136/238 20/7/239 19/3/240
s 3
f 110/193/241 70/137/242 19/3/243 109/192/244
s 5
f 72/140/245 71/138/246 30/59/247 29/56/248
s 8
f 73/141/249 72/140/250 29/56/251 28/46/252
s 2
f 27/45/253 74/143/254 73/141/255 28/46/256
s 4
f 94/175/257 26/22/258 75/144/259 93/174/260
s 9
f 26/22/261 25/24/262 76/146/263 75/144/264
s 13
f 77/147/265 76/145/266 25/71/267 24/70/268
s 12
f 78/149/269 77/148/270 24/43/271 23/42/272
s 29
usemtl lambert2SG
f 67/132/273 78/150/274 23/68/275 22/67/276
s 11
usemtl lambert3SG
f 67/131/232 68/134/231 80/154/50 79/151/49
s 14
f 69/135/234 81/155/61 80/153/64 68/133/235
s 10
f 82/157/44 81/156/43 69/136/238 70/137/237
s 3
f 111/194/12 82/157/11 70/137/242 110/193/241
s 5
f 84/160/20 83/158/19 71/138/246 72/140/245
s 8
f 85/161/32 84/160/31 72/140/250 73/141/249
s 2
f 74/143/254 86/163/5 85/161/8 73/141/255
s 4
f 93/174/260 75/144/259 87/164/14 92/173/13
s 9
f 75/144/264 76/146/263 88/166/38 87/164/37
s 13
f 89/167/60 88/165/59 76/145/266 77/147/265
s 12
f 90/169/56 89/168/55 77/148/270 78/149/269
s 29
usemtl lambert2SG
f 79/152/277 90/170/278 78/150/274 67/132/273
s 4
usemtl lambert3SG
f 86/162/279 92/173/13 91/171/16 1/20/280
f 74/142/281 93/174/260 92/173/13 86/162/279
f 27/19/282 94/175/257 93/174/260 74/142/281
s 27
f 95/176/188 94/175/187 27/19/283 37/26/284
s 15
f 96/177/103 95/176/102 37/26/285 38/29/286
s 16
f 97/178/107 96/177/106 38/29/287 39/32/288
s 17
f 98/180/111 97/178/110 39/32/289 40/35/290
s 18
f 99/181/115 98/179/114 40/121/291 41/115/292
s 19
f 100/182/119 99/181/118 41/115/293 42/108/294
s 25
f 101/183/163 100/182/162 42/108/295 11/103/296
s 7
f 11/103/297 7/106/298 102/184/26 101/183/25
s 26
f 7/106/299 49/112/300 103/185/166 102/184/165
s 20
f 104/186/123 103/185/122 49/112/301 50/118/302
s 21
f 105/188/127 104/186/126 50/118/303 51/124/304
s 22
f 106/189/131 105/187/130 51/17/305 52/14/306
s 23
f 107/190/135 106/189/134 52/14/307 53/10/308
s 24
f 108/191/139 107/190/138 53/10/309 54/5/310
s 28
f 109/192/192 108/191/191 54/5/311 30/2/312
s 3
f 71/139/313 110/193/241 109/192/244 30/2/314
f 83/159/315 111/194/12 110/193/241 71/139/313
f 2/1/316 112/196/9 111/194/12 83/159/315
s 6
f 113/197/24 112/195/23 2/99/317 8/95/318
s off
f 114/198/319 113/197/320 8/95/321 12/92/322
s 1
f 1/91/323 91/172/2 114/198/1 12/92/324
s off
usemtl waterBotSG
f 113/199/325 114/200/326 116/201/327 115/202/328
usemtl lambert3SG
f 90/170/329 79/152/330 115/202/331 116/201/332
f 113/199/333 115/202/334 79/151/335 5/96/336
f 9/41/337 90/170/338 116/201/339 114/198/340
