# This file uses centimeters as units for non-parametric coordinates.

mtllib straightRamp_B_3x3.mtl
g default
v -3.000000 0.000000 0.000000
v 0.000000 0.000000 0.000000
v -3.000000 0.190000 0.000000
v 0.000000 0.190000 0.000000
v -3.000000 0.190000 -3.000000
v 0.000000 0.190000 -3.000000
v -3.000000 0.000000 -3.000000
v 0.000000 0.000000 -3.000000
v -0.107075 0.190000 0.000000
v -0.107075 0.190000 -3.000000
v -2.892925 0.190000 0.000000
v -2.892925 0.190000 -3.000000
v -3.000000 0.321460 0.000000
v -2.892925 0.321460 0.000000
v -3.000000 0.321460 -3.000000
v -2.892925 0.321460 -3.000000
v 0.000000 0.321460 0.000000
v 0.000000 0.321460 -3.000000
v -0.107075 0.321460 0.000000
v -0.107075 0.321460 -3.000000
v 0.000000 0.000000 -2.062136
v 0.000000 0.689317 -2.062136
v 0.000000 0.820777 -2.062136
v -0.107075 0.820777 -2.062136
v -0.107075 0.689317 -2.062136
v -2.892925 0.689317 -2.062136
v -2.892925 0.820777 -2.062136
v -3.000000 0.820777 -2.062136
v -3.000000 0.689317 -2.062136
v -3.000000 0.000000 -2.062136
v 0.000000 0.000000 -0.937863
v 0.000000 0.689317 -0.937863
v 0.000000 0.820777 -0.937863
v -0.107075 0.820777 -0.937863
v -0.107075 0.689317 -0.937863
v -2.892925 0.689317 -0.937863
v -2.892925 0.820777 -0.937863
v -3.000000 0.820777 -0.937863
v -3.000000 0.689317 -0.937863
v -3.000000 0.000000 -0.937863
vt 0.001992 -0.522101
vt 0.001992 -0.673745
vt 0.113448 -0.673745
vt 0.032713 -0.522101
vt 0.001992 -0.855529
vt 0.113448 -0.855529
vt 0.134704 -0.673745
vt 0.053969 -0.522101
vt 0.001992 -1.007172
vt 0.032713 -1.007172
vt 0.134704 -0.855529
vt 0.053969 -1.007172
vt 0.142511 -0.855529
vt 0.142511 -1.007172
vt 0.173233 -1.007172
vt 0.253967 -0.855529
vt 0.194488 -1.007172
vt 0.275223 -0.855529
vt 0.142511 -0.673745
vt 0.253967 -0.673745
vt 0.275223 -0.673745
vt 0.142511 -0.522101
vt 0.173233 -0.522101
vt 0.194488 -0.522101
vt 0.821575 -0.855529
vt 0.740840 -1.007172
vt 0.762096 -1.007172
vt 0.842830 -0.855529
vt 0.821575 -0.673745
vt 0.842830 -0.673745
vt 0.740840 -0.522101
vt 0.762096 -0.522101
vt 0.849981 -0.522101
vt 0.930716 -0.673745
vt 0.951972 -0.673745
vt 0.871237 -0.522101
vt 0.930716 -0.855529
vt 0.951972 -0.855529
vt 0.849981 -1.007172
vt 0.871237 -1.007172
vt 0.250000 0.250000
vt 1.000000 0.250000
vt 1.000000 0.484361
vt 0.250000 0.484361
vt 1.000000 0.763604
vt 0.250000 0.763604
vt 1.000000 1.000000
vt 0.250000 1.000000
vt 0.976435 -1.007172
vt 0.976435 -0.855529
vt 0.959122 -0.855529
vt 0.959122 -1.007172
vt 0.976435 -0.673745
vt 0.959122 -0.673745
vt 0.976435 -0.522101
vt 0.959122 -0.522101
vt 0.998008 -0.366466
vt 0.980695 -0.366466
vt 0.980695 -0.518110
vt 0.998008 -0.518110
vt 0.998008 -0.184682
vt 0.980695 -0.184682
vt 0.998008 -0.033038
vt 0.980695 -0.033038
vn 1.000000 0.000000 0.000000
vn 1.000000 0.000000 0.000000
vn 1.000000 0.000000 0.000000
vn 1.000000 0.000000 0.000000
vn -1.000000 0.000000 0.000000
vn -1.000000 0.000000 0.000000
vn -1.000000 0.000000 0.000000
vn -1.000000 0.000000 0.000000
vn 0.000000 1.000000 0.000000
vn 0.000000 1.000000 0.000000
vn 0.000000 0.971914 0.235335
vn 0.000000 0.971914 0.235335
vn -1.000000 0.000000 0.000000
vn -1.000000 0.000000 0.000000
vn -1.000000 0.000000 0.000000
vn -1.000000 0.000000 0.000000
vn 1.000000 0.000000 0.000000
vn 1.000000 0.000000 0.000000
vn 1.000000 0.000000 0.000000
vn 1.000000 0.000000 0.000000
vn -1.000000 0.000000 0.000000
vn -1.000000 0.000000 0.000000
vn -1.000000 0.000000 0.000000
vn -1.000000 0.000000 0.000000
vn 1.000000 0.000000 0.000000
vn 1.000000 0.000000 0.000000
vn 1.000000 0.000000 0.000000
vn 1.000000 0.000000 0.000000
vn 0.000000 1.000000 0.000000
vn 0.000000 0.971914 0.235335
vn 0.000000 0.971914 0.235335
vn 0.000000 1.000000 0.000000
vn 0.000000 0.971914 0.235335
vn 0.000000 0.971914 0.235335
vn 0.000000 1.000000 0.000000
vn 0.000000 1.000000 0.000000
vn 1.000000 0.000000 0.000000
vn 1.000000 0.000000 0.000000
vn 1.000000 0.000000 0.000000
vn 1.000000 0.000000 0.000000
vn 1.000000 0.000000 0.000000
vn 1.000000 0.000000 0.000000
vn 1.000000 0.000000 0.000000
vn 1.000000 0.000000 0.000000
vn 0.000000 1.000000 0.000000
vn 0.000000 1.000000 0.000000
vn 0.000000 0.971914 -0.235335
vn 0.000000 0.971914 -0.235335
vn -1.000000 0.000000 0.000000
vn -1.000000 0.000000 0.000000
vn -1.000000 0.000000 0.000000
vn -1.000000 0.000000 0.000000
vn 0.000000 0.971914 -0.235335
vn 0.000000 0.971914 -0.235335
vn 0.000000 1.000000 0.000000
vn 0.000000 1.000000 0.000000
vn 1.000000 0.000000 0.000000
vn 1.000000 0.000000 0.000000
vn 1.000000 0.000000 0.000000
vn 1.000000 0.000000 0.000000
vn 0.000000 0.971914 -0.235335
vn 0.000000 0.971914 -0.235335
vn 0.000000 1.000000 0.000000
vn 0.000000 1.000000 0.000000
vn -1.000000 0.000000 0.000000
vn -1.000000 0.000000 0.000000
vn -1.000000 0.000000 0.000000
vn -1.000000 0.000000 0.000000
vn -1.000000 0.000000 0.000000
vn -1.000000 0.000000 0.000000
vn -1.000000 0.000000 0.000000
vn -1.000000 0.000000 0.000000
s 1
g straightRamp_B_3x3
usemtl lambert6SG
f 2/1/1 31/2/2 32/3/3 4/4/4
s 2
f 40/13/5 1/14/6 3/15/7 39/16/8
s 3
usemtl lambert5SG
f 11/41/9 9/42/10 35/43/11 36/44/12
s 4
usemtl lambert6SG
f 39/16/13 3/15/14 13/17/15 38/18/16
s 5
f 4/4/17 32/3/18 33/7/19 17/8/20
s 6
f 35/25/21 9/26/22 19/27/23 34/28/24
s 7
f 11/33/25 36/34/26 37/35/27 14/36/28
s 8
f 14/49/29 37/50/30 38/51/31 13/52/32
s 9
f 33/57/33 34/58/34 19/59/35 17/60/36
s 1
f 21/5/37 8/9/38 6/10/39 22/6/40
s 5
f 23/11/41 22/6/42 6/10/43 18/12/44
s 9
f 18/63/45 20/64/46 24/62/47 23/61/48
s 6
f 10/31/49 25/29/50 24/30/51 20/32/52
s 3
usemtl lambert5SG
f 26/46/53 25/45/54 10/47/55 12/48/56
s 7
usemtl lambert6SG
f 27/38/57 26/37/58 12/39/59 16/40/60
s 8
f 28/54/61 27/53/62 16/55/63 15/56/64
s 4
f 5/23/65 29/20/66 28/21/67 15/24/68
s 2
f 7/22/69 30/19/70 29/20/71 5/23/72
s 1
f 31/2/2 21/5/37 22/6/40 32/3/3
s 5
f 33/7/19 32/3/18 22/6/42 23/11/41
s 9
f 23/61/48 24/62/47 34/58/34 33/57/33
s 6
f 25/29/50 35/25/21 34/28/24 24/30/51
s 3
usemtl lambert5SG
f 36/44/12 35/43/11 25/45/54 26/46/53
s 7
usemtl lambert6SG
f 37/35/27 36/34/26 26/37/58 27/38/57
s 8
f 38/51/31 37/50/30 27/53/62 28/54/61
s 4
f 29/20/66 39/16/13 38/18/16 28/21/67
s 2
f 30/19/70 40/13/5 39/16/8 29/20/71
