# This file uses centimeters as units for non-parametric coordinates.

mtllib straightDipRamp_B_3x3.mtl
g default
v -3.000000 0.000000 0.000000
v 0.000000 0.000000 0.000000
v -3.000000 0.190000 0.000000
v 0.000000 0.190000 0.000000
v -3.000000 0.190000 -3.000000
v 0.000000 0.190000 -3.000000
v -3.000000 0.000000 -3.000000
v 0.000000 0.000000 -3.000000
v -0.107075 0.190000 0.000000
v -0.107075 0.190000 -3.000000
v -2.892925 0.190000 0.000000
v -2.892925 0.190000 -3.000000
v -3.000000 0.321460 0.000000
v -2.892925 0.321460 0.000000
v -3.000000 0.321460 -3.000000
v -2.892925 0.321460 -3.000000
v 0.000000 0.321460 0.000000
v 0.000000 0.321460 -3.000000
v -0.107075 0.321460 0.000000
v -0.107075 0.321460 -3.000000
v 0.000000 -0.504494 -2.057808
v 0.000000 -0.314494 -2.057808
v 0.000000 -0.183034 -2.057808
v -0.107075 -0.183034 -2.057808
v -0.107075 -0.314494 -2.057808
v -2.892925 -0.314494 -2.057808
v -2.892925 -0.183034 -2.057808
v -3.000000 -0.183034 -2.057808
v -3.000000 -0.314494 -2.057808
v -3.000000 -0.504494 -2.057808
v 0.000000 -0.504494 -0.942192
v 0.000000 -0.314494 -0.942192
v 0.000000 -0.183034 -0.942192
v -0.107075 -0.183034 -0.942192
v -0.107075 -0.314494 -0.942192
v -2.892925 -0.314494 -0.942192
v -2.892925 -0.183034 -0.942192
v -3.000000 -0.183034 -0.942192
v -3.000000 -0.314494 -0.942192
v -3.000000 -0.504494 -0.942192
vt 0.083492 -0.507093
vt 0.001992 -0.642286
vt 0.032686 -0.642286
vt 0.114186 -0.507093
vt 0.001992 -0.856546
vt 0.032686 -0.856546
vt 0.053923 -0.642286
vt 0.135423 -0.507093
vt 0.083492 -0.991738
vt 0.114186 -0.991738
vt 0.053923 -0.856546
vt 0.135423 -0.991738
vt 0.142512 -0.856545
vt 0.224012 -0.991738
vt 0.254706 -0.991738
vt 0.173206 -0.856545
vt 0.275943 -0.991738
vt 0.194443 -0.856545
vt 0.142512 -0.642286
vt 0.173206 -0.642286
vt 0.194443 -0.642286
vt 0.224012 -0.507093
vt 0.254706 -0.507093
vt 0.275943 -0.507093
vt 0.740840 -0.856545
vt 0.822340 -0.991738
vt 0.843577 -0.991738
vt 0.762077 -0.856545
vt 0.740840 -0.642286
vt 0.762077 -0.642286
vt 0.822340 -0.507093
vt 0.843577 -0.507093
vt 0.931481 -0.507093
vt 0.849981 -0.642286
vt 0.871218 -0.642286
vt 0.952718 -0.507093
vt 0.849981 -0.856546
vt 0.871218 -0.856546
vt 0.931481 -0.991738
vt 0.952718 -0.991738
vt 0.998008 -0.153650
vt 0.980710 -0.153650
vt 0.980710 -0.367909
vt 0.998008 -0.367909
vt 0.998008 -0.018457
vt 0.980710 -0.018457
vt 0.980710 -0.503102
vt 0.998008 -0.503102
vt 0.250000 0.500000
vt 1.000000 0.500000
vt 1.000000 0.750000
vt 0.250000 0.750000
vt 0.250000 0.250000
vt 1.000000 0.250000
vt 1.000000 1.000000
vt 0.250000 1.000000
vt 0.959122 -0.856545
vt 0.976420 -0.856545
vt 0.976420 -0.642286
vt 0.959122 -0.642286
vt 0.976420 -0.991738
vt 0.959122 -0.991738
vt 0.976420 -0.507093
vt 0.959122 -0.507093
vn 1.000000 0.000000 0.000000
vn 1.000000 0.000000 0.000000
vn 1.000000 0.000000 0.000000
vn 1.000000 0.000000 0.000000
vn -1.000000 0.000000 0.000000
vn -1.000000 0.000000 0.000000
vn -1.000000 0.000000 0.000000
vn -1.000000 0.000000 0.000000
vn 0.000000 1.000000 0.000000
vn 0.000000 1.000000 0.000000
vn 0.000000 0.971238 -0.238110
vn 0.000000 0.971238 -0.238110
vn -1.000000 0.000000 0.000000
vn -1.000000 0.000000 0.000000
vn -1.000000 0.000000 0.000000
vn -1.000000 0.000000 0.000000
vn 1.000000 0.000000 0.000000
vn 1.000000 0.000000 0.000000
vn 1.000000 0.000000 0.000000
vn 1.000000 0.000000 0.000000
vn -1.000000 0.000000 0.000000
vn -1.000000 0.000000 0.000000
vn -1.000000 0.000000 0.000000
vn -1.000000 0.000000 0.000000
vn 1.000000 0.000000 0.000000
vn 1.000000 0.000000 0.000000
vn 1.000000 0.000000 0.000000
vn 1.000000 0.000000 0.000000
vn 0.000000 1.000000 0.000000
vn 0.000000 0.971238 -0.238110
vn 0.000000 0.971238 -0.238110
vn 0.000000 1.000000 0.000000
vn 0.000000 0.971238 -0.238110
vn 0.000000 0.971238 -0.238110
vn 0.000000 1.000000 0.000000
vn 0.000000 1.000000 0.000000
vn 1.000000 0.000000 0.000000
vn 1.000000 0.000000 0.000000
vn 1.000000 0.000000 0.000000
vn 1.000000 0.000000 0.000000
vn 1.000000 0.000000 0.000000
vn 1.000000 0.000000 0.000000
vn 1.000000 0.000000 0.000000
vn 1.000000 0.000000 0.000000
vn 0.000000 1.000000 0.000000
vn 0.000000 1.000000 0.000000
vn 0.000000 0.971238 0.238110
vn 0.000000 0.971238 0.238110
vn -1.000000 0.000000 0.000000
vn -1.000000 0.000000 0.000000
vn -1.000000 0.000000 0.000000
vn -1.000000 0.000000 0.000000
vn 0.000000 0.971238 0.238110
vn 0.000000 0.971238 0.238110
vn 0.000000 1.000000 0.000000
vn 0.000000 1.000000 0.000000
vn 1.000000 0.000000 0.000000
vn 1.000000 0.000000 0.000000
vn 1.000000 0.000000 0.000000
vn 1.000000 0.000000 0.000000
vn 0.000000 0.971238 0.238110
vn 0.000000 0.971238 0.238110
vn 0.000000 1.000000 0.000000
vn 0.000000 1.000000 0.000000
vn -1.000000 0.000000 0.000000
vn -1.000000 0.000000 0.000000
vn -1.000000 0.000000 0.000000
vn -1.000000 0.000000 0.000000
vn -1.000000 0.000000 0.000000
vn -1.000000 0.000000 0.000000
vn -1.000000 0.000000 0.000000
vn -1.000000 0.000000 0.000000
s 1
g straightDipRamp_B_3x3
usemtl lambert6SG
f 2/1/1 31/2/2 32/3/3 4/4/4
s 2
f 40/13/5 1/14/6 3/15/7 39/16/8
s 3
usemtl lambert5SG
f 11/53/9 9/54/10 35/50/11 36/49/12
s 4
usemtl lambert6SG
f 39/16/13 3/15/14 13/17/15 38/18/16
s 5
f 4/4/17 32/3/18 33/7/19 17/8/20
s 6
f 35/25/21 9/26/22 19/27/23 34/28/24
s 7
f 11/33/25 36/34/26 37/35/27 14/36/28
s 8
f 14/61/29 37/58/30 38/57/31 13/62/32
s 9
f 33/44/33 34/43/34 19/47/35 17/48/36
s 1
f 21/5/37 8/9/38 6/10/39 22/6/40
s 5
f 23/11/41 22/6/42 6/10/43 18/12/44
s 9
f 18/45/45 20/46/46 24/42/47 23/41/48
s 6
f 10/31/49 25/29/50 24/30/51 20/32/52
s 3
usemtl lambert5SG
f 26/52/53 25/51/54 10/55/55 12/56/56
s 7
usemtl lambert6SG
f 27/38/57 26/37/58 12/39/59 16/40/60
s 8
f 28/60/61 27/59/62 16/63/63 15/64/64
s 4
f 5/23/65 29/20/66 28/21/67 15/24/68
s 2
f 7/22/69 30/19/70 29/20/71 5/23/72
s 1
f 31/2/2 21/5/37 22/6/40 32/3/3
s 5
f 33/7/19 32/3/18 22/6/42 23/11/41
s 9
f 23/41/48 24/42/47 34/43/34 33/44/33
s 6
f 25/29/50 35/25/21 34/28/24 24/30/51
s 3
usemtl lambert5SG
f 36/49/12 35/50/11 25/51/54 26/52/53
s 7
usemtl lambert6SG
f 37/35/27 36/34/26 26/37/58 27/38/57
s 8
f 38/57/31 37/58/30 27/59/62 28/60/61
s 4
f 29/20/66 39/16/13 38/18/16 28/21/67
s 2
f 30/19/70 40/13/5 39/16/8 29/20/71
