# This file uses centimeters as units for non-parametric coordinates.

mtllib twoRamp_A_3x3.mtl
g default
v -3.000000 0.000000 0.000000
v 0.000000 0.000000 0.000000
v -3.000000 0.190000 0.000000
v 0.000000 0.190000 0.000000
v -3.000000 0.190000 -3.000000
v 0.000000 0.190000 -3.000000
v -3.000000 0.000000 -3.000000
v 0.000000 0.000000 -3.000000
v -0.107075 0.190000 0.000000
v -0.107075 0.190000 -3.000000
v -2.892925 0.190000 0.000000
v -2.892925 0.190000 -3.000000
v -3.000000 0.321460 0.000000
v -2.892925 0.321460 0.000000
v -3.000000 0.321460 -3.000000
v -2.892925 0.321460 -3.000000
v 0.000000 0.321460 0.000000
v 0.000000 0.321460 -3.000000
v -0.107075 0.321460 0.000000
v -0.107075 0.321460 -3.000000
v 0.000000 0.000000 -2.062136
v 0.000000 0.689317 -2.062136
v 0.000000 0.820777 -2.062136
v -0.107075 0.820777 -2.062136
v -0.107075 0.689317 -2.062136
v -2.892925 0.689317 -2.062136
v -2.892925 0.820777 -2.062136
v -3.000000 0.820777 -2.062136
v -3.000000 0.689317 -2.062136
v -3.000000 0.000000 -2.062136
v 0.000000 0.000000 -0.937863
v 0.000000 0.689317 -0.937863
v 0.000000 0.820777 -0.937863
v -0.107075 0.820777 -0.937863
v -0.107075 0.689317 -0.937863
v -2.892925 0.689317 -0.937863
v -2.892925 0.820777 -0.937863
v -3.000000 0.820777 -0.937863
v -3.000000 0.689317 -0.937863
v -3.000000 0.000000 -0.937863
v -1.500000 0.190000 -3.000000
v -1.500000 0.689317 -2.062136
v -1.500000 0.689317 -0.937863
v -1.500000 0.190000 0.000000
v -2.892925 -0.261350 -2.062136
v -1.500000 -0.261350 -2.062136
v -2.892925 -0.261350 -0.937863
v -1.500000 -0.261350 -0.937863
v -2.892925 -0.261350 -0.937863
v -1.500000 -0.261350 -0.937863
vt 0.001992 -0.386509
vt 0.001992 -0.556018
vt 0.126579 -0.556018
vt 0.036333 -0.386509
vt 0.001992 -0.759218
vt 0.126579 -0.759218
vt 0.150338 -0.556018
vt 0.060092 -0.386509
vt 0.001992 -0.928727
vt 0.036333 -0.928727
vt 0.150338 -0.759218
vt 0.060092 -0.928727
vt 0.158103 -0.759218
vt 0.158103 -0.928727
vt 0.192444 -0.928727
vt 0.282690 -0.759218
vt 0.216204 -0.928727
vt 0.306450 -0.759218
vt 0.158103 -0.556018
vt 0.282690 -0.556018
vt 0.306450 -0.556018
vt 0.158103 -0.386509
vt 0.192444 -0.386509
vt 0.216204 -0.386509
vt 0.663476 -0.759218
vt 0.573230 -0.928727
vt 0.596990 -0.928727
vt 0.687236 -0.759218
vt 0.663476 -0.556018
vt 0.687236 -0.556018
vt 0.573230 -0.386509
vt 0.596990 -0.386509
vt 0.775642 -0.386509
vt 0.865888 -0.556018
vt 0.889648 -0.556018
vt 0.799402 -0.386509
vt 0.694065 -0.556018
vt 0.865888 -0.759218
vt 0.889648 -0.759218
vt 0.694065 -0.556018
vt 0.694065 -0.759218
vt 0.775642 -0.928727
vt 0.799402 -0.928727
vt 0.998008 -0.179317
vt 0.907762 -0.009809
vt 0.826185 -0.179317
vt 0.998008 -0.382518
vt 0.826185 -0.382518
vt 0.386515 -0.300941
vt 0.217006 -0.210695
vt 0.217006 -0.382518
vt 0.378467 1.000000
vt -0.000000 1.000000
vt 0.000000 0.762927
vt 0.378467 0.762927
vt 0.000000 0.486263
vt 0.378467 0.486263
vt 0.000000 0.250000
vt 0.378467 0.250000
vt 0.916109 -0.928727
vt 0.916109 -0.759218
vt 0.896756 -0.759218
vt 0.896756 -0.928727
vt 0.916109 -0.556018
vt 0.896756 -0.556018
vt 0.916109 -0.386509
vt 0.896756 -0.386509
vt 0.943394 -0.759218
vt 0.924042 -0.759218
vt 0.924042 -0.928727
vt 0.943394 -0.928727
vt 0.943394 -0.556018
vt 0.924042 -0.556018
vt 0.943394 -0.386509
vt 0.924042 -0.386509
vt 0.750000 0.249020
vt 0.750000 0.481145
vt 0.378467 0.486263
vt 0.378467 0.250000
vt 0.750000 0.761994
vt 0.378467 0.761994
vt 0.750000 0.761994
vt 0.750000 1.000000
vt 0.378467 1.000000
vt 0.378467 0.761994
vn 1.000000 0.000000 0.000000
vn 1.000000 0.000000 0.000000
vn 1.000000 0.000000 0.000000
vn 1.000000 0.000000 0.000000
vn -1.000000 0.000000 0.000000
vn -1.000000 0.000000 0.000000
vn -1.000000 0.000000 0.000000
vn -1.000000 0.000000 0.000000
vn 0.000000 0.882695 0.469946
vn 0.000000 0.882695 0.469946
vn 0.000000 0.971914 0.235335
vn 0.000000 0.971914 0.235335
vn -1.000000 0.000000 0.000000
vn -1.000000 0.000000 0.000000
vn -1.000000 0.000000 0.000000
vn -1.000000 0.000000 0.000000
vn 1.000000 0.000000 0.000000
vn 1.000000 0.000000 0.000000
vn 1.000000 0.000000 0.000000
vn 1.000000 0.000000 0.000000
vn -1.000000 0.000000 0.000000
vn -1.000000 0.000000 0.000000
vn -1.000000 0.000000 0.000000
vn -1.000000 0.000000 0.000000
vn 1.000000 0.000000 0.000000
vn 1.000000 0.000000 0.000000
vn 1.000000 0.000000 0.000000
vn 1.000000 0.000000 0.000000
vn 0.000000 0.882695 0.469945
vn 0.000000 0.971914 0.235335
vn 0.000000 0.971914 0.235335
vn 0.000000 0.882695 0.469945
vn 0.000000 0.971914 0.235335
vn 0.000000 0.971914 0.235335
vn 0.000000 0.882695 0.469945
vn 0.000000 0.882695 0.469945
vn 1.000000 0.000000 0.000000
vn 1.000000 0.000000 0.000000
vn 1.000000 0.000000 0.000000
vn 1.000000 0.000000 0.000000
vn 1.000000 0.000000 0.000000
vn 1.000000 0.000000 0.000000
vn 1.000000 0.000000 0.000000
vn 1.000000 0.000000 0.000000
vn 0.000000 0.882696 -0.469945
vn 0.000000 0.882696 -0.469945
vn 0.000000 0.971914 -0.235335
vn 0.000000 0.971914 -0.235335
vn -1.000000 0.000000 0.000000
vn -1.000000 0.000000 0.000000
vn -1.000000 0.000000 0.000000
vn -1.000000 0.000000 0.000000
vn 0.000000 0.971914 -0.235335
vn 0.000000 0.971914 -0.235335
vn 0.000000 0.882695 -0.469945
vn 0.000000 0.882695 -0.469945
vn 1.000000 0.000000 0.000000
vn 1.000000 0.000000 0.000000
vn 1.000000 0.000000 0.000000
vn 1.000000 0.000000 0.000000
vn 0.000000 0.971914 -0.235335
vn 0.000000 0.971914 -0.235335
vn 0.000000 0.882695 -0.469945
vn 0.000000 0.882695 -0.469945
vn -1.000000 0.000000 0.000000
vn -1.000000 0.000000 0.000000
vn -1.000000 0.000000 0.000000
vn -1.000000 0.000000 0.000000
vn -1.000000 0.000000 0.000000
vn -1.000000 0.000000 0.000000
vn -1.000000 0.000000 0.000000
vn -1.000000 0.000000 0.000000
vn 1.000000 0.000000 0.000000
vn 1.000000 0.000000 0.000000
vn 1.000000 0.000000 0.000000
vn -1.000000 0.000000 0.000000
vn -1.000000 0.000000 0.000000
vn -1.000000 0.000000 0.000000
vn 1.000000 0.000000 0.000000
vn 1.000000 0.000000 0.000000
vn 1.000000 0.000000 0.000000
vn 1.000000 0.000000 0.000000
vn -1.000000 0.000000 0.000000
vn -1.000000 0.000000 0.000000
vn -1.000000 0.000000 0.000000
vn -1.000000 0.000000 0.000000
vn 1.000000 0.000000 0.000000
vn 1.000000 0.000000 0.000000
vn 1.000000 0.000000 0.000000
vn -1.000000 0.000000 0.000000
vn -1.000000 0.000000 0.000000
vn -1.000000 0.000000 0.000000
vn 0.000000 0.901082 0.433649
vn 0.000000 0.901082 0.433649
vn 0.000000 0.901082 0.433649
vn 0.000000 0.901082 0.433649
vn -0.000000 1.000000 0.000000
vn -0.000000 1.000000 0.000000
vn -0.000000 1.000000 0.000000
vn -0.000000 1.000000 0.000000
vn 0.000000 0.901082 -0.433649
vn 0.000000 0.901082 -0.433649
vn 0.000000 0.901082 -0.433649
vn 0.000000 0.901082 -0.433649
s 1
g twoRamp_A_3x3
usemtl lambert6SG
f 2/1/1 31/2/2 32/3/3 4/4/4
s 2
f 40/13/5 1/14/6 3/15/7 39/16/8
s 3
usemtl lambert5SG
f 44/52/9 9/53/10 35/54/11 43/55/12
s 4
usemtl lambert6SG
f 39/16/13 3/15/14 13/17/15 38/18/16
s 5
f 4/4/17 32/3/18 33/7/19 17/8/20
s 6
f 35/25/21 9/26/22 19/27/23 34/28/24
s 7
f 11/33/25 36/34/26 37/35/27 14/36/28
s 8
f 14/60/29 37/61/30 38/62/31 13/63/32
s 9
f 33/68/33 34/69/34 19/70/35 17/71/36
s 1
f 21/5/37 8/9/38 6/10/39 22/6/40
s 5
f 23/11/41 22/6/42 6/10/43 18/12/44
s 9
f 18/74/45 20/75/46 24/73/47 23/72/48
s 6
f 10/31/49 25/29/50 24/30/51 20/32/52
s 3
usemtl lambert5SG
f 42/57/53 25/56/54 10/58/55 41/59/56
s 7
usemtl lambert6SG
f 27/39/57 26/38/58 12/42/59 16/43/60
s 8
f 28/65/61 27/64/62 16/66/63 15/67/64
s 4
f 5/23/65 29/20/66 28/21/67 15/24/68
s 2
f 7/22/69 30/19/70 29/20/71 5/23/72
s 1
f 31/2/2 21/5/37 22/6/40 32/3/3
s 5
f 33/7/19 32/3/18 22/6/42 23/11/41
s 9
f 23/72/48 24/73/47 34/69/34 33/68/33
s 6
f 25/29/50 35/25/21 34/28/24 24/30/51
s 3
usemtl lambert5SG
f 43/55/12 35/54/11 25/56/54 42/57/53
s 7
usemtl lambert6SG
f 37/35/27 36/34/26 26/38/58 27/39/57
s 8
f 38/62/31 37/61/30 27/64/62 28/65/61
s 4
f 29/20/66 39/16/13 38/18/16 28/21/67
s 2
f 30/19/70 40/13/5 39/16/8 29/20/71
s off
f 12/42/73 26/38/74 45/41/75
usemtl flag_whiteSG
f 42/44/76 41/45/77 46/46/78
usemtl lambert6SG
f 26/38/79 36/34/80 47/40/81 45/41/82
usemtl flag_whiteSG
f 43/47/83 42/44/84 46/46/85 48/48/86
usemtl lambert6SG
f 36/34/87 11/33/88 49/37/89
usemtl flag_whiteSG
f 44/49/90 43/50/91 50/51/92
usemtl lambert5SG
f 12/76/93 45/77/94 46/78/95 41/79/96
f 45/77/97 47/80/98 48/81/99 46/78/100
f 49/82/101 11/83/102 44/84/103 50/85/104
