# This file uses centimeters as units for non-parametric coordinates.

mtllib blank_A_1x3.mtl
g default
v -3.000000 0.000000 0.000000
v 0.000000 0.000000 0.000000
v -3.000000 0.190000 0.000000
v 0.000000 0.190000 0.000000
v -3.000000 0.190000 -1.000000
v 0.000000 0.190000 -1.000000
v -3.000000 0.000000 -1.000000
v 0.000000 0.000000 -1.000000
v -0.107075 0.190000 0.000000
v -0.107075 0.190000 -1.000000
v -2.892925 0.190000 0.000000
v -2.892925 0.190000 -1.000000
v -3.000000 0.321460 0.000000
v -2.892925 0.321460 0.000000
v -3.000000 0.321460 -1.000000
v -2.892925 0.321460 -1.000000
v 0.000000 0.321460 0.000000
v 0.000000 0.321460 -1.000000
v -0.107075 0.321460 0.000000
v -0.107075 0.321460 -1.000000
vt 0.404053 -0.361737
vt 0.404053 -0.719263
vt 0.471983 -0.719263
vt 0.471983 -0.361737
vt 0.518983 -0.719263
vt 0.518983 -0.361737
vt 0.525747 -0.361737
vt 0.525747 -0.719263
vt 0.593677 -0.719263
vt 0.593677 -0.361737
vt 0.640677 -0.719263
vt 0.640677 -0.361737
vt 0.647441 -0.361737
vt 0.647441 -0.719263
vt 0.694441 -0.719263
vt 0.694441 -0.361737
vt 0.701129 -0.361737
vt 0.701129 -0.719263
vt 0.748129 -0.719263
vt 0.748129 -0.361737
vt 0.750000 1.000000
vt 0.000000 1.000000
vt -0.000000 0.750000
vt 0.750000 0.750000
vt 0.793100 -0.719263
vt 0.793100 -0.361737
vt 0.754818 -0.361737
vt 0.754818 -0.719263
vt 0.837840 -0.361737
vt 0.799558 -0.361737
vt 0.799558 -0.719263
vt 0.837840 -0.719263
vn 1.000000 0.000000 0.000000
vn 1.000000 0.000000 0.000000
vn 1.000000 0.000000 0.000000
vn 1.000000 0.000000 0.000000
vn -1.000000 0.000000 0.000000
vn -1.000000 0.000000 0.000000
vn -1.000000 0.000000 0.000000
vn -1.000000 0.000000 0.000000
vn 0.000000 1.000000 0.000000
vn 0.000000 1.000000 0.000000
vn 0.000000 1.000000 0.000000
vn 0.000000 1.000000 0.000000
vn -1.000000 0.000000 0.000000
vn -1.000000 0.000000 0.000000
vn -1.000000 0.000000 0.000000
vn -1.000000 0.000000 0.000000
vn 1.000000 0.000000 0.000000
vn 1.000000 0.000000 0.000000
vn 1.000000 0.000000 0.000000
vn 1.000000 0.000000 0.000000
vn -1.000000 0.000000 0.000000
vn -1.000000 0.000000 0.000000
vn -1.000000 0.000000 0.000000
vn -1.000000 0.000000 0.000000
vn 1.000000 0.000000 0.000000
vn 1.000000 0.000000 0.000000
vn 1.000000 0.000000 0.000000
vn 1.000000 0.000000 0.000000
vn 0.000000 1.000000 0.000000
vn 0.000000 1.000000 0.000000
vn 0.000000 1.000000 0.000000
vn 0.000000 1.000000 0.000000
vn 0.000000 1.000000 0.000000
vn 0.000000 1.000000 0.000000
vn 0.000000 1.000000 0.000000
vn 0.000000 1.000000 0.000000
s off
g modelPanel2ViewSelectedSet blank_A_1x3
usemtl lambert6SG
f 2/1/1 8/2/2 6/3/3 4/4/4
f 7/7/5 1/8/6 3/9/7 5/10/8
usemtl lambert5SG
f 11/21/9 9/22/10 10/23/11 12/24/12
usemtl lambert6SG
f 5/10/13 3/9/14 13/11/15 15/12/16
f 4/4/17 6/3/18 18/5/19 17/6/20
f 10/13/21 9/14/22 19/15/23 20/16/24
f 11/17/25 12/18/26 16/19/27 14/20/28
f 14/25/29 16/26/30 15/27/31 13/28/32
f 18/29/33 20/30/34 19/31/35 17/32/36
