# This file uses centimeters as units for non-parametric coordinates.

mtllib edgeTriangle.mtl
g default
v 0.990678 0.000000 -0.000000
v 0.990678 0.321460 -0.000000
v 0.000000 0.321460 0.611452
v 0.000000 0.321460 -0.611452
v 0.000000 0.000000 0.611452
v 0.000000 0.000000 -0.611452
vt 0.500000 0.000000
vt 0.500000 0.250000
vt 0.375000 0.500000
vt 0.625000 0.500000
vt 0.375000 0.750000
vt 0.625000 0.750000
vt 0.500000 1.000000
vt 0.875000 0.000000
vt 0.875000 0.250000
vt 0.125000 0.000000
vt 0.125000 0.250000
vn 0.000000 1.000000 0.000000
vn 0.000000 1.000000 0.000000
vn 0.000000 1.000000 0.000000
vn -1.000000 0.000000 0.000000
vn -1.000000 0.000000 0.000000
vn -1.000000 0.000000 0.000000
vn -1.000000 0.000000 0.000000
vn 0.000000 -1.000000 0.000000
vn 0.000000 -1.000000 0.000000
vn 0.000000 -1.000000 0.000000
vn 0.525221 0.000000 -0.850966
vn 0.525221 0.000000 -0.850966
vn 0.525221 0.000000 -0.850966
vn 0.525221 0.000000 -0.850966
vn 0.525221 0.000000 0.850966
vn 0.525221 0.000000 0.850966
vn 0.525221 0.000000 0.850966
vn 0.525221 0.000000 0.850966
s off
g edgeTriangle
usemtl lambert6SG
f 2/2/1 4/4/2 3/3/3
f 3/3/4 4/4/5 6/6/6 5/5/7
f 5/5/8 6/6/9 1/7/10
f 1/1/11 6/8/12 4/9/13 2/2/14
f 5/10/15 1/1/16 2/2/17 3/11/18
