# This file uses centimeters as units for non-parametric coordinates.

g default
v 0.097618 0.210528 0.000000
v 0.092841 0.210528 -0.030166
v 0.078975 0.210528 -0.057381
v 0.057378 0.210528 -0.078976
v 0.030165 0.210528 -0.092844
v -0.000001 0.210528 -0.097619
v -0.030166 0.210528 -0.092844
v -0.057380 0.210528 -0.078976
v -0.078976 0.210528 -0.057381
v -0.092842 0.210528 -0.030166
v -0.097620 0.210528 0.000000
v -0.092842 0.210528 0.030166
v -0.078976 0.210528 0.057378
v -0.057381 0.210528 0.078976
v -0.030166 0.210528 0.092841
v -0.000001 0.210528 0.097619
v 0.030165 0.210528 0.092841
v 0.057379 0.210528 0.078976
v 0.078975 0.210528 0.057378
v 0.092841 0.210528 0.030166
v 0.097618 0.400528 0.000000
v 0.092841 0.400528 -0.030166
v 0.078975 0.400528 -0.057381
v 0.057378 0.400528 -0.078976
v 0.030165 0.400528 -0.092844
v -0.000001 0.400528 -0.097619
v -0.030166 0.400528 -0.092844
v -0.057380 0.400528 -0.078976
v -0.078976 0.400528 -0.057381
v -0.092842 0.400528 -0.030166
v -0.097620 0.400528 0.000000
v -0.092842 0.400528 0.030166
v -0.078976 0.400528 0.057378
v -0.057381 0.400528 0.078976
v -0.030166 0.400528 0.092841
v -0.000001 0.400528 0.097619
v 0.030165 0.400528 0.092841
v 0.057379 0.400528 0.078976
v 0.078975 0.400528 0.057378
v 0.092841 0.400528 0.030166
v 0.499424 0.400528 0.000000
v 0.499424 0.400528 -0.505587
v 0.499424 0.400528 -0.505587
v 0.499424 0.400528 -0.505587
v 0.499424 0.400528 -0.505587
v -0.000001 0.400528 -0.505587
v -0.500576 0.400528 -0.505587
v -0.500576 0.400528 -0.505587
v -0.500576 0.400528 -0.505587
v -0.500576 0.400528 -0.505587
v -0.500576 0.400528 0.000000
v -0.500576 0.400528 0.494413
v -0.500576 0.400528 0.494413
v -0.500576 0.400528 0.494413
v -0.500576 0.400528 0.494413
v -0.000001 0.400528 0.494413
v 0.499424 0.400528 0.494413
v 0.499424 0.400528 0.494413
v 0.499424 0.400528 0.494413
v 0.499424 0.400528 0.494413
v 0.499424 0.210528 0.000000
v 0.499424 0.210528 -0.505587
v 0.499424 0.210528 -0.505587
v 0.499424 0.210528 -0.505587
v 0.499424 0.210528 -0.505587
v -0.000001 0.210528 -0.505587
v -0.500576 0.210528 -0.505587
v -0.500576 0.210528 -0.505587
v -0.500576 0.210528 -0.505587
v -0.500576 0.210528 -0.505587
v -0.500576 0.210528 0.000000
v -0.500576 0.210528 0.494413
v -0.500576 0.210528 0.494413
v -0.500576 0.210528 0.494413
v -0.500576 0.210528 0.494413
v -0.000001 0.210528 0.494413
v 0.499424 0.210528 0.494413
v 0.499424 0.210528 0.494413
v 0.499424 0.210528 0.494413
v 0.499424 0.210528 0.494413
v 0.097618 0.000000 0.000000
v 0.092841 0.000000 -0.030166
v 0.078975 0.000000 -0.057381
v 0.057378 0.000000 -0.078976
v 0.030165 0.000000 -0.092844
v -0.000001 0.000000 -0.097619
v -0.030166 0.000000 -0.092844
v -0.057380 0.000000 -0.078976
v -0.078976 0.000000 -0.057381
v -0.092842 0.000000 -0.030166
v -0.097620 0.000000 0.000000
v -0.092842 0.000000 0.030166
v -0.078976 0.000000 0.057378
v -0.057381 0.000000 0.078976
v -0.030166 0.000000 0.092841
v -0.000001 0.000000 0.097619
v 0.030165 0.000000 0.092841
v 0.057379 0.000000 0.078976
v 0.078975 0.000000 0.057378
v 0.092841 0.000000 0.030166
vt 0.000000 1.000000
vt 0.050000 1.000000
vt 0.100000 1.000000
vt 0.150000 1.000000
vt 0.200000 1.000000
vt 0.250000 1.000000
vt 0.300000 1.000000
vt 0.350000 1.000000
vt 0.400000 1.000000
vt 0.450000 1.000000
vt 0.500000 1.000000
vt 0.550000 1.000000
vt 0.600000 1.000000
vt 0.650000 1.000000
vt 0.700000 1.000000
vt 0.750000 1.000000
vt 0.800000 1.000000
vt 0.850000 1.000000
vt 0.900000 1.000000
vt 0.950000 1.000000
vt 1.000000 1.000000
vt 0.000000 0.750000
vt 0.050000 0.750000
vt 0.100000 0.750000
vt 0.150000 0.750000
vt 0.200000 0.750000
vt 0.250000 0.750000
vt 0.300000 0.750000
vt 0.350000 0.750000
vt 0.400000 0.750000
vt 0.450000 0.750000
vt 0.500000 0.750000
vt 0.550000 0.750000
vt 0.600000 0.750000
vt 0.650000 0.750000
vt 0.700000 0.750000
vt 0.750000 0.750000
vt 0.800000 0.750000
vt 0.850000 0.750000
vt 0.900000 0.750000
vt 0.950000 0.750000
vt 1.000000 0.750000
vt 0.000000 0.500000
vt 0.050000 0.500000
vt 0.100000 0.500000
vt 0.150000 0.500000
vt 0.200000 0.500000
vt 0.250000 0.500000
vt 0.300000 0.500000
vt 0.350000 0.500000
vt 0.400000 0.500000
vt 0.450000 0.500000
vt 0.500000 0.500000
vt 0.550000 0.500000
vt 0.600000 0.500000
vt 0.650000 0.500000
vt 0.700000 0.500000
vt 0.750000 0.500000
vt 0.800000 0.500000
vt 0.850000 0.500000
vt 0.900000 0.500000
vt 0.950000 0.500000
vt 1.000000 0.500000
vt 0.000000 0.250000
vt 0.050000 0.250000
vt 0.100000 0.250000
vt 0.150000 0.250000
vt 0.200000 0.250000
vt 0.250000 0.250000
vt 0.300000 0.250000
vt 0.350000 0.250000
vt 0.400000 0.250000
vt 0.450000 0.250000
vt 0.500000 0.250000
vt 0.550000 0.250000
vt 0.600000 0.250000
vt 0.650000 0.250000
vt 0.700000 0.250000
vt 0.750000 0.250000
vt 0.800000 0.250000
vt 0.850000 0.250000
vt 0.900000 0.250000
vt 0.950000 0.250000
vt 1.000000 0.250000
vt 0.000000 0.000000
vt 0.050000 0.000000
vt 0.100000 0.000000
vt 0.150000 0.000000
vt 0.200000 0.000000
vt 0.250000 0.000000
vt 0.300000 0.000000
vt 0.350000 0.000000
vt 0.400000 0.000000
vt 0.450000 0.000000
vt 0.500000 0.000000
vt 0.550000 0.000000
vt 0.600000 0.000000
vt 0.650000 0.000000
vt 0.700000 0.000000
vt 0.750000 0.000000
vt 0.800000 0.000000
vt 0.850000 0.000000
vt 0.900000 0.000000
vt 0.950000 0.000000
vt 1.000000 0.000000
vt 0.000000 0.000000
vt 1.000000 0.000000
vt 1.000000 1.000000
vt 0.000000 1.000000
vt 0.000000 0.000000
vt 1.000000 0.000000
vt 1.000000 1.000000
vt 0.000000 1.000000
vt 0.000000 0.000000
vt 1.000000 0.000000
vt 1.000000 1.000000
vt 0.000000 1.000000
vt 0.000000 0.000000
vt 1.000000 0.000000
vt 1.000000 1.000000
vt 0.000000 1.000000
vt 0.000000 0.000000
vt 1.000000 0.000000
vt 1.000000 1.000000
vt 0.000000 1.000000
vt 0.000000 0.000000
vt 1.000000 0.000000
vt 1.000000 1.000000
vt 0.000000 1.000000
vt 0.000000 0.000000
vt 1.000000 0.000000
vt 1.000000 1.000000
vt 0.000000 1.000000
vt 0.000000 0.000000
vt 1.000000 0.000000
vt 1.000000 1.000000
vt 0.000000 1.000000
vt 0.000000 0.000000
vt 1.000000 0.000000
vt 1.000000 1.000000
vt 0.000000 1.000000
vt 0.000000 0.000000
vt 1.000000 0.000000
vt 1.000000 1.000000
vt 0.000000 1.000000
vt 0.000000 0.000000
vt 1.000000 0.000000
vt 1.000000 1.000000
vt 0.000000 1.000000
vt 0.000000 0.000000
vt 1.000000 0.000000
vt 1.000000 1.000000
vt 0.000000 1.000000
vt 0.000000 0.000000
vt 1.000000 0.000000
vt 1.000000 1.000000
vt 0.000000 1.000000
vt 0.000000 0.000000
vt 1.000000 0.000000
vt 1.000000 1.000000
vt 0.000000 1.000000
vt 0.000000 0.000000
vt 1.000000 0.000000
vt 1.000000 1.000000
vt 0.000000 1.000000
vt 0.000000 0.000000
vt 1.000000 0.000000
vt 1.000000 1.000000
vt 0.000000 1.000000
vt 0.000000 0.000000
vt 1.000000 0.000000
vt 1.000000 1.000000
vt 0.000000 1.000000
vt 0.000000 0.000000
vt 1.000000 0.000000
vt 1.000000 1.000000
vt 0.000000 1.000000
vt 0.000000 0.000000
vt 1.000000 0.000000
vt 1.000000 1.000000
vt 0.000000 1.000000
vt 0.000000 0.000000
vt 1.000000 0.000000
vt 1.000000 1.000000
vt 0.000000 1.000000
vn -0.951061 0.000000 0.309005
vn -1.000000 0.000000 0.000000
vn -1.000000 0.000000 0.000000
vn -0.951061 0.000000 0.309005
vn -0.809009 0.000000 0.587796
vn -0.809009 0.000000 0.587796
vn -0.587796 0.000000 0.809009
vn -0.587796 0.000000 0.809009
vn -0.309012 0.000000 0.951058
vn -0.309012 0.000000 0.951058
vn -0.000000 0.000000 1.000000
vn -0.000000 0.000000 1.000000
vn 0.309015 0.000000 0.951057
vn 0.309015 0.000000 0.951057
vn 0.587796 0.000000 0.809009
vn 0.587796 0.000000 0.809009
vn 0.809021 0.000000 0.587780
vn 0.809021 0.000000 0.587780
vn 0.951057 0.000000 0.309016
vn 0.951057 0.000000 0.309016
vn 1.000000 0.000000 0.000000
vn 1.000000 0.000000 0.000000
vn 0.951052 0.000000 -0.309030
vn 0.951052 0.000000 -0.309030
vn 0.809027 0.000000 -0.587772
vn 0.809027 0.000000 -0.587772
vn 0.587796 0.000000 -0.809009
vn 0.587796 0.000000 -0.809009
vn 0.309012 0.000000 -0.951058
vn 0.309012 0.000000 -0.951058
vn -0.000000 0.000000 -1.000000
vn -0.000000 0.000000 -1.000000
vn -0.309005 0.000000 -0.951061
vn -0.309005 0.000000 -0.951061
vn -0.587796 0.000000 -0.809009
vn -0.587796 0.000000 -0.809009
vn -0.809021 0.000000 -0.587780
vn -0.809021 0.000000 -0.587780
vn -0.951056 0.000000 -0.309019
vn -0.951056 0.000000 -0.309019
vn 0.000000 1.000000 0.000000
vn 0.000000 1.000000 0.000000
vn 0.000000 1.000000 0.000000
vn 0.000000 1.000000 0.000000
vn 0.000000 1.000000 0.000000
vn 0.000000 0.000000 0.000000
vn 0.000000 1.000000 0.000000
vn 0.000000 0.000000 0.000000
vn 0.000000 1.000000 -0.000000
vn 0.000000 1.000000 -0.000000
vn 0.000000 1.000000 -0.000000
vn 0.000000 1.000000 -0.000000
vn 0.000000 1.000000 0.000000
vn 0.000000 1.000000 0.000000
vn 0.000000 1.000000 0.000000
vn 0.000000 0.000000 0.000000
vn 0.000000 1.000000 0.000000
vn 0.000000 0.000000 0.000000
vn 0.000000 1.000000 0.000000
vn 0.000000 1.000000 0.000000
vn 0.000000 1.000000 0.000000
vn 0.000000 1.000000 0.000000
vn 0.000000 1.000000 0.000000
vn 0.000000 1.000000 0.000000
vn 0.000000 1.000000 0.000000
vn 0.000000 0.000000 0.000000
vn 0.000000 1.000000 0.000000
vn 0.000000 0.000000 0.000000
vn 0.000000 1.000000 0.000000
vn 0.000000 1.000000 0.000000
vn 0.000000 1.000000 0.000000
vn 0.000000 1.000000 0.000000
vn 0.000000 1.000000 0.000000
vn 0.000000 1.000000 0.000000
vn 0.000000 1.000000 0.000000
vn 0.000000 0.000000 0.000000
vn 0.000000 1.000000 0.000000
vn 0.000000 0.000000 0.000000
vn 0.000000 1.000000 0.000000
vn 0.000000 1.000000 0.000000
vn 1.000000 0.000000 0.000000
vn 1.000000 0.000000 0.000000
vn 1.000000 0.000000 0.000000
vn 1.000000 0.000000 0.000000
vn 0.000000 0.000000 0.000000
vn 0.000000 0.000000 0.000000
vn 0.000000 0.000000 0.000000
vn 0.000000 0.000000 0.000000
vn 0.000000 0.000000 -1.000000
vn 0.000000 0.000000 -1.000000
vn 0.000000 0.000000 -1.000000
vn 0.000000 0.000000 -1.000000
vn 0.000000 0.000000 -1.000000
vn 0.000000 0.000000 -1.000000
vn 0.000000 0.000000 0.000000
vn 0.000000 0.000000 0.000000
vn 0.000000 0.000000 0.000000
vn 0.000000 0.000000 0.000000
vn -1.000000 0.000000 0.000000
vn -1.000000 0.000000 0.000000
vn -1.000000 0.000000 0.000000
vn -1.000000 0.000000 0.000000
vn -1.000000 0.000000 0.000000
vn -1.000000 0.000000 0.000000
vn 0.000000 0.000000 0.000000
vn 0.000000 0.000000 0.000000
vn 0.000000 0.000000 0.000000
vn 0.000000 0.000000 0.000000
vn 0.000000 0.000000 1.000000
vn 0.000000 0.000000 1.000000
vn 0.000000 0.000000 1.000000
vn 0.000000 0.000000 1.000000
vn 0.000000 0.000000 1.000000
vn 0.000000 0.000000 1.000000
vn 0.000000 0.000000 0.000000
vn 0.000000 0.000000 0.000000
vn 0.000000 0.000000 0.000000
vn 0.000000 0.000000 0.000000
vn 1.000000 0.000000 0.000000
vn 1.000000 0.000000 0.000000
vn 0.000000 -1.000000 -0.000000
vn 0.000000 -1.000000 0.000000
vn 0.000000 -1.000000 0.000000
vn 0.000000 -1.000000 -0.000000
vn 0.000000 -0.000000 -0.000000
vn 0.000000 -1.000000 -0.000000
vn 0.000000 -0.000000 0.000000
vn 0.000000 -1.000000 0.000000
vn 0.000000 -1.000000 -0.000000
vn 0.000000 -1.000000 -0.000000
vn 0.000000 -1.000000 -0.000000
vn 0.000000 -1.000000 -0.000000
vn 0.000000 -1.000000 0.000000
vn 0.000000 -1.000000 0.000000
vn 0.000000 -0.000000 0.000000
vn 0.000000 -1.000000 0.000000
vn 0.000000 -0.000000 0.000000
vn 0.000000 -1.000000 0.000000
vn 0.000000 -1.000000 0.000000
vn 0.000000 -1.000000 0.000000
vn 0.000000 -1.000000 0.000000
vn 0.000000 -1.000000 0.000000
vn 0.000000 -1.000000 0.000000
vn 0.000000 -1.000000 0.000000
vn 0.000000 -0.000000 0.000000
vn 0.000000 -1.000000 0.000000
vn 0.000000 -0.000000 0.000000
vn 0.000000 -1.000000 0.000000
vn 0.000000 -1.000000 0.000000
vn 0.000000 -1.000000 0.000000
vn 0.000000 -1.000000 0.000000
vn 0.000000 -1.000000 0.000000
vn 0.000000 -1.000000 0.000000
vn 0.000000 -1.000000 0.000000
vn 0.000000 -0.000000 -0.000000
vn 0.000000 -1.000000 -0.000000
vn 0.000000 -0.000000 0.000000
vn 0.000000 -1.000000 0.000000
vn 0.000000 -1.000000 0.000000
vn 0.000000 -1.000000 0.000000
vn -0.987693 0.000000 0.156405
vn -0.987693 0.000000 0.156405
vn -0.987693 0.000000 0.156405
vn -0.987693 0.000000 0.156405
vn -0.891007 0.000000 0.453990
vn -0.891007 0.000000 0.453990
vn -0.891007 0.000000 0.453990
vn -0.891007 0.000000 0.453990
vn -0.707082 0.000000 0.707131
vn -0.707082 0.000000 0.707131
vn -0.707082 0.000000 0.707131
vn -0.707082 0.000000 0.707131
vn -0.454049 0.000000 0.890977
vn -0.454049 0.000000 0.890977
vn -0.454049 0.000000 0.890977
vn -0.454049 0.000000 0.890977
vn -0.156358 0.000000 0.987701
vn -0.156358 0.000000 0.987701
vn -0.156358 0.000000 0.987701
vn -0.156358 0.000000 0.987701
vn 0.156365 0.000000 0.987699
vn 0.156365 0.000000 0.987699
vn 0.156365 0.000000 0.987699
vn 0.156365 0.000000 0.987699
vn 0.454039 0.000000 0.890982
vn 0.454039 0.000000 0.890982
vn 0.454039 0.000000 0.890982
vn 0.454039 0.000000 0.890982
vn 0.707094 0.000000 0.707119
vn 0.707094 0.000000 0.707119
vn 0.707094 0.000000 0.707119
vn 0.707094 0.000000 0.707119
vn 0.891017 0.000000 0.453970
vn 0.891017 0.000000 0.453970
vn 0.891017 0.000000 0.453970
vn 0.891017 0.000000 0.453970
vn 0.987685 0.000000 0.156453
vn 0.987685 0.000000 0.156453
vn 0.987685 0.000000 0.156453
vn 0.987685 0.000000 0.156453
vn 0.987685 0.000000 -0.156453
vn 0.987685 0.000000 -0.156453
vn 0.987685 0.000000 -0.156453
vn 0.987685 0.000000 -0.156453
vn 0.890997 0.000000 -0.454010
vn 0.890997 0.000000 -0.454010
vn 0.890997 0.000000 -0.454010
vn 0.890997 0.000000 -0.454010
vn 0.707156 0.000000 -0.707058
vn 0.707156 0.000000 -0.707058
vn 0.707156 0.000000 -0.707058
vn 0.707156 0.000000 -0.707058
vn 0.453951 0.000000 -0.891027
vn 0.453951 0.000000 -0.891027
vn 0.453951 0.000000 -0.891027
vn 0.453951 0.000000 -0.891027
vn 0.156461 0.000000 -0.987684
vn 0.156461 0.000000 -0.987684
vn 0.156461 0.000000 -0.987684
vn 0.156461 0.000000 -0.987684
vn -0.156453 0.000000 -0.987685
vn -0.156453 0.000000 -0.987685
vn -0.156453 0.000000 -0.987685
vn -0.156453 0.000000 -0.987685
vn -0.453951 0.000000 -0.891027
vn -0.453951 0.000000 -0.891027
vn -0.453951 0.000000 -0.891027
vn -0.453951 0.000000 -0.891027
vn -0.707156 0.000000 -0.707058
vn -0.707156 0.000000 -0.707058
vn -0.707156 0.000000 -0.707058
vn -0.707156 0.000000 -0.707058
vn -0.890987 0.000000 -0.454029
vn -0.890987 0.000000 -0.454029
vn -0.890987 0.000000 -0.454029
vn -0.890987 0.000000 -0.454029
vn -0.987693 0.000000 -0.156405
vn -0.987693 0.000000 -0.156405
vn -0.987693 0.000000 -0.156405
vn -0.987693 0.000000 -0.156405
vn 0.000000 1.000000 0.000000
vn 0.000000 1.000000 0.000000
vn 0.000000 1.000000 0.000000
vn 0.000000 1.000000 0.000000
vn 0.000000 1.000000 0.000000
vn 0.000000 1.000000 0.000000
vn 0.000000 1.000000 0.000000
vn 0.000000 1.000000 0.000000
vn 0.000000 1.000000 0.000000
vn 0.000000 1.000000 0.000000
vn 0.000000 1.000000 0.000000
vn 0.000000 1.000000 0.000000
vn 0.000000 1.000000 0.000000
vn 0.000000 1.000000 0.000000
vn 0.000000 1.000000 0.000000
vn 0.000000 1.000000 0.000000
vn 0.000000 1.000000 0.000000
vn 0.000000 1.000000 0.000000
vn 0.000000 1.000000 0.000000
vn 0.000000 1.000000 0.000000
s 1
g holeCollider
f 2/2/1 1/1/2 21/22/3 22/23/4
f 3/3/5 2/2/1 22/23/4 23/24/6
f 4/4/7 3/3/5 23/24/6 24/25/8
f 5/5/9 4/4/7 24/25/8 25/26/10
f 6/6/11 5/5/9 25/26/10 26/27/12
f 7/7/13 6/6/11 26/27/12 27/28/14
f 8/8/15 7/7/13 27/28/14 28/29/16
f 9/9/17 8/8/15 28/29/16 29/30/18
f 10/10/19 9/9/17 29/30/18 30/31/20
f 11/11/21 10/10/19 30/31/20 31/32/22
f 12/12/23 11/11/21 31/32/22 32/33/24
f 13/13/25 12/12/23 32/33/24 33/34/26
f 14/14/27 13/13/25 33/34/26 34/35/28
f 15/15/29 14/14/27 34/35/28 35/36/30
f 16/16/31 15/15/29 35/36/30 36/37/32
f 17/17/33 16/16/31 36/37/32 37/38/34
f 18/18/35 17/17/33 37/38/34 38/39/36
f 19/19/37 18/18/35 38/39/36 39/40/38
f 20/20/39 19/19/37 39/40/38 40/41/40
f 1/21/2 20/20/39 40/41/40 21/42/3
s 2
f 22/23/41 21/22/42 41/43/43 42/44/44
f 23/24/45 22/23/41 42/44/44 43/45/46
f 24/25/47 23/24/45 43/45/46 44/46/48
f 25/26/49 24/25/47 44/46/48 45/47/50
f 26/27/51 25/26/49 45/47/50 46/48/52
f 27/28/53 26/27/51 46/48/52 47/49/54
f 28/29/55 27/28/53 47/49/54 48/50/56
f 29/30/57 28/29/55 48/50/56 49/51/58
f 30/31/59 29/30/57 49/51/58 50/52/60
f 31/32/61 30/31/59 50/52/60 51/53/62
f 32/33/63 31/32/61 51/53/62 52/54/64
f 33/34/65 32/33/63 52/54/64 53/55/66
f 34/35/67 33/34/65 53/55/66 54/56/68
f 35/36/69 34/35/67 54/56/68 55/57/70
f 36/37/71 35/36/69 55/57/70 56/58/72
f 37/38/73 36/37/71 56/58/72 57/59/74
f 38/39/75 37/38/73 57/59/74 58/60/76
f 39/40/77 38/39/75 58/60/76 59/61/78
f 40/41/79 39/40/77 59/61/78 60/62/80
f 21/42/42 40/41/79 60/62/80 41/63/43
s 3
f 42/44/81 41/43/82 61/64/83 62/65/84
f 43/45/85 42/44/81 62/65/84 63/66/86
f 44/46/87 43/45/85 63/66/86 64/67/88
f 45/47/89 44/46/87 64/67/88 65/68/90
f 46/48/91 45/47/89 65/68/90 66/69/92
f 47/49/93 46/48/91 66/69/92 67/70/94
f 48/50/95 47/49/93 67/70/94 68/71/96
f 49/51/97 48/50/95 68/71/96 69/72/98
f 50/52/99 49/51/97 69/72/98 70/73/100
f 51/53/101 50/52/99 70/73/100 71/74/102
f 52/54/103 51/53/101 71/74/102 72/75/104
f 53/55/105 52/54/103 72/75/104 73/76/106
f 54/56/107 53/55/105 73/76/106 74/77/108
f 55/57/109 54/56/107 74/77/108 75/78/110
f 56/58/111 55/57/109 75/78/110 76/79/112
f 57/59/113 56/58/111 76/79/112 77/80/114
f 58/60/115 57/59/113 77/80/114 78/81/116
f 59/61/117 58/60/115 78/81/116 79/82/118
f 60/62/119 59/61/117 79/82/118 80/83/120
f 41/63/82 60/62/119 80/83/120 61/84/83
s 4
f 62/65/121 61/64/122 1/85/123 2/86/124
f 63/66/125 62/65/121 2/86/124 3/87/126
f 64/67/127 63/66/125 3/87/126 4/88/128
f 65/68/129 64/67/127 4/88/128 5/89/130
f 66/69/131 65/68/129 5/89/130 6/90/132
f 67/70/133 66/69/131 6/90/132 7/91/134
f 68/71/135 67/70/133 7/91/134 8/92/136
f 69/72/137 68/71/135 8/92/136 9/93/138
f 70/73/139 69/72/137 9/93/138 10/94/140
f 71/74/141 70/73/139 10/94/140 11/95/142
f 72/75/143 71/74/141 11/95/142 12/96/144
f 73/76/145 72/75/143 12/96/144 13/97/146
f 74/77/147 73/76/145 13/97/146 14/98/148
f 75/78/149 74/77/147 14/98/148 15/99/150
f 76/79/151 75/78/149 15/99/150 16/100/152
f 77/80/153 76/79/151 16/100/152 17/101/154
f 78/81/155 77/80/153 17/101/154 18/102/156
f 79/82/157 78/81/155 18/102/156 19/103/158
f 80/83/159 79/82/157 19/103/158 20/104/160
f 61/84/122 80/83/159 20/104/160 1/105/123
s off
f 1/106/161 2/107/162 82/108/163 81/109/164
f 2/110/165 3/111/166 83/112/167 82/113/168
f 3/114/169 4/115/170 84/116/171 83/117/172
f 4/118/173 5/119/174 85/120/175 84/121/176
f 5/122/177 6/123/178 86/124/179 85/125/180
f 6/126/181 7/127/182 87/128/183 86/129/184
f 7/130/185 8/131/186 88/132/187 87/133/188
f 8/134/189 9/135/190 89/136/191 88/137/192
f 9/138/193 10/139/194 90/140/195 89/141/196
f 10/142/197 11/143/198 91/144/199 90/145/200
f 11/146/201 12/147/202 92/148/203 91/149/204
f 12/150/205 13/151/206 93/152/207 92/153/208
f 13/154/209 14/155/210 94/156/211 93/157/212
f 14/158/213 15/159/214 95/160/215 94/161/216
f 15/162/217 16/163/218 96/164/219 95/165/220
f 16/166/221 17/167/222 97/168/223 96/169/224
f 17/170/225 18/171/226 98/172/227 97/173/228
f 18/174/229 19/175/230 99/176/231 98/177/232
f 19/178/233 20/179/234 100/180/235 99/181/236
f 20/182/237 1/183/238 81/184/239 100/185/240
f 82/113/241 83/117/242 84/121/243 85/125/244 86/129/245 87/133/246 88/137/247 89/141/248 90/145/249 91/149/250 92/153/251 93/157/252 94/161/253 95/165/254 96/169/255 97/173/256 98/177/257 99/181/258 100/185/259 81/109/260
