# This file uses centimeters as units for non-parametric coordinates.

mtllib straight_A_3x3.mtl
g default
v -3.000000 0.000000 0.000000
v 0.000000 0.000000 0.000000
v -3.000000 0.190000 0.000000
v 0.000000 0.190000 0.000000
v -3.000000 0.190000 -3.000000
v 0.000000 0.190000 -3.000000
v -3.000000 0.000000 -3.000000
v 0.000000 0.000000 -3.000000
v -0.107075 0.190000 0.000000
v -0.107075 0.190000 -3.000000
v -2.892925 0.190000 0.000000
v -2.892925 0.190000 -3.000000
v -3.000000 0.321460 0.000000
v -2.892925 0.321460 0.000000
v -3.000000 0.321460 -3.000000
v -2.892925 0.321460 -3.000000
v 0.000000 0.321460 0.000000
v 0.000000 0.321460 -3.000000
v -0.107075 0.321460 0.000000
v -0.107075 0.321460 -3.000000
vt 0.013237 -0.023046
vt 0.013237 -0.762360
vt 0.060061 -0.762360
vt 0.060061 -0.023046
vt 0.990869 -0.770617
vt 0.990869 -0.031303
vt 0.944046 -0.031303
vt 0.944046 -0.770617
vt 0.750000 1.000000
vt 0.000000 1.000000
vt 0.000000 0.248891
vt 0.750000 0.248891
vt 0.911651 -0.031303
vt 0.911651 -0.770617
vt 0.092455 -0.762360
vt 0.092455 -0.023046
vt 0.151238 -0.762360
vt 0.151238 -0.023046
vt 0.118841 -0.023046
vt 0.118841 -0.762360
vt 0.852868 -0.031303
vt 0.852868 -0.770617
vt 0.885265 -0.770617
vt 0.885265 -0.031303
vn 1.000000 0.000000 0.000000
vn 1.000000 0.000000 0.000000
vn 1.000000 0.000000 0.000000
vn 1.000000 0.000000 0.000000
vn -1.000000 0.000000 0.000000
vn -1.000000 0.000000 0.000000
vn -1.000000 0.000000 0.000000
vn -1.000000 0.000000 0.000000
vn 0.000000 1.000000 0.000000
vn 0.000000 1.000000 0.000000
vn 0.000000 1.000000 0.000000
vn 0.000000 1.000000 0.000000
vn -1.000000 0.000000 0.000000
vn -1.000000 0.000000 0.000000
vn -1.000000 0.000000 0.000000
vn -1.000000 0.000000 0.000000
vn 1.000000 0.000000 0.000000
vn 1.000000 0.000000 0.000000
vn 1.000000 0.000000 0.000000
vn 1.000000 0.000000 0.000000
vn -1.000000 0.000000 0.000000
vn -1.000000 0.000000 0.000000
vn -1.000000 0.000000 0.000000
vn -1.000000 0.000000 0.000000
vn 1.000000 0.000000 0.000000
vn 1.000000 0.000000 0.000000
vn 1.000000 0.000000 0.000000
vn 1.000000 0.000000 0.000000
vn 0.000000 1.000000 0.000000
vn 0.000000 1.000000 0.000000
vn 0.000000 1.000000 0.000000
vn 0.000000 1.000000 0.000000
vn 0.000000 1.000000 0.000000
vn 0.000000 1.000000 0.000000
vn 0.000000 1.000000 0.000000
vn 0.000000 1.000000 0.000000
s off
g straight_A_3x3
usemtl lambert6SG
f 2/1/1 8/2/2 6/3/3 4/4/4
f 7/5/5 1/6/6 3/7/7 5/8/8
usemtl lambert5SG
f 11/9/9 9/10/10 10/11/11 12/12/12
usemtl lambert6SG
f 5/8/13 3/7/14 13/13/15 15/14/16
f 4/4/17 6/3/18 18/15/19 17/16/20
f 10/17/21 9/18/22 19/19/23 20/20/24
f 11/21/25 12/22/26 16/23/27 14/24/28
f 14/24/29 16/23/30 15/14/31 13/13/32
f 18/15/33 20/20/34 19/19/35 17/16/36
