# This file uses centimeters as units for non-parametric coordinates.

mtllib grass_1.mtl
g default
v 0.080962 -0.004135 0.016237
v 0.049372 0.164652 0.018846
v 0.098337 0.178074 -0.067279
v 0.120071 0.343852 0.071958
v 0.169602 0.353222 -0.009760
v 0.272523 0.504760 0.086995
v 0.080962 -0.004135 0.016237
v 0.049372 0.164652 0.018846
v 0.098337 0.178074 -0.067279
v 0.120071 0.343852 0.071958
v 0.169602 0.353222 -0.009760
v 0.272523 0.504760 0.086995
v -0.028274 0.000000 -0.025610
v 0.061769 0.236453 -0.072975
v -0.033127 0.198214 -0.064361
v 0.062676 0.317697 -0.185672
v -0.029018 0.356481 -0.126309
v -0.012960 0.383850 -0.238649
v -0.028274 0.000000 -0.025610
v 0.061769 0.236453 -0.072975
v -0.033127 0.198214 -0.064361
v 0.062676 0.317697 -0.185672
v -0.029018 0.356481 -0.126309
v -0.012960 0.383850 -0.238649
v -0.095296 0.000000 0.002041
v -0.021585 0.228495 0.013984
v 0.004930 0.274293 0.157273
v -0.070359 0.486451 0.125545
v -0.017632 0.477735 0.236713
v -0.163897 0.627098 0.297649
v -0.095296 0.000000 0.002041
v -0.021585 0.228495 0.013984
v 0.004930 0.274293 0.157273
v -0.070359 0.486451 0.125545
v -0.017632 0.477735 0.236713
v -0.163897 0.627098 0.297649
vt 0.408780 0.230763
vt 0.454509 0.417985
vt 0.358300 0.436505
vt 0.450312 0.629616
vt 0.368472 0.607830
vt 0.409044 0.783695
vt 0.408780 0.230763
vt 0.358300 0.436505
vt 0.454509 0.417985
vt 0.368472 0.607830
vt 0.450312 0.629616
vt 0.409044 0.783695
vt 0.574865 0.228247
vt 0.628143 0.415469
vt 0.536967 0.433989
vt 0.616396 0.627100
vt 0.534557 0.605314
vt 0.575129 0.781178
vt 0.574865 0.228247
vt 0.536967 0.433989
vt 0.628143 0.415469
vt 0.534557 0.605314
vt 0.616396 0.627100
vt 0.575129 0.781178
vt 0.408780 0.230763
vt 0.454509 0.417985
vt 0.358300 0.436505
vt 0.450312 0.629616
vt 0.368472 0.607830
vt 0.409044 0.783695
vt 0.408780 0.230763
vt 0.358300 0.436505
vt 0.454509 0.417985
vt 0.368472 0.607830
vt 0.450312 0.629616
vt 0.409044 0.783695
vn 0.849049 0.151081 0.506251
vn 0.835045 -0.326432 0.442879
vn 0.848318 -0.266646 0.457445
vn 0.760738 -0.522978 0.384411
vn 0.767446 -0.509953 0.388555
vn 0.669771 -0.665378 0.329665
vn -0.849049 -0.151081 -0.506251
vn -0.848318 0.266646 -0.457445
vn -0.835045 0.326432 -0.442879
vn -0.767446 0.509953 -0.388555
vn -0.760738 0.522978 -0.384411
vn -0.669771 0.665378 -0.329665
vn -0.011652 -0.192133 -0.981300
vn -0.144805 -0.377672 -0.914547
vn -0.227494 -0.487521 -0.842953
vn -0.347142 -0.635975 -0.689223
vn -0.353631 -0.643568 -0.678797
vn -0.518733 -0.810633 -0.271643
vn 0.011652 0.192133 0.981300
vn 0.227494 0.487521 0.842953
vn 0.144805 0.377672 0.914547
vn 0.353631 0.643568 0.678797
vn 0.347142 0.635975 0.689223
vn 0.518733 0.810633 0.271643
vn -0.949920 0.302303 0.079152
vn -0.937712 -0.188516 0.291817
vn -0.978925 0.041966 0.199863
vn -0.846296 -0.435224 0.307188
vn -0.869963 -0.380721 0.313396
vn -0.640208 -0.727541 0.246612
vn 0.949920 -0.302303 -0.079152
vn 0.978925 -0.041966 -0.199863
vn 0.937712 0.188516 -0.291817
vn 0.869963 0.380721 -0.313396
vn 0.846296 0.435224 -0.307188
vn 0.640208 0.727541 -0.246612
s 1
g grass1
usemtl lambert2SG
f 1/1/1 3/2/2 2/3/3
f 2/3/3 3/2/2 5/4/4 4/5/5
f 4/5/5 5/4/4 6/6/6
s 2
f 7/7/7 8/8/8 9/9/9
f 8/8/8 10/10/10 11/11/11 9/9/9
f 10/10/10 12/12/12 11/11/11
s 3
f 13/13/13 15/14/14 14/15/15
f 14/15/15 15/14/14 17/16/16 16/17/17
f 16/17/17 17/16/16 18/18/18
s 4
f 19/19/19 20/20/20 21/21/21
f 20/20/20 22/22/22 23/23/23 21/21/21
f 22/22/22 24/24/24 23/23/23
s 5
f 25/25/25 27/26/26 26/27/27
f 26/27/27 27/26/26 29/28/28 28/29/29
f 28/29/29 29/28/28 30/30/30
s 6
f 31/31/31 32/32/32 33/33/33
f 32/32/32 34/34/34 35/35/35 33/33/33
f 34/34/34 36/36/36 35/35/35
