<svg height="600" viewBox="0 0 2000 600" width="2000" xmlns="http://www.w3.org/2000/svg"><g fill="none" fill-rule="evenodd"><path d="m373.39 484.5h-92.23v-30.13h21.85l-4.83-15.64h-47.15l-4.83 15.64h17.94v30.13h-73.14v-30.13h15.64l31.05-100.97h-9.43v-29.67h88.32l40.71 130.64h16.1zm-113.85-73.37h30.13l-15.18-49.68zm120.75-41.63h12.42v-21.16l42.32-13.57v34.73h21.85v29.9h-21.85v40.94c0 1.993343-.038333 4.063323-.115 6.21s.076665 4.139991.46 5.98 1.073328 3.334994 2.07 4.485 2.644989 1.725 4.945 1.725c1.533341 0 3.794985-.421662 6.785-1.265s5.558323-1.724995 7.705-2.645v29.44c-1.686675.766671-3.83332 1.418331-6.44 1.955s-5.289986.958332-8.05 1.265-5.328321.574999-7.705.805-4.254993.345-5.635.345c-8.58671 0-15.294976-1.149988-20.125-3.45-4.830024-2.300011-8.394988-5.519979-10.695-9.66-2.300011-4.140021-3.756664-9.19997-4.37-15.18s-.996666-12.649963-1.15-20.01v-40.94h-12.42zm158.01 115h-72.22v-30.13h9.66v-112.47h-9.66v-29.9h55.66v71.76c.613336-1.073339 2.069988-2.606657 4.37-4.6 2.300011-1.993343 5.098317-4.02499 8.395-6.095s6.976646-3.871659 11.04-5.405 8.164979-2.3 12.305-2.3c8.893378 0 15.984974 1.494985 21.275 4.485s9.353319 6.899976 12.19 11.73 4.676662 10.273303 5.52 16.33 1.265 12.07497 1.265 18.055v38.41h10.81v30.13h-59.11v-62.56c0-1.993343-.076666-4.216654-.23-6.67s-.651662-4.753323-1.495-6.9-2.184991-3.986659-4.025-5.52-4.44665-2.3-7.82-2.3c-2.913348 0-5.328324.65166-7.245 1.955s-3.411661 2.98999-4.485 5.06-1.801665 4.369987-2.185 6.9-.575 5.021654-.575 7.475v32.43h16.56zm146.97 0h-67.16v-30.13h9.89v-112.7h-9.66v-29.67h53.36v142.37h13.57zm124.66-15.87c-8.58671 7.360037-17.633286 12.534985-27.14 15.525s-20.23994 4.485-32.2 4.485c-7.206703 0-14.413297-1.188321-21.62-3.565s-13.684971-6.056642-19.435-11.04-10.464982-11.423294-14.145-19.32-5.52-17.364945-5.52-28.405c0-9.35338 1.609984-17.748296 4.83-25.185s7.589972-13.761641 13.11-18.975 12.036629-9.161653 19.55-11.845 15.639956-4.025 24.38-4.025c6.900034 0 13.301637.843325 19.205 2.53s11.231643 3.986652 15.985 6.9 8.81665 6.439979 12.19 10.58 5.903325 8.586643 7.59 13.34c.613336 1.993343 1.226664 4.523318 1.84 7.59s1.034999 6.363316 1.265 9.89.153335 7.168315-.23 10.925-1.188327 7.244984-2.415 10.465h-72.45c.306668 1.533341.804997 3.373323 1.495 5.52s1.878325 4.216657 3.565 6.21 3.986652 3.679993 6.9 5.06 6.823309 2.07 11.73 2.07c1.993343 0 4.178321-.076666 6.555-.23s4.944986-.613329 7.705-1.38 5.673318-1.878326 8.74-3.335 6.133318-3.48832 9.2-6.095zm-56.81-71.3c-3.526684 0-6.401656.689993-8.625 2.07s-3.98666 3.028324-5.29 4.945-2.223331 3.948323-2.76 6.095-.881666 3.909993-1.035 5.29h34.73c0-2.146677-.229998-4.331656-.69-6.555s-1.264994-4.216658-2.415-5.98-2.836656-3.181661-5.06-4.255-5.174982-1.61-8.855-1.61zm63.71-27.83h12.42v-21.16l42.32-13.57v34.73h21.85v29.9h-21.85v40.94c0 1.993343-.038333 4.063323-.115 6.21s.076665 4.139991.46 5.98 1.073328 3.334994 2.07 4.485 2.644989 1.725 4.945 1.725c1.533341 0 3.794985-.421662 6.785-1.265s5.558323-1.724995 7.705-2.645v29.44c-1.686675.766671-3.83332 1.418331-6.44 1.955s-5.289986.958332-8.05 1.265-5.328321.574999-7.705.805-4.254993.345-5.635.345c-8.58671 0-15.294976-1.149988-20.125-3.45-4.830024-2.300011-8.394989-5.519979-10.695-9.66-2.300012-4.140021-3.756664-9.19997-4.37-15.18s-.996666-12.649963-1.15-20.01v-40.94h-12.42zm150.19 115h-64.4v-30.13h9.66v-54.97h-9.66v-29.9h53.36v84.87h11.04zm-57.96-148.58c0-2.60668.536661-5.289986 1.61-8.05s2.64499-5.289989 4.715-7.59c2.07001-2.300012 4.676651-4.178326 7.82-5.635s6.708313-2.185 10.695-2.185 7.551651.728326 10.695 2.185 5.788323 3.334988 7.935 5.635c2.146677 2.300011 3.794994 4.829986 4.945 7.59s1.725 5.44332 1.725 8.05c0 6.440032-2.146645 11.921644-6.44 16.445s-10.579959 6.785-18.86 6.785c-3.680018 0-7.014985-.689993-10.005-2.07s-5.596656-3.181656-7.82-5.405-3.948327-4.714986-5.175-7.475-1.84-5.519986-1.84-8.28zm146.51 85.56c-.15333-2.760014-.49833-5.558319-1.035-8.395s-1.34166-5.443321-2.415-7.82-2.52999-4.293326-4.37-5.75-4.06332-2.185-6.67-2.185c-3.37335 0-6.32499.843325-8.855 2.53s-4.63832 3.909986-6.325 6.67-2.95166 5.903316-3.795 9.43-1.265 7.129982-1.265 10.81c0 7.513371 2.10831 13.876641 6.325 19.09s10.00496 7.896666 17.365 8.05c6.13336.153334 11.34665-.958321 15.64-3.335s8.35665-5.634979 12.19-9.775l20.24 23.46c-2.76001 2.913348-6.05665 5.788319-9.89 8.625s-8.16498 5.328323-12.995 7.475-10.08164 3.909993-15.755 5.29-11.57664 2.07-17.71 2.07c-8.43338 0-16.48329-1.264987-24.15-3.795-7.6667-2.530013-14.374971-6.363308-20.125-11.5s-10.349983-11.538295-13.8-19.205-5.175-16.636615-5.175-26.91c0-10.120051 1.571651-18.898296 4.715-26.335s7.321641-13.569976 12.535-18.4 11.23163-8.394989 18.055-10.695 13.91496-3.45 21.275-3.45c3.83335 0 7.32165.459995 10.465 1.38s5.90332 2.069993 8.28 3.45 4.40832 2.836659 6.095 4.37 2.99 2.836661 3.91 3.91l3.91-11.04h27.14v51.98z" fill="#fff"/><path d="m138.362218 318.522884-1.08 17.64-2.52 7.56-3.96 6.48-1.08 3.6-6.48 8.28-8.28 4.32-16.9199998-3.6-12.24-8.28-7.56-10.08-5.76-15.12-1.8-6.48-.72-7.2-1.44-3.96-.36-7.2-1.44-7.92-3.24-3.96 1.8-7.2 2.88-2.52h5.76l5.04 3.24.36 21.6 1.44 7.56 2.52 12.6 6.84 14.4 9 8.28 9.7199998 2.88 8.64-3.96 1.44-2.16 4.68-8.64 1.44-4.32 2.52-18-2.88-26.64-3.96-3.6.72-5.4 1.08-1.08 3.24-.72h2.52l6.84 8.28.72 6.48 2.52 11.52zm79.92 32.4-.36 4.32-4.68 3.96-4.32-.72-2.52-1.44-2.52-3.96-2.52-26.28v-26.64l-3.24-13.32-.72-.36-2.88 3.6-2.88 5.04-7.92 14.4-8.28 15.84-15.48 20.52-6.12 5.04-2.16-.72-6.12-5.04-1.8-4.32.36-9 4.68-25.92.72-6.84 1.08-2.16-.72-11.52-2.52-7.56.72-3.24 5.04-3.96 5.76-1.44 3.24 2.52 1.8 1.8v21.6l-1.8 6.48-.72 5.76-1.8 9.36-.72.72v1.8l1.8 2.16 7.92-8.64 8.64-16.92 3.24-7.2 3.96-6.12 6.12-9.72 5.04-5.04 3.96-1.08 6.12.72 3.24 3.24 4.32 25.2.72 36.72 2.52 14.4z" fill="#5ce2c9" transform="matrix(.98480775 -.17364818 .17364818 .98480775 -52.826801 29.272902)"/><path d="m227.116 440.268-9.52 10.08-3.36 1.96-3.92 1.4-5.88 3.64-5.88 4.2-5.04 3.08-4.48 3.36-9.8 7.84-1.4 3.08-.56 2.52-1.96 1.96-7 1.12-3.92-2.24-1.12-2.52 1.12-4.48 7.56-6.44 1.4-.28 5.6-3.92 3.08-3.08 1.68-.28h.84l2.52-2.52 17.92-13.44 1.68-2.52-1.4-1.4-6.72-1.12-9.8-3.36-14.56-1.96-5.32-1.4-12.32-4.48-2.52-1.12-2.24-2.8v-3.08l3.08-4.2 4.2-2.24 2.52.56 5.6 4.76 5.04 1.68 4.48 3.08 3.92.28 2.52 1.12 6.44.84 9.24 2.24 6.44 1.4 6.44 1.12h2.52l3.36.84 5.6-.28 2.8 2.24z" fill="#5ce2c9" transform="matrix(.17364818 -.98480775 .98480775 .17364818 -286.673145 558.49225)"/><path d="m347.33 123.73v59.8h-33.81v-29.44h-19.32v99.82h19.09v30.59h-85.56v-30.59h18.86v-99.82h-19.78v29.44h-33.81v-59.8zm81.42 160.77h-72.22v-30.13h9.66v-112.47h-9.66v-29.9h55.66v71.76c.613336-1.073339 2.069988-2.606657 4.37-4.6 2.300011-1.993343 5.098317-4.02499 8.395-6.095s6.976646-3.871659 11.04-5.405 8.164979-2.3 12.305-2.3c8.893378 0 15.984974 1.494985 21.275 4.485s9.353319 6.899976 12.19 11.73 4.676662 10.273303 5.52 16.33 1.265 12.07497 1.265 18.055v38.41h10.81v30.13h-59.11v-62.56c0-1.993343-.076666-4.216654-.23-6.67s-.651662-4.753323-1.495-6.9-2.184991-3.986659-4.025-5.52-4.44665-2.3-7.82-2.3c-2.913348 0-5.328324.65166-7.245 1.955s-3.411661 2.98999-4.485 5.06-1.801665 4.369987-2.185 6.9-.575 5.021654-.575 7.475v32.43h16.56zm195.27-15.87c-8.58671 7.360037-17.633286 12.534985-27.14 15.525s-20.23994 4.485-32.2 4.485c-7.206703 0-14.413297-1.188321-21.62-3.565s-13.684971-6.056642-19.435-11.04-10.464982-11.423294-14.145-19.32-5.52-17.364945-5.52-28.405c0-9.35338 1.609984-17.748296 4.83-25.185s7.589972-13.761641 13.11-18.975 12.036629-9.161653 19.55-11.845 15.639956-4.025 24.38-4.025c6.900034 0 13.301637.843325 19.205 2.53s11.231643 3.986652 15.985 6.9 8.81665 6.439979 12.19 10.58 5.903325 8.586643 7.59 13.34c.613336 1.993343 1.226664 4.523318 1.84 7.59s1.034999 6.363316 1.265 9.89.153335 7.168315-.23 10.925-1.188327 7.244984-2.415 10.465h-72.45c.306668 1.533341.804997 3.373323 1.495 5.52s1.878325 4.216657 3.565 6.21 3.986652 3.679993 6.9 5.06 6.823309 2.07 11.73 2.07c1.993343 0 4.178321-.076666 6.555-.23s4.944986-.613329 7.705-1.38 5.673318-1.878326 8.74-3.335 6.133318-3.48832 9.2-6.095zm-56.81-71.3c-3.526684 0-6.401656.689993-8.625 2.07s-3.98666 3.028324-5.29 4.945-2.223331 3.948323-2.76 6.095-.881666 3.909993-1.035 5.29h34.73c0-2.146677-.229998-4.331656-.69-6.555s-1.264994-4.216658-2.415-5.98-2.836656-3.181661-5.06-4.255-5.174982-1.61-8.855-1.61z" fill="#fff"/><path d="m1281 423.254098-2.11765 3.463115-1.7647 6.92623-2.11765 7.272541-3.17647 5.887295-21.17647 20.432377-13.05882 8.311475-3.88236 1.385246-2.47059 2.42418.70589 23.549181 1.7647 14.19877 3.17647 12.813525 2.47059 3.463115-1.05882 5.887295-2.82353 1.731557-4.2353-1.385246-3.88235-3.463115-1.05882-6.233606-4.94118-27.012295-.70588-28.743853-1.05882-25.97336-1.41177-1.385246-1.41176-9.696722v-15.584016l-1.76471-12.120902-1.76471-6.926229-1.7647-5.540984.35294-3.809426 2.82353-3.463115-5.64706-7.272541.70588-5.540983 4.94118-3.809427 7.41176-1.038934 16.58824 2.770492 8.82353 3.116803 9.88235 5.540984 13.76471 12.813524 7.41176 13.506148 1.41177 4.84836 1.05882 1.385246zm-15 3.269919v-12.925764l-5.5935-11.528384-8.39024-9.432314-10.4878-4.89083-13.98374-1.746725-4.54472.69869.69919.349345 4.19512 3.144105v38.777292l1.39837 13.973799v6.28821l1.74797 16.768559h1.39837l5.24391-3.842795 7.34146-5.938864 17.13008-19.213974zm93-30.967154-1.75978 3.105882-4.92737 3.45098-5.98324.690197-6.3352 4.831372-1.40782 4.486275-4.92737 5.17647-2.46369 6.211765-1.75978 7.247059-5.63128 13.458823-4.92738 13.458824-3.16759 10.698039-2.46369 4.486275-3.87151 1.035294-3.51955 3.105882-4.22347-.690196-3.8715-3.45098 1.05586-33.47451 1.05587-7.247059v-18.290196l-2.11173-6.211765v-4.141176l-1.75978-5.521569v-2.070588l4.22346-2.760785h1.75978l4.57542 3.796079 2.81564 6.556863 1.05587 9.662745 1.05586 4.831372v20.705883l.70391.690196 3.51956-6.211765 1.40782-5.866667 4.22346-7.592157 1.40782-1.035294.35196-6.556862 2.81564-6.211765 5.98324-8.972549 5.63129-4.831373 6.68715-3.105882 13.02234.345098-.35195.690196 2.11173 1.035294zm103 75.193137-8.31128 5.95-10.38911 3.5-4.15564 2.8h-19.04669l-9.6965-3.15-9.6965-7-14.19844-15.4-9.00389-22.75-4.50195-28.35 1.38521-6.65 1.03891-7.35 5.54086-9.8 6.23346-5.25 12.12063-5.25 3.46303-1.05h12.46693l1.73151 1.4 3.80934-.35 2.42413 2.1h1.03891l8.65759 10.15 2.42412 6.3.69261 4.55 1.03891 5.95v22.05l-2.77043 5.95-3.11673 1.4-8.65759-.7-12.12062-.7-11.08171-1.75h-4.84825l-4.84825-1.05h-.69261v5.6l4.84825 15.4 3.11673 5.95 8.65759 8.75v1.05l6.57977 4.55 2.42412 3.15 11.08171 4.2 14.54475-1.4 7.27237-2.45 3.80934-1.75 6.57977-.7 2.07782-1.05 2.07782.35zm-36-62.826087-2.0708-12.467391-3.10619-6.065218-6.55752-4.717391-7.93806-.673913-6.90265 1.684783-6.90266 5.72826-5.17699 7.413044-.34513 12.130435h1.0354l3.10619.336956 15.18584 2.358696 14.15045 1.347826 3.45132-1.684783zm103-37.753309-1.05587 4.188976-.70391 1.745407-3.8715 2.094488-6.3352-2.094488-2.46369-1.745407-5.63128 1.396326-7.39106 3.490813-4.57542 3.141732-5.98324 4.88714-6.3352 8.727034-3.1676 6.981627 1.40782 16.057743 8.79889 18.152231 10.55866 15.35958 8.44692 17.104987v11.170603l-5.98324 7.330709-9.50279 3.839895-11.61452-.698163-3.1676-1.745407-.70391-2.094488v-2.443569l1.75977-1.745407 9.5028-1.396326 3.87151-1.745406 3.51955-4.188977-.35196-7.67979-3.16759-3.839895-1.40783-3.839895-4.92737-9.774278-5.98324-7.67979-7.74302-13.265092-2.46368-6.283465-2.46369-4.887139-.70391-6.283464-1.05587-8.727034-.70391-.349082h-1.40782l1.40782-6.632546 3.1676-5.585301.70391.349081 13.02235-13.265092v-1.396325l6.68715-4.88714 7.0391-5.585301 11.61453-5.585302 5.98324-1.745407 7.0391 2.44357zm105 100.579396-8.31128 5.95-10.38911 3.5-4.15564 2.8h-19.04669l-9.6965-3.15-9.6965-7-14.19844-15.4-9.00389-22.75-4.50195-28.35 1.38521-6.65 1.03891-7.35 5.54086-9.8 6.23346-5.25 12.12063-5.25 3.46303-1.05h12.46693l1.73151 1.4 3.80934-.35 2.42413 2.1h1.03891l8.65759 10.15 2.42412 6.3.69261 4.55 1.03891 5.95v22.05l-2.77043 5.95-3.11673 1.4-8.65759-.7-12.12062-.7-11.08171-1.75h-4.84825l-4.84825-1.05h-.69261v5.6l4.84825 15.4 3.11673 5.95 8.65759 8.75v1.05l6.57977 4.55 2.42412 3.15 11.08171 4.2 14.54475-1.4 7.27237-2.45 3.80934-1.75 6.57977-.7 2.07782-1.05 2.07782.35zm-35-62.826087-2.0708-12.467391-3.10619-6.065218-6.55752-4.717391-7.93806-.673913-6.90265 1.684783-6.90266 5.72826-5.17699 7.413044-.34513 12.130435h1.0354l3.10619.336956 15.18584 2.358696 14.15045 1.347826 3.45132-1.684783zm115 50.111106-.34783 4.155642-4.52174 3.809339-4.17391-.692607-2.43478-1.385214-2.43478-3.809339-2.43479-25.280155v-25.626459l-3.13043-12.81323-.69565-.346303-2.78261 3.463035-2.78261 4.848249-7.65217 13.85214-8 15.237354-14.95653 19.739299-5.91304 4.848249-2.08696-.692607-5.91304-4.848249-1.73913-4.155642.34783-8.657587 4.52174-24.933852.69565-6.579767 1.04348-2.077821-.69566-11.081712-2.43478-7.272373.69565-3.116732 4.86957-3.809338 5.56522-1.385214 3.13043 2.424124 1.73913 1.731518v20.77821l-1.73913 6.233463-.69565 5.540856-1.73913 9.003891-.69565.692607v1.731517l1.73913 2.077821 7.65217-8.311284 8.34783-16.276264 3.13043-6.92607 3.82609-5.88716 5.91304-9.350194 4.86957-4.848249 3.82608-1.038911 5.91305.692607 3.13043 3.116732 4.17391 24.241245.69566 35.322957 2.43478 13.85214zm91 22.309872-.69369 4.531021-1.04054 3.136862-10.40541 9.410584-13.87387 5.576642-11.44595-.69708-6.93694-2.788321-9.36486-9.410584-7.97748-13.593066-2.42793-5.925183-1.73423-3.136861-1.38739-5.576642-1.73423-5.576643-2.08108-9.062043-1.04054-2.091241-.6937-9.759124-1.04054-1.394161v-7.667883l-2.42793-4.531022-.69369-33.808394.69369-18.472628 1.38739-13.244525.34685-16.381387v-10.456205l-1.38739-2.091241v-9.759124l5.8964-5.576642 7.28378.69708 1.73423 1.045621 1.73424 3.136861-.34685 8.713504-1.38739 1.7427-.69369 7.319343-1.04054 5.228103-1.38739 13.941606-1.04054 7.319343-.69369 25.09489v11.153285l1.04054 10.804744h12.13964l4.50901-1.04562 7.63063-.69708 14.56757-1.742701h4.85585l15.26126 1.39416 2.77478 1.742701v4.879562l-1.73424 1.045621-9.71171.69708-7.97748 2.091241-5.54954.34854-12.48649 2.788321-10.05856 1.742701-3.81531 1.742701-7.28379 1.39416-1.73423 1.742701 1.04054 15.684306 1.73423 3.833942 1.38739 6.622263 5.54955 15.335766 7.97748 14.987227 7.97747 8.016423 6.59009 1.742701 15.26127-4.879562 7.28378-5.576643 1.73423-4.182482h3.81532l1.73423 1.045621zm80-110.174287-1.05587 4.188976-.70391 1.745407-3.8715 2.094488-6.3352-2.094488-2.46369-1.745407-5.63128 1.396326-7.39106 3.490813-4.57542 3.141732-5.98324 4.88714-6.3352 8.727034-3.1676 6.981627 1.40782 16.057743 8.79889 18.152231 10.55866 15.35958 8.44692 17.104987v11.170603l-5.98324 7.330709-9.50279 3.839895-11.61452-.698163-3.1676-1.745407-.70391-2.094488v-2.443569l1.75977-1.745407 9.5028-1.396326 3.87151-1.745406 3.51955-4.188977-.35196-7.67979-3.16759-3.839895-1.40783-3.839895-4.92737-9.774278-5.98324-7.67979-7.74302-13.265092-2.46368-6.283465-2.46369-4.887139-.70391-6.283464-1.05587-8.727034-.70391-.349082h-1.40782l1.40782-6.632546 3.1676-5.585301.70391.349081 13.02235-13.265092v-1.396325l6.68715-4.88714 7.0391-5.585301 11.61453-5.585302 5.98324-1.745407 7.0391 2.44357z" fill="#5ce2c9"/></g></svg>