<svg height="1200" viewBox="0 0 1200 1200" width="1200" xmlns="http://www.w3.org/2000/svg"><g fill="none" fill-rule="evenodd"><path d="m373.84 750h-92.23v-30.13h21.85l-4.83-15.64h-47.15l-4.83 15.64h17.94v30.13h-73.14v-30.13h15.64l31.05-100.97h-9.43v-29.67h88.32l40.71 130.64h16.1zm-113.85-73.37h30.13l-15.18-49.68zm120.75-41.63h12.42v-21.16l42.32-13.57v34.73h21.85v29.9h-21.85v40.94c0 1.993343-.038333 4.063323-.115 6.21s.076665 4.139991.46 5.98 1.073328 3.334994 2.07 4.485 2.644988 1.725 4.945 1.725c1.533341 0 3.794985-.421662 6.785-1.265s5.558323-1.724995 7.705-2.645v29.44c-1.686675.766671-3.83332 1.418331-6.44 1.955s-5.289986.958332-8.05 1.265-5.328321.574999-7.705.805-4.254993.345-5.635.345c-8.58671 0-15.294976-1.149988-20.125-3.45-4.830024-2.300011-8.394988-5.519979-10.695-9.66-2.300011-4.140021-3.756664-9.19997-4.37-15.18s-.996666-12.649963-1.15-20.01v-40.94h-12.42zm158.01 115h-72.22v-30.13h9.66v-112.47h-9.66v-29.9h55.66v71.76c.613336-1.073339 2.069988-2.606657 4.37-4.6s5.098317-4.02499 8.395-6.095 6.976646-3.871659 11.04-5.405 8.164979-2.3 12.305-2.3c8.893378 0 15.984974 1.494985 21.275 4.485s9.353319 6.899976 12.19 11.73 4.676662 10.273303 5.52 16.33 1.265 12.07497 1.265 18.055v38.41h10.81v30.13h-59.11v-62.56c0-1.993343-.076666-4.216654-.23-6.67s-.651662-4.753323-1.495-6.9-2.184991-3.986659-4.025-5.52-4.44665-2.3-7.82-2.3c-2.913348 0-5.328324.65166-7.245 1.955s-3.411661 2.98999-4.485 5.06-1.801665 4.369987-2.185 6.9-.575 5.021654-.575 7.475v32.43h16.56zm146.97 0h-67.16v-30.13h9.89v-112.7h-9.66v-29.67h53.36v142.37h13.57zm124.66-15.87c-8.58671 7.360037-17.633286 12.534985-27.14 15.525s-20.23994 4.485-32.2 4.485c-7.206703 0-14.413297-1.188321-21.62-3.565s-13.684971-6.056642-19.435-11.04-10.464982-11.423294-14.145-19.32-5.52-17.364945-5.52-28.405c0-9.35338 1.609984-17.748296 4.83-25.185s7.589972-13.761641 13.11-18.975 12.036629-9.161653 19.55-11.845 15.639956-4.025 24.38-4.025c6.900035 0 13.301637.843325 19.205 2.53s11.231643 3.986652 15.985 6.9 8.81665 6.439979 12.19 10.58 5.903325 8.586643 7.59 13.34c.613336 1.993343 1.226664 4.523318 1.84 7.59s1.034999 6.363316 1.265 9.89.153335 7.168315-.23 10.925-1.188327 7.244984-2.415 10.465h-72.45c.306668 1.533341.804997 3.373323 1.495 5.52s1.878325 4.216657 3.565 6.21 3.986652 3.679993 6.9 5.06 6.823309 2.07 11.73 2.07c1.993343 0 4.178321-.076666 6.555-.23s4.944986-.613329 7.705-1.38 5.673318-1.878326 8.74-3.335 6.133318-3.48832 9.2-6.095zm-56.81-71.3c-3.526684 0-6.401656.689993-8.625 2.07s-3.98666 3.028324-5.29 4.945-2.223331 3.948323-2.76 6.095-.881666 3.909993-1.035 5.29h34.73c0-2.146677-.229998-4.331656-.69-6.555s-1.264994-4.216658-2.415-5.98-2.836656-3.181661-5.06-4.255-5.174982-1.61-8.855-1.61zm63.71-27.83h12.42v-21.16l42.32-13.57v34.73h21.85v29.9h-21.85v40.94c0 1.993343-.038333 4.063323-.115 6.21s.076665 4.139991.46 5.98 1.073328 3.334994 2.07 4.485 2.644989 1.725 4.945 1.725c1.533341 0 3.794985-.421662 6.785-1.265s5.558323-1.724995 7.705-2.645v29.44c-1.686675.766671-3.83332 1.418331-6.44 1.955s-5.289986.958332-8.05 1.265-5.328321.574999-7.705.805-4.254993.345-5.635.345c-8.58671 0-15.294976-1.149988-20.125-3.45-4.830024-2.300011-8.394988-5.519979-10.695-9.66-2.300011-4.140021-3.756664-9.19997-4.37-15.18s-.996666-12.649963-1.15-20.01v-40.94h-12.42zm150.19 115h-64.4v-30.13h9.66v-54.97h-9.66v-29.9h53.36v84.87h11.04zm-57.96-148.58c0-2.60668.536661-5.289986 1.61-8.05s2.64499-5.289989 4.715-7.59c2.07001-2.300012 4.676651-4.178326 7.82-5.635s6.708313-2.185 10.695-2.185 7.551651.728326 10.695 2.185 5.788323 3.334988 7.935 5.635c2.146677 2.300011 3.794994 4.829986 4.945 7.59s1.725 5.44332 1.725 8.05c0 6.440032-2.146645 11.921644-6.44 16.445s-10.579959 6.785-18.86 6.785c-3.680018 0-7.014985-.689993-10.005-2.07s-5.596656-3.181656-7.82-5.405-3.948327-4.714986-5.175-7.475-1.84-5.519986-1.84-8.28zm146.51 85.56c-.15333-2.760014-.49833-5.558319-1.035-8.395s-1.34166-5.443321-2.415-7.82-2.52999-4.293326-4.37-5.75-4.06332-2.185-6.67-2.185c-3.37335 0-6.32499.843325-8.855 2.53s-4.63832 3.909986-6.325 6.67-2.95166 5.903316-3.795 9.43-1.265 7.129982-1.265 10.81c0 7.513371 2.10831 13.876641 6.325 19.09s10.00496 7.896666 17.365 8.05c6.13336.153334 11.34665-.958321 15.64-3.335s8.35665-5.634979 12.19-9.775l20.24 23.46c-2.76001 2.913348-6.05665 5.788319-9.89 8.625s-8.16498 5.328323-12.995 7.475-10.08164 3.909993-15.755 5.29-11.57664 2.07-17.71 2.07c-8.43338 0-16.48329-1.264987-24.15-3.795-7.6667-2.530013-14.374971-6.363308-20.125-11.5s-10.349983-11.538295-13.8-19.205-5.175-16.636615-5.175-26.91c0-10.120051 1.571651-18.898296 4.715-26.335s7.321641-13.569976 12.535-18.4 11.23163-8.394989 18.055-10.695 13.91496-3.45 21.275-3.45c3.83335 0 7.32165.459995 10.465 1.38s5.90332 2.069993 8.28 3.45 4.40832 2.836659 6.095 4.37 2.99 2.836661 3.91 3.91l3.91-11.04h27.14v51.98z" fill="#fff"/><path d="m138.631809 584.085816-1.08 17.64-2.52 7.56-3.96 6.48-1.08 3.6-6.48 8.28-8.28 4.32-16.9199996-3.6-12.24-8.28-7.56-10.08-5.76-15.12-1.8-6.48-.72-7.2-1.44-3.96-.36-7.2-1.44-7.92-3.24-3.96 1.8-7.2 2.88-2.52h5.76l5.04 3.24.36 21.6 1.44 7.56 2.52 12.6 6.84 14.4 9 8.28 9.7199996 2.88 8.64-3.96 1.44-2.16 4.68-8.64 1.44-4.32 2.52-18-2.88-26.64-3.96-3.6.72-5.4 1.08-1.08 3.24-.72h2.52l6.84 8.28.72 6.48 2.52 11.52zm79.92 32.4-.36 4.32-4.68 3.96-4.32-.72-2.52-1.44-2.52-3.96-2.52-26.28v-26.64l-3.24-13.32-.72-.36-2.88 3.6-2.88 5.04-7.92 14.4-8.28 15.84-15.48 20.52-6.12 5.04-2.16-.72-6.12-5.04-1.8-4.32.36-9 4.68-25.92.72-6.84 1.08-2.16-.72-11.52-2.52-7.56.72-3.24 5.04-3.96 5.76-1.44 3.24 2.52 1.8 1.8v21.6l-1.8 6.48-.72 5.76-1.8 9.36-.72.72v1.8l1.8 2.16 7.92-8.64 8.64-16.92 3.24-7.2 3.96-6.12 6.12-9.72 5.04-5.04 3.96-1.08 6.12.72 3.24 3.24 4.32 25.2.72 36.72 2.52 14.4z" fill="#5ce2c9" transform="matrix(.98480775 -.17364818 .17364818 .98480775 -98.93723 33.354286)"/><path d="m227.153 705.254-9.52 10.08-3.36 1.96-3.92 1.4-5.88 3.64-5.88 4.2-5.04 3.08-4.48 3.36-9.8 7.84-1.4 3.08-.56 2.52-1.96 1.96-7 1.12-3.92-2.24-1.12-2.52 1.12-4.48 7.56-6.44 1.4-.28 5.6-3.92 3.08-3.08 1.68-.28h.84l2.52-2.52 17.92-13.44 1.68-2.52-1.4-1.4-6.72-1.12-9.8-3.36-14.56-1.96-5.32-1.4-12.32-4.48-2.52-1.12-2.24-2.8v-3.08l3.08-4.2 4.2-2.24 2.52.56 5.6 4.76 5.04 1.68 4.48 3.08 3.92.28 2.52 1.12 6.44.84 9.24 2.24 6.44 1.4 6.44 1.12h2.52l3.36.84 5.6-.28 2.8 2.24z" fill="#5ce2c9" transform="matrix(.17364818 -.98480775 .98480775 .17364818 -547.602837 777.500352)"/><path d="m347.78 389.23v59.8h-33.81v-29.44h-19.32v99.82h19.09v30.59h-85.56v-30.59h18.86v-99.82h-19.78v29.44h-33.81v-59.8zm81.42 160.77h-72.22v-30.13h9.66v-112.47h-9.66v-29.9h55.66v71.76c.613336-1.073339 2.069989-2.606657 4.37-4.6 2.300012-1.993343 5.098317-4.02499 8.395-6.095s6.976646-3.871659 11.04-5.405 8.164979-2.3 12.305-2.3c8.893378 0 15.984974 1.494985 21.275 4.485s9.353319 6.899976 12.19 11.73 4.676662 10.273303 5.52 16.33 1.265 12.07497 1.265 18.055v38.41h10.81v30.13h-59.11v-62.56c0-1.993343-.076666-4.216654-.23-6.67s-.651662-4.753323-1.495-6.9-2.184991-3.986659-4.025-5.52-4.44665-2.3-7.82-2.3c-2.913348 0-5.328324.65166-7.245 1.955s-3.411661 2.98999-4.485 5.06-1.801665 4.369987-2.185 6.9-.575 5.021654-.575 7.475v32.43h16.56zm195.27-15.87c-8.58671 7.360037-17.633286 12.534985-27.14 15.525s-20.23994 4.485-32.2 4.485c-7.206703 0-14.413297-1.188321-21.62-3.565s-13.684971-6.056642-19.435-11.04-10.464982-11.423294-14.145-19.32-5.52-17.364945-5.52-28.405c0-9.35338 1.609984-17.748296 4.83-25.185s7.589972-13.761641 13.11-18.975 12.036629-9.161653 19.55-11.845 15.639956-4.025 24.38-4.025c6.900034 0 13.301637.843325 19.205 2.53s11.231643 3.986652 15.985 6.9 8.81665 6.439979 12.19 10.58 5.903325 8.586643 7.59 13.34c.613336 1.993343 1.226664 4.523318 1.84 7.59s1.034999 6.363316 1.265 9.89.153335 7.168315-.23 10.925-1.188327 7.244984-2.415 10.465h-72.45c.306668 1.533341.804997 3.373323 1.495 5.52s1.878325 4.216657 3.565 6.21 3.986652 3.679993 6.9 5.06 6.823309 2.07 11.73 2.07c1.993343 0 4.178321-.076666 6.555-.23s4.944986-.613329 7.705-1.38 5.673318-1.878326 8.74-3.335 6.133318-3.48832 9.2-6.095zm-56.81-71.3c-3.526684 0-6.401656.689993-8.625 2.07s-3.98666 3.028324-5.29 4.945-2.223331 3.948323-2.76 6.095-.881666 3.909993-1.035 5.29h34.73c0-2.146677-.229998-4.331656-.69-6.555s-1.264994-4.216658-2.415-5.98-2.836656-3.181661-5.06-4.255-5.174982-1.61-8.855-1.61z" fill="#fff"/></g></svg>